<svg width="655" height="533" viewBox="0 0 655 533" fill="none" xmlns="http://www.w3.org/2000/svg">
<g filter="url(#filter0_d_2576_16513)">
<g clip-path="url(#clip0_2576_16513)">
<rect width="611" height="122" transform="translate(22 14)" fill="white"/>
<g opacity="0.8">
<mask id="mask0_2576_16513" style="mask-type:alpha" maskUnits="userSpaceOnUse" x="70" y="46" width="57" height="58">
<rect x="70" y="46.9482" width="56.1033" height="56.1033" fill="#D9D9D9"/>
</mask>
<g mask="url(#mask0_2576_16513)">
<path d="M84.0268 98.3763C82.7411 98.3763 81.6405 97.9185 80.7249 97.0029C79.8093 96.0873 79.3516 94.9867 79.3516 93.701V56.2988C79.3516 55.0131 79.8093 53.9125 80.7249 52.9969C81.6405 52.0813 82.7411 51.6235 84.0268 51.6235H102.728L116.754 65.6494V93.701C116.754 94.9867 116.296 96.0873 115.38 97.0029C114.465 97.9185 113.364 98.3763 112.078 98.3763H84.0268ZM100.39 67.987V56.2988H84.0268V93.701H112.078V67.987H100.39Z" fill="#282828"/>
</g>
</g>
<path opacity="0.8" d="M152.742 92V67.52H157.446V92H152.742ZM152.454 63.152V58.064H157.782V63.152H152.454ZM178.086 76.304C178.086 73.04 176.646 70.832 173.094 70.832C169.062 70.832 166.47 73.28 166.47 76.976V92H161.766V67.52H166.47V70.592H166.566C167.862 68.72 170.406 66.8 174.63 66.8C179.142 66.8 182.79 69.392 182.79 75.008V92H178.086V76.304ZM196.659 92.672C190.419 92.672 185.667 87.824 185.667 79.76C185.667 71.696 190.419 66.8 196.659 66.8C200.499 66.8 202.851 68.576 204.195 70.496H204.291V57.68H208.995V92H204.291V89.12H204.195C202.851 90.848 200.499 92.672 196.659 92.672ZM190.563 79.76C190.563 84.56 192.819 88.784 197.427 88.784C201.651 88.784 204.243 85.28 204.243 79.76C204.243 74.192 201.651 70.736 197.427 70.736C192.819 70.736 190.563 74.96 190.563 79.76ZM224.178 92.72C216.402 92.72 212.082 87.2 212.082 79.712C212.082 72.032 216.69 66.752 224.178 66.752C231.618 66.752 235.794 71.648 235.794 79.232C235.794 79.904 235.794 80.624 235.746 81.008H216.93C217.026 85.088 219.426 88.88 224.274 88.88C228.594 88.88 230.274 86.096 230.706 84.464H235.506C234.21 89.168 230.61 92.72 224.178 92.72ZM216.93 77.312H230.898C230.898 73.472 228.21 70.592 224.034 70.592C220.098 70.592 217.218 73.28 216.93 77.312ZM234.612 92L243.828 79.472L235.428 67.52H240.804L246.66 76.256H246.756L252.516 67.52H257.892L249.492 79.472L258.804 92H253.284L246.66 82.64H246.564L240.084 92H234.612ZM259.68 92V86.768H264.912V92H259.68ZM267.611 100.688C266.603 100.688 265.883 100.592 264.683 100.4V96.512C265.451 96.608 265.835 96.656 266.555 96.656C268.043 96.656 268.763 95.84 268.763 93.104V67.52H273.467V93.296C273.467 98.528 271.067 100.688 267.611 100.688ZM268.475 63.152V58.064H273.803V63.152H268.475ZM287.435 92.672C279.995 92.672 276.299 88.832 276.155 83.84H280.907C281.099 86.672 282.827 88.88 287.387 88.88C291.515 88.88 292.619 87.056 292.619 85.28C292.619 82.208 289.355 81.872 286.187 81.2C281.915 80.192 277.019 78.944 277.019 73.856C277.019 69.632 280.427 66.8 286.331 66.8C293.051 66.8 296.267 70.4 296.603 74.624H291.851C291.515 72.752 290.507 70.592 286.427 70.592C283.259 70.592 281.915 71.84 281.915 73.664C281.915 76.208 284.651 76.448 288.107 77.216C292.619 78.272 297.515 79.568 297.515 85.04C297.515 89.792 293.867 92.672 287.435 92.672ZM296.491 92L305.707 79.472L297.307 67.52H302.683L308.539 76.256H308.635L314.395 67.52H319.771L311.371 79.472L320.683 92H315.163L308.539 82.64H308.443L301.963 92H296.491Z" fill="#282828"/>
<mask id="path-7-inside-1_2576_16513" fill="white">
<path d="M22 136H633V258H22V136Z"/>
</mask>
<path d="M22 136H633V258H22V136Z" fill="white"/>
<g opacity="0.8">
<mask id="mask1_2576_16513" style="mask-type:alpha" maskUnits="userSpaceOnUse" x="70" y="168" width="57" height="58">
<rect x="70" y="168.948" width="56.1033" height="56.1033" fill="#D9D9D9"/>
</mask>
<g mask="url(#mask1_2576_16513)">
<path d="M79.3511 215.701C78.0654 215.701 76.9647 215.243 76.0491 214.328C75.1336 213.412 74.6758 212.311 74.6758 211.026V182.974C74.6758 181.688 75.1336 180.588 76.0491 179.672C76.9647 178.757 78.0654 178.299 79.3511 178.299H93.3769L98.0522 182.974H116.753C118.039 182.974 119.14 183.432 120.055 184.347C120.971 185.263 121.429 186.364 121.429 187.649V211.026C121.429 212.311 120.971 213.412 120.055 214.328C119.14 215.243 118.039 215.701 116.753 215.701H79.3511ZM79.3511 211.026H116.753V187.649H96.1236L91.4483 182.974H79.3511V211.026Z" fill="#282828"/>
</g>
</g>
<path opacity="0.8" d="M162.486 214.672C156.246 214.672 151.494 209.824 151.494 201.76C151.494 193.696 156.246 188.8 162.486 188.8C166.326 188.8 168.678 190.576 170.022 192.496H170.118V179.68H174.822V214H170.118V211.12H170.022C168.678 212.848 166.326 214.672 162.486 214.672ZM156.39 201.76C156.39 206.56 158.646 210.784 163.254 210.784C167.478 210.784 170.07 207.28 170.07 201.76C170.07 196.192 167.478 192.736 163.254 192.736C158.646 192.736 156.39 196.96 156.39 201.76ZM179.157 214V189.52H183.861V214H179.157ZM178.869 185.152V180.064H184.197V185.152H178.869ZM197.829 214.672C190.389 214.672 186.693 210.832 186.549 205.84H191.301C191.493 208.672 193.221 210.88 197.781 210.88C201.909 210.88 203.013 209.056 203.013 207.28C203.013 204.208 199.749 203.872 196.581 203.2C192.309 202.192 187.413 200.944 187.413 195.856C187.413 191.632 190.821 188.8 196.725 188.8C203.445 188.8 206.661 192.4 206.997 196.624H202.245C201.909 194.752 200.901 192.592 196.821 192.592C193.653 192.592 192.309 193.84 192.309 195.664C192.309 198.208 195.045 198.448 198.501 199.216C203.013 200.272 207.909 201.568 207.909 207.04C207.909 211.792 204.261 214.672 197.829 214.672ZM221.41 214.72C214.114 214.72 209.362 209.44 209.362 201.76C209.362 194.08 214.114 188.8 221.362 188.8C227.65 188.8 231.826 192.88 232.402 198.4H227.554C227.314 195.856 225.874 192.688 221.41 192.688C216.178 192.688 214.258 197.152 214.258 201.76C214.258 206.368 216.178 210.784 221.41 210.784C225.922 210.784 227.314 207.712 227.554 204.928H232.402C232.066 210.544 227.698 214.72 221.41 214.72ZM246.142 214.72C238.51 214.72 233.902 209.44 233.902 201.76C233.902 194.128 238.51 188.752 246.19 188.752C253.774 188.752 258.382 194.08 258.382 201.712C258.382 209.392 253.774 214.72 246.142 214.72ZM238.798 201.76C238.798 206.848 241.102 210.832 246.19 210.832C251.182 210.832 253.486 206.848 253.486 201.76C253.486 196.624 251.182 192.688 246.19 192.688C241.102 192.688 238.798 196.624 238.798 201.76ZM271.938 222.784C264.93 222.784 261.426 219.424 260.946 215.008H265.842C266.322 217.216 267.954 218.944 271.938 218.944C276.402 218.944 278.706 216.976 278.706 212.368V209.056H278.61C277.266 211.024 275.01 212.752 271.074 212.752C264.978 212.752 260.274 208.624 260.274 200.8C260.274 192.928 264.978 188.8 271.074 188.8C275.01 188.8 277.266 190.672 278.61 192.4H278.706V189.52H283.41V212.08C283.41 219.472 278.946 222.784 271.938 222.784ZM265.17 200.8C265.17 205.408 267.33 208.864 271.938 208.864C276.162 208.864 278.658 206.128 278.658 200.8C278.658 195.424 276.162 192.736 271.938 192.736C267.33 192.736 265.17 196.192 265.17 200.8ZM292.404 201.328V214H287.7V189.52H292.404V194.176H292.5C293.796 191.104 295.764 188.944 299.076 188.944C299.94 188.944 300.612 188.992 301.332 189.088V193.6C300.756 193.504 300.324 193.456 299.748 193.456C295.476 193.456 292.404 196.672 292.404 201.328ZM309.352 214.672C304.456 214.672 301.336 211.84 301.336 207.664C301.336 202.192 305.464 200.56 311.56 199.408C315.4 198.688 317.752 198.208 317.752 195.808C317.752 194.032 316.696 192.544 313.096 192.544C308.824 192.544 307.528 193.888 307.288 197.152H302.488C302.728 192.448 305.8 188.752 313.288 188.752C318.328 188.752 322.36 190.864 322.36 197.2V208.432C322.36 210.208 322.6 211.12 323.512 211.12C323.656 211.12 323.8 211.12 324.088 211.072V213.952C323.272 214.144 322.456 214.24 321.688 214.24C319.336 214.24 318.088 213.328 317.8 210.544H317.704C316.12 213.088 313.336 214.672 309.352 214.672ZM306.232 207.328C306.232 209.632 307.48 210.88 310.408 210.88C314.632 210.88 317.752 208.72 317.752 204.448V200.944C316.984 201.664 314.872 202.192 312.376 202.72C308.056 203.584 306.232 204.784 306.232 207.328ZM339.46 214.672C335.62 214.672 333.268 212.944 331.924 210.976H331.828V222.496H327.124V189.52H331.828V192.4H331.924C333.268 190.672 335.62 188.8 339.46 188.8C345.7 188.8 350.452 193.696 350.452 201.76C350.452 209.824 345.7 214.672 339.46 214.672ZM331.876 201.76C331.876 207.28 334.468 210.784 338.692 210.784C343.3 210.784 345.508 206.56 345.508 201.76C345.508 196.96 343.3 192.736 338.692 192.736C334.468 192.736 331.876 196.192 331.876 201.76ZM369.859 198.304C369.859 195.04 368.419 192.832 364.867 192.832C360.835 192.832 358.243 195.28 358.243 198.976V214H353.539V179.68H358.243V192.592H358.339C359.635 190.72 362.179 188.8 366.403 188.8C370.915 188.8 374.563 191.392 374.563 197.008V214H369.859V198.304ZM381.435 222.592C380.379 222.592 379.659 222.496 378.411 222.256V218.416C379.227 218.512 379.659 218.56 380.427 218.56C382.299 218.56 384.507 217.6 385.467 213.76L375.579 189.52H380.715L387.867 208.24H387.963L394.683 189.52H399.627L389.931 214.576C387.579 220.624 385.227 222.592 381.435 222.592ZM398.202 214V208.768H403.434V214H398.202ZM406.132 222.688C405.124 222.688 404.404 222.592 403.204 222.4V218.512C403.972 218.608 404.356 218.656 405.076 218.656C406.564 218.656 407.284 217.84 407.284 215.104V189.52H411.988V215.296C411.988 220.528 409.588 222.688 406.132 222.688ZM406.996 185.152V180.064H412.324V185.152H406.996ZM425.956 214.672C418.516 214.672 414.82 210.832 414.676 205.84H419.428C419.62 208.672 421.348 210.88 425.908 210.88C430.036 210.88 431.14 209.056 431.14 207.28C431.14 204.208 427.876 203.872 424.708 203.2C420.436 202.192 415.54 200.944 415.54 195.856C415.54 191.632 418.948 188.8 424.852 188.8C431.572 188.8 434.788 192.4 435.124 196.624H430.372C430.036 194.752 429.028 192.592 424.948 192.592C421.78 192.592 420.436 193.84 420.436 195.664C420.436 198.208 423.172 198.448 426.628 199.216C431.14 200.272 436.036 201.568 436.036 207.04C436.036 211.792 432.388 214.672 425.956 214.672ZM435.012 214L444.228 201.472L435.828 189.52H441.204L447.06 198.256H447.156L452.916 189.52H458.292L449.892 201.472L459.204 214H453.684L447.06 204.64H446.964L440.484 214H435.012Z" fill="#282828"/>
<path d="M22 137H633V135H22V137Z" fill="black" fill-opacity="0.1" mask="url(#path-7-inside-1_2576_16513)"/>
<mask id="path-12-inside-2_2576_16513" fill="white">
<path d="M22 258H633V380H22V258Z"/>
</mask>
<path d="M22 258H633V380H22V258Z" fill="white"/>
<g opacity="0.8">
<mask id="mask2_2576_16513" style="mask-type:alpha" maskUnits="userSpaceOnUse" x="140" y="290" width="57" height="58">
<rect x="140" y="290.948" width="56.1033" height="56.1033" fill="#D9D9D9"/>
</mask>
<g mask="url(#mask2_2576_16513)">
<path d="M154.027 342.376C152.741 342.376 151.64 341.918 150.725 341.003C149.809 340.087 149.352 338.987 149.352 337.701V300.299C149.352 299.013 149.809 297.912 150.725 296.997C151.64 296.081 152.741 295.624 154.027 295.624H172.728L186.754 309.649V337.701C186.754 338.987 186.296 340.087 185.38 341.003C184.465 341.918 183.364 342.376 182.078 342.376H154.027ZM170.39 311.987V300.299H154.027V337.701H182.078V311.987H170.39Z" fill="#282828"/>
</g>
</g>
<path opacity="0.8" d="M222.742 336V311.52H227.446V336H222.742ZM222.454 307.152V302.064H227.782V307.152H222.454ZM248.086 320.304C248.086 317.04 246.646 314.832 243.094 314.832C239.062 314.832 236.47 317.28 236.47 320.976V336H231.766V311.52H236.47V314.592H236.566C237.862 312.72 240.406 310.8 244.63 310.8C249.142 310.8 252.79 313.392 252.79 319.008V336H248.086V320.304ZM266.659 336.672C260.419 336.672 255.667 331.824 255.667 323.76C255.667 315.696 260.419 310.8 266.659 310.8C270.499 310.8 272.851 312.576 274.195 314.496H274.291V301.68H278.995V336H274.291V333.12H274.195C272.851 334.848 270.499 336.672 266.659 336.672ZM260.563 323.76C260.563 328.56 262.819 332.784 267.427 332.784C271.651 332.784 274.243 329.28 274.243 323.76C274.243 318.192 271.651 314.736 267.427 314.736C262.819 314.736 260.563 318.96 260.563 323.76ZM294.178 336.72C286.402 336.72 282.082 331.2 282.082 323.712C282.082 316.032 286.69 310.752 294.178 310.752C301.618 310.752 305.794 315.648 305.794 323.232C305.794 323.904 305.794 324.624 305.746 325.008H286.93C287.026 329.088 289.426 332.88 294.274 332.88C298.594 332.88 300.274 330.096 300.706 328.464H305.506C304.21 333.168 300.61 336.72 294.178 336.72ZM286.93 321.312H300.898C300.898 317.472 298.21 314.592 294.034 314.592C290.098 314.592 287.218 317.28 286.93 321.312ZM304.612 336L313.828 323.472L305.428 311.52H310.804L316.66 320.256H316.756L322.516 311.52H327.892L319.492 323.472L328.804 336H323.284L316.66 326.64H316.564L310.084 336H304.612ZM329.68 336V330.768H334.912V336H329.68ZM337.611 344.688C336.603 344.688 335.883 344.592 334.683 344.4V340.512C335.451 340.608 335.835 340.656 336.555 340.656C338.043 340.656 338.763 339.84 338.763 337.104V311.52H343.467V337.296C343.467 342.528 341.067 344.688 337.611 344.688ZM338.475 307.152V302.064H343.803V307.152H338.475ZM357.435 336.672C349.995 336.672 346.299 332.832 346.155 327.84H350.907C351.099 330.672 352.827 332.88 357.387 332.88C361.515 332.88 362.619 331.056 362.619 329.28C362.619 326.208 359.355 325.872 356.187 325.2C351.915 324.192 347.019 322.944 347.019 317.856C347.019 313.632 350.427 310.8 356.331 310.8C363.051 310.8 366.267 314.4 366.603 318.624H361.851C361.515 316.752 360.507 314.592 356.427 314.592C353.259 314.592 351.915 315.84 351.915 317.664C351.915 320.208 354.651 320.448 358.107 321.216C362.619 322.272 367.515 323.568 367.515 329.04C367.515 333.792 363.867 336.672 357.435 336.672ZM366.491 336L375.707 323.472L367.307 311.52H372.683L378.539 320.256H378.635L384.395 311.52H389.771L381.371 323.472L390.683 336H385.163L378.539 326.64H378.443L371.963 336H366.491Z" fill="#282828"/>
<path d="M22 259H633V257H22V259Z" fill="black" fill-opacity="0.1" mask="url(#path-12-inside-2_2576_16513)"/>
<mask id="path-17-inside-3_2576_16513" fill="white">
<path d="M22 380H633V502H22V380Z"/>
</mask>
<path d="M22 380H633V502H22V380Z" fill="white"/>
<g opacity="0.8">
<mask id="mask3_2576_16513" style="mask-type:alpha" maskUnits="userSpaceOnUse" x="140" y="412" width="57" height="58">
<rect x="140" y="412.948" width="56.1033" height="56.1033" fill="#D9D9D9"/>
</mask>
<g mask="url(#mask3_2576_16513)">
<path d="M154.027 464.376C152.741 464.376 151.64 463.918 150.725 463.003C149.809 462.087 149.352 460.987 149.352 459.701V422.299C149.352 421.013 149.809 419.912 150.725 418.997C151.64 418.081 152.741 417.624 154.027 417.624H172.728L186.754 431.649V459.701C186.754 460.987 186.296 462.087 185.38 463.003C184.465 463.918 183.364 464.376 182.078 464.376H154.027ZM170.39 433.987V422.299H154.027V459.701H182.078V433.987H170.39Z" fill="#282828"/>
</g>
</g>
<path opacity="0.8" d="M223.222 463.856V421.616H233.59V426.08H228.406V459.392H233.59V463.856H223.222ZM245.07 458.672C237.63 458.672 233.934 454.832 233.79 449.84H238.542C238.734 452.672 240.462 454.88 245.022 454.88C249.15 454.88 250.254 453.056 250.254 451.28C250.254 448.208 246.99 447.872 243.822 447.2C239.55 446.192 234.654 444.944 234.654 439.856C234.654 435.632 238.062 432.8 243.966 432.8C250.686 432.8 253.902 436.4 254.238 440.624H249.486C249.15 438.752 248.142 436.592 244.062 436.592C240.894 436.592 239.55 437.84 239.55 439.664C239.55 442.208 242.286 442.448 245.742 443.216C250.254 444.272 255.15 445.568 255.15 451.04C255.15 455.792 251.502 458.672 245.07 458.672ZM257.9 458V423.68H262.604V458H257.9ZM274.892 458.672C270.38 458.672 266.732 456.08 266.732 450.464V433.52H271.436V449.168C271.436 452.48 272.876 454.688 276.428 454.688C280.46 454.688 283.052 452.24 283.052 448.544V433.52H287.756V458H283.052V454.928H282.956C281.66 456.8 279.116 458.672 274.892 458.672ZM302.585 466.784C295.577 466.784 292.073 463.424 291.593 459.008H296.489C296.969 461.216 298.601 462.944 302.585 462.944C307.049 462.944 309.353 460.976 309.353 456.368V453.056H309.257C307.913 455.024 305.657 456.752 301.721 456.752C295.625 456.752 290.921 452.624 290.921 444.8C290.921 436.928 295.625 432.8 301.721 432.8C305.657 432.8 307.913 434.672 309.257 436.4H309.353V433.52H314.057V456.08C314.057 463.472 309.593 466.784 302.585 466.784ZM295.817 444.8C295.817 449.408 297.977 452.864 302.585 452.864C306.809 452.864 309.305 450.128 309.305 444.8C309.305 439.424 306.809 436.736 302.585 436.736C297.977 436.736 295.817 440.192 295.817 444.8ZM316.2 463.856V459.392H321.384V426.08H316.2V421.616H326.568V463.856H316.2ZM330.877 458V452.768H336.109V458H330.877ZM338.807 466.688C337.799 466.688 337.079 466.592 335.879 466.4V462.512C336.647 462.608 337.031 462.656 337.751 462.656C339.239 462.656 339.959 461.84 339.959 459.104V433.52H344.663V459.296C344.663 464.528 342.263 466.688 338.807 466.688ZM339.671 429.152V424.064H344.999V429.152H339.671ZM358.631 458.672C351.191 458.672 347.495 454.832 347.351 449.84H352.103C352.295 452.672 354.023 454.88 358.583 454.88C362.711 454.88 363.815 453.056 363.815 451.28C363.815 448.208 360.551 447.872 357.383 447.2C353.111 446.192 348.215 444.944 348.215 439.856C348.215 435.632 351.623 432.8 357.527 432.8C364.247 432.8 367.463 436.4 367.799 440.624H363.047C362.711 438.752 361.703 436.592 357.623 436.592C354.455 436.592 353.111 437.84 353.111 439.664C353.111 442.208 355.847 442.448 359.303 443.216C363.815 444.272 368.711 445.568 368.711 451.04C368.711 455.792 365.063 458.672 358.631 458.672ZM367.687 458L376.903 445.472L368.503 433.52H373.879L379.735 442.256H379.831L385.591 433.52H390.967L382.567 445.472L391.879 458H386.359L379.735 448.64H379.639L373.159 458H367.687Z" fill="#282828"/>
<path d="M22 381H633V379H22V381Z" fill="black" fill-opacity="0.1" mask="url(#path-17-inside-3_2576_16513)"/>
</g>
<rect x="22.5" y="14.5" width="610" height="487" rx="15.5" stroke="black" stroke-opacity="0.1" shape-rendering="crispEdges"/>
</g>
<defs>
<filter id="filter0_d_2576_16513" x="0.0846481" y="0.850789" width="654.831" height="531.831" filterUnits="userSpaceOnUse" color-interpolation-filters="sRGB">
<feFlood flood-opacity="0" result="BackgroundImageFix"/>
<feColorMatrix in="SourceAlpha" type="matrix" values="0 0 0 0 0 0 0 0 0 0 0 0 0 0 0 0 0 0 127 0" result="hardAlpha"/>
<feOffset dy="8.76614"/>
<feGaussianBlur stdDeviation="10.9577"/>
<feComposite in2="hardAlpha" operator="out"/>
<feColorMatrix type="matrix" values="0 0 0 0 0 0 0 0 0 0 0 0 0 0 0 0 0 0 0.1 0"/>
<feBlend mode="normal" in2="BackgroundImageFix" result="effect1_dropShadow_2576_16513"/>
<feBlend mode="normal" in="SourceGraphic" in2="effect1_dropShadow_2576_16513" result="shape"/>
</filter>
<clipPath id="clip0_2576_16513">
<rect x="22" y="14" width="611" height="488" rx="16" fill="white"/>
</clipPath>
</defs>
</svg>
