<svg width="200" height="200" viewBox="0 0 200 200" fill="none" xmlns="http://www.w3.org/2000/svg">
<rect x="75" y="50" width="52" height="23" rx="4" fill="#EBEBEB"/>
<rect x="78" y="53.5" width="16" height="16" rx="2" fill="#383838"/>
<mask id="mask0_2496_17776" style="mask-type:alpha" maskUnits="userSpaceOnUse" x="79" y="54" width="14" height="15">
<rect x="79" y="54.5" width="14" height="14" fill="#D9D9D9"/>
</mask>
<g mask="url(#mask0_2496_17776)">
<path d="M86 67.3346C85.6792 67.3346 85.4045 67.2204 85.176 66.9919C84.9476 66.7635 84.8333 66.4888 84.8333 66.168H87.1667C87.1667 66.4888 87.0524 66.7635 86.824 66.9919C86.5955 67.2204 86.3208 67.3346 86 67.3346ZM83.6667 65.5846V64.418H88.3333V65.5846H83.6667ZM83.8125 63.8346C83.1417 63.436 82.6094 62.9013 82.2156 62.2305C81.8219 61.5596 81.625 60.8305 81.625 60.043C81.625 58.8277 82.0503 57.7947 82.901 56.944C83.7517 56.0933 84.7847 55.668 86 55.668C87.2153 55.668 88.2483 56.0933 89.099 56.944C89.9497 57.7947 90.375 58.8277 90.375 60.043C90.375 60.8305 90.1781 61.5596 89.7844 62.2305C89.3906 62.9013 88.8583 63.436 88.1875 63.8346H83.8125ZM84.1625 62.668H87.8375C88.275 62.3569 88.6128 61.9728 88.851 61.5159C89.0892 61.0589 89.2083 60.568 89.2083 60.043C89.2083 59.1485 88.8972 58.3902 88.275 57.768C87.6528 57.1457 86.8944 56.8346 86 56.8346C85.1056 56.8346 84.3472 57.1457 83.725 57.768C83.1028 58.3902 82.7917 59.1485 82.7917 60.043C82.7917 60.568 82.9108 61.0589 83.149 61.5159C83.3872 61.9728 83.725 62.3569 84.1625 62.668Z" fill="white" fill-opacity="0.8"/>
</g>
<path d="M98.994 67V56.99H100.534V67H98.994ZM104.695 67.196C102.875 67.196 101.489 65.782 101.489 63.43C101.489 61.078 102.875 59.65 104.695 59.65C105.815 59.65 106.501 60.168 106.893 60.728H106.921V56.99H108.293V67H106.921V66.16H106.893C106.501 66.664 105.815 67.196 104.695 67.196ZM102.917 63.43C102.917 64.83 103.575 66.062 104.919 66.062C106.151 66.062 106.907 65.04 106.907 63.43C106.907 61.806 106.151 60.798 104.919 60.798C103.575 60.798 102.917 62.03 102.917 63.43ZM112.722 67.21C110.454 67.21 109.194 65.6 109.194 63.416C109.194 61.176 110.538 59.636 112.722 59.636C114.892 59.636 116.11 61.064 116.11 63.276C116.11 63.472 116.11 63.682 116.096 63.794H110.608C110.636 64.984 111.336 66.09 112.75 66.09C114.01 66.09 114.5 65.278 114.626 64.802H116.026C115.648 66.174 114.598 67.21 112.722 67.21ZM110.608 62.716H114.682C114.682 61.596 113.898 60.756 112.68 60.756C111.532 60.756 110.692 61.54 110.608 62.716ZM118.963 67.196C117.535 67.196 116.625 66.37 116.625 65.152C116.625 63.556 117.829 63.08 119.607 62.744C120.727 62.534 121.413 62.394 121.413 61.694C121.413 61.176 121.105 60.742 120.055 60.742C118.809 60.742 118.431 61.134 118.361 62.086H116.961C117.031 60.714 117.927 59.636 120.111 59.636C121.581 59.636 122.757 60.252 122.757 62.1V65.376C122.757 65.894 122.827 66.16 123.093 66.16C123.135 66.16 123.177 66.16 123.261 66.146V66.986C123.023 67.042 122.785 67.07 122.561 67.07C121.875 67.07 121.511 66.804 121.427 65.992H121.399C120.937 66.734 120.125 67.196 118.963 67.196ZM118.053 65.054C118.053 65.726 118.417 66.09 119.271 66.09C120.503 66.09 121.413 65.46 121.413 64.214V63.192C121.189 63.402 120.573 63.556 119.845 63.71C118.585 63.962 118.053 64.312 118.053 65.054Z" fill="#383838"/>
<rect x="60" y="89" width="81" height="23" rx="4" fill="#E9EFFC"/>
<rect x="63" y="92.5" width="16" height="16" rx="2" fill="#2767E3"/>
<mask id="mask1_2496_17776" style="mask-type:alpha" maskUnits="userSpaceOnUse" x="64" y="93" width="14" height="15">
<rect x="64" y="93.5" width="14" height="14" fill="#D9D9D9"/>
</mask>
<g mask="url(#mask1_2496_17776)">
<path d="M71.1458 99.8146L71.6854 100.354L74.85 97.1896L74.3104 96.65L71.1458 99.8146ZM66.9167 104.583H67.4562L70.8542 101.185L70.3146 100.646L66.9167 104.044V104.583ZM72.0937 101.594L69.9062 99.4062L72.3417 96.9708L71.9187 96.5479L68.725 99.7417L67.9083 98.925L71.0875 95.7312C71.3208 95.4979 71.5955 95.3813 71.9115 95.3813C72.2274 95.3813 72.5021 95.4979 72.7354 95.7312L73.1583 96.1542L73.8875 95.425C74.0042 95.3083 74.1427 95.25 74.3031 95.25C74.4635 95.25 74.6021 95.3083 74.7187 95.425L76.075 96.7812C76.1917 96.8979 76.25 97.0365 76.25 97.1969C76.25 97.3573 76.1917 97.4958 76.075 97.6125L72.0937 101.594ZM67.9375 105.75H65.75V103.562L69.9062 99.4062L72.0937 101.594L67.9375 105.75Z" fill="#D4E1F9"/>
</g>
<path d="M83.994 106V95.99H87.802C90.574 95.99 92.254 97.782 92.254 101.002C92.254 104.222 90.602 106 87.83 106H83.994ZM85.534 104.67H87.732C90.056 104.67 90.658 102.934 90.658 101.002C90.658 99.07 90.056 97.32 87.732 97.32H85.534V104.67ZM94.5554 102.304V106H93.1834V98.86H94.5554V100.218H94.5834C94.9614 99.322 95.5354 98.692 96.5014 98.692C96.7534 98.692 96.9494 98.706 97.1594 98.734V100.05C96.9914 100.022 96.8654 100.008 96.6974 100.008C95.4514 100.008 94.5554 100.946 94.5554 102.304ZM99.4985 106.196C98.0705 106.196 97.1605 105.37 97.1605 104.152C97.1605 102.556 98.3645 102.08 100.142 101.744C101.262 101.534 101.948 101.394 101.948 100.694C101.948 100.176 101.64 99.742 100.59 99.742C99.3445 99.742 98.9665 100.134 98.8965 101.086H97.4965C97.5665 99.714 98.4625 98.636 100.646 98.636C102.116 98.636 103.292 99.252 103.292 101.1V104.376C103.292 104.894 103.362 105.16 103.628 105.16C103.67 105.16 103.712 105.16 103.796 105.146V105.986C103.558 106.042 103.32 106.07 103.096 106.07C102.41 106.07 102.046 105.804 101.962 104.992H101.934C101.472 105.734 100.66 106.196 99.4985 106.196ZM98.5885 104.054C98.5885 104.726 98.9525 105.09 99.8065 105.09C101.038 105.09 101.948 104.46 101.948 103.214V102.192C101.724 102.402 101.108 102.556 100.38 102.71C99.1205 102.962 98.5885 103.312 98.5885 104.054ZM105.036 97.992C105.036 96.34 105.722 95.892 106.884 95.892C107.15 95.892 107.36 95.92 107.752 95.976V97.082C107.472 97.054 107.36 97.04 107.164 97.04C106.59 97.04 106.422 97.208 106.422 97.964V98.86H107.752V99.994H106.422V106H105.036V99.994H104.056V98.86H105.036V97.992ZM110.691 106.084C109.515 106.084 108.801 105.636 108.801 103.984V99.994H107.765V98.86H108.801V96.564H110.173V98.86H111.545V99.994H110.173V104.026C110.173 104.782 110.383 104.95 110.971 104.95C111.209 104.95 111.321 104.936 111.559 104.894V106C111.209 106.07 110.985 106.084 110.691 106.084ZM116.691 107.708C115.641 106.294 114.745 104.096 114.745 101.562C114.745 98.944 115.641 96.802 116.691 95.388H117.895C116.985 97.082 116.271 98.972 116.271 101.562C116.271 104.096 116.985 106.014 117.895 107.708H116.691ZM119.944 106L117.396 98.86H118.866L120.742 104.586H120.756L122.604 98.86H124.032L121.484 106H119.944ZM123.691 106V104.474H125.217V106H123.691ZM125.962 106C125.962 104.18 127.068 102.92 128.916 101.772C130.554 100.778 131.38 100.372 131.38 99.084C131.38 98.286 131.058 97.432 129.742 97.432C128.23 97.432 127.754 98.412 127.754 99.742H126.214C126.214 97.684 127.334 96.13 129.784 96.13C131.534 96.13 132.948 97.18 132.948 99.028C132.948 100.904 131.422 101.87 130.036 102.724C129.084 103.284 128.188 103.816 127.908 104.67V104.698H132.836V106H125.962ZM133.444 107.708C134.354 106.014 135.082 104.11 135.082 101.52C135.082 98.986 134.354 97.082 133.444 95.388H134.648C135.698 96.802 136.594 98.986 136.594 101.52C136.594 104.138 135.698 106.294 134.648 107.708H133.444Z" fill="#2767E3"/>
<rect x="62" y="128" width="77" height="23" rx="4" fill="#E8F8E8"/>
<rect x="65" y="131.5" width="16" height="16" rx="2" fill="#20BB1D"/>
<mask id="mask2_2496_17776" style="mask-type:alpha" maskUnits="userSpaceOnUse" x="66" y="132" width="14" height="15">
<rect x="66" y="132.5" width="14" height="14" fill="#D9D9D9"/>
</mask>
<g mask="url(#mask2_2496_17776)">
<path d="M71.0115 145.625L69.9031 143.758L67.8031 143.292L68.0073 141.133L66.5781 139.5L68.0073 137.867L67.8031 135.708L69.9031 135.242L71.0115 133.375L72.9948 134.221L74.9781 133.375L76.0865 135.242L78.1865 135.708L77.9823 137.867L79.4115 139.5L77.9823 141.133L78.1865 143.292L76.0865 143.758L74.9781 145.625L72.9948 144.779L71.0115 145.625ZM71.5073 144.138L72.9948 143.496L74.5115 144.138L75.3281 142.738L76.9323 142.358L76.7865 140.725L77.8656 139.5L76.7865 138.246L76.9323 136.613L75.3281 136.263L74.4823 134.862L72.9948 135.504L71.4781 134.862L70.6615 136.263L69.0573 136.613L69.2031 138.246L68.124 139.5L69.2031 140.725L69.0573 142.387L70.6615 142.738L71.5073 144.138ZM72.3823 141.571L75.6781 138.275L74.8615 137.429L72.3823 139.908L71.1281 138.683L70.3115 139.5L72.3823 141.571Z" fill="white" fill-opacity="0.8"/>
</g>
<path d="M85.994 145V134.99H90.166C92.056 134.99 93.442 135.872 93.442 137.972C93.442 140.072 92.056 140.94 90.166 140.94H87.534V145H85.994ZM87.534 139.61H90.096C91.258 139.61 91.846 139.092 91.846 137.972C91.846 136.838 91.258 136.32 90.096 136.32H87.534V139.61ZM97.0629 145.21C94.8369 145.21 93.4929 143.67 93.4929 141.43C93.4929 139.204 94.8369 137.636 97.0769 137.636C99.2889 137.636 100.633 139.19 100.633 141.416C100.633 143.656 99.2889 145.21 97.0629 145.21ZM94.9209 141.43C94.9209 142.914 95.5929 144.076 97.0769 144.076C98.5329 144.076 99.2049 142.914 99.2049 141.43C99.2049 139.932 98.5329 138.784 97.0769 138.784C95.5929 138.784 94.9209 139.932 94.9209 141.43ZM101.521 145V134.99H102.893V145H101.521ZM104.153 145V137.86H105.525V145H104.153ZM104.069 136.586V135.102H105.623V136.586H104.069ZM109.599 145.196C107.429 145.196 106.351 144.076 106.309 142.62H107.695C107.751 143.446 108.255 144.09 109.585 144.09C110.789 144.09 111.111 143.558 111.111 143.04C111.111 142.144 110.159 142.046 109.235 141.85C107.989 141.556 106.561 141.192 106.561 139.708C106.561 138.476 107.555 137.65 109.277 137.65C111.237 137.65 112.175 138.7 112.273 139.932H110.887C110.789 139.386 110.495 138.756 109.305 138.756C108.381 138.756 107.989 139.12 107.989 139.652C107.989 140.394 108.787 140.464 109.795 140.688C111.111 140.996 112.539 141.374 112.539 142.97C112.539 144.356 111.475 145.196 109.599 145.196ZM118.101 140.422C118.101 139.47 117.681 138.826 116.645 138.826C115.469 138.826 114.713 139.54 114.713 140.618V145H113.341V134.99H114.713V138.756H114.741C115.119 138.21 115.861 137.65 117.093 137.65C118.409 137.65 119.473 138.406 119.473 140.044V145H118.101V140.422ZM123.84 145.21C121.572 145.21 120.312 143.6 120.312 141.416C120.312 139.176 121.656 137.636 123.84 137.636C126.01 137.636 127.228 139.064 127.228 141.276C127.228 141.472 127.228 141.682 127.214 141.794H121.726C121.754 142.984 122.454 144.09 123.868 144.09C125.128 144.09 125.618 143.278 125.744 142.802H127.144C126.766 144.174 125.716 145.21 123.84 145.21ZM121.726 140.716H125.8C125.8 139.596 125.016 138.756 123.798 138.756C122.65 138.756 121.81 139.54 121.726 140.716ZM130.949 145.196C129.129 145.196 127.743 143.782 127.743 141.43C127.743 139.078 129.129 137.65 130.949 137.65C132.069 137.65 132.755 138.168 133.147 138.728H133.175V134.99H134.547V145H133.175V144.16H133.147C132.755 144.664 132.069 145.196 130.949 145.196ZM129.171 141.43C129.171 142.83 129.829 144.062 131.173 144.062C132.405 144.062 133.161 143.04 133.161 141.43C133.161 139.806 132.405 138.798 131.173 138.798C129.829 138.798 129.171 140.03 129.171 141.43Z" fill="#20BB1D"/>
</svg>
