<svg width="200" height="200" viewBox="0 0 200 200" fill="none" xmlns="http://www.w3.org/2000/svg">
<rect x="75" y="50" width="51" height="23" rx="4" fill="#EBEBEB"/>
<rect x="78" y="53.5" width="16" height="16" rx="2" fill="#383838"/>
<mask id="mask0_2496_17776" style="mask-type:alpha" maskUnits="userSpaceOnUse" x="79" y="54" width="14" height="15">
<rect x="79" y="54.5" width="14" height="14" fill="#D9D9D9"/>
</mask>
<g mask="url(#mask0_2496_17776)">
<path d="M88.9047 64.9995H91.6531V65.8745H88.0298L88.9047 64.9995ZM81.7141 65.8745L80.682 64.8425C80.4771 64.6376 80.3722 64.3885 80.3674 64.0954C80.3625 63.8022 80.4625 63.5483 80.6674 63.3337L86.8373 56.9305C87.0422 56.7159 87.2897 56.6095 87.5799 56.6114C87.8701 56.6132 88.1176 56.7166 88.3225 56.9215L90.9666 59.5656C91.1715 59.7705 91.2749 60.0205 91.2768 60.3155C91.2786 60.6105 91.1771 60.8605 90.9722 61.0654L86.2797 65.8745H81.7141ZM85.9073 64.9995L90.3575 60.4327C90.3874 60.4028 90.4023 60.3598 90.4023 60.3037C90.4023 60.2476 90.3874 60.2046 90.3575 60.1747L87.7224 57.5396C87.6925 57.5097 87.6504 57.4947 87.5962 57.4947C87.5419 57.4947 87.4999 57.5116 87.47 57.5452L81.2822 63.9372C81.2522 63.9708 81.2373 64.0148 81.2373 64.069C81.2373 64.1232 81.2522 64.1653 81.2822 64.1952L82.0865 64.9995H85.9073Z" fill="white"/>
</g>
<path d="M100.688 67L98.196 56.99H99.806L101.57 64.872H101.598L103.67 56.99H105.294L107.38 64.872H107.408L109.172 56.99H110.782L108.276 67H106.624L104.496 58.95H104.468L102.354 67H100.688ZM111.689 67V56.99H113.229V67H111.689ZM114.936 67V56.99H119.108C120.998 56.99 122.384 57.872 122.384 59.972C122.384 62.072 120.998 62.94 119.108 62.94H116.476V67H114.936ZM116.476 61.61H119.038C120.2 61.61 120.788 61.092 120.788 59.972C120.788 58.838 120.2 58.32 119.038 58.32H116.476V61.61Z" fill="#383838"/>
<rect x="73" y="89" width="55" height="23" rx="4" fill="#E9EFFC"/>
<rect x="76" y="92.5" width="16" height="16" rx="2" fill="#2767E3"/>
<mask id="mask1_2496_17776" style="mask-type:alpha" maskUnits="userSpaceOnUse" x="77" y="93" width="14" height="15">
<rect x="77" y="93.5" width="14" height="14" fill="#D9D9D9"/>
</mask>
<g mask="url(#mask1_2496_17776)">
<path d="M84.0645 99.9377L84.5984 100.472L87.8808 97.1893L87.3469 96.6553L84.0645 99.9377ZM79.9531 104.583H80.4871L83.9691 101.101L83.4352 100.567L79.9531 104.049V104.583ZM84.9058 101.408L83.1334 99.6303L85.7483 97.0154L85.432 96.699C85.4021 96.6691 85.3572 96.6542 85.2974 96.6542C85.2375 96.6542 85.1926 96.6691 85.1627 96.699L82.1429 99.7189L81.5281 99.1154L84.5502 96.0843C84.7611 95.8734 85.0106 95.768 85.2985 95.768C85.5864 95.768 85.8358 95.8734 86.0467 96.0843L86.3631 96.4007L86.9688 95.7949C87.0743 95.6894 87.1988 95.6367 87.3424 95.6367C87.486 95.6367 87.6105 95.6894 87.7159 95.7949L88.7637 96.8426C88.8691 96.9481 88.92 97.0689 88.9162 97.205C88.9125 97.3411 88.8579 97.4619 88.7524 97.5673L84.9058 101.408ZM80.8505 105.458H79.0781V103.686L83.1278 99.6303L84.9058 101.408L80.8505 105.458Z" fill="white"/>
</g>
<path d="M96.994 106V95.99H100.802C103.574 95.99 105.254 97.782 105.254 101.002C105.254 104.222 103.602 106 100.83 106H96.994ZM98.534 104.67H100.732C103.056 104.67 103.658 102.934 103.658 101.002C103.658 99.07 103.056 97.32 100.732 97.32H98.534V104.67ZM107.555 102.304V106H106.183V98.86H107.555V100.218H107.583C107.961 99.322 108.535 98.692 109.501 98.692C109.753 98.692 109.949 98.706 110.159 98.734V100.05C109.991 100.022 109.865 100.008 109.697 100.008C108.451 100.008 107.555 100.946 107.555 102.304ZM112.498 106.196C111.07 106.196 110.16 105.37 110.16 104.152C110.16 102.556 111.364 102.08 113.142 101.744C114.262 101.534 114.948 101.394 114.948 100.694C114.948 100.176 114.64 99.742 113.59 99.742C112.344 99.742 111.966 100.134 111.896 101.086H110.496C110.566 99.714 111.462 98.636 113.646 98.636C115.116 98.636 116.292 99.252 116.292 101.1V104.376C116.292 104.894 116.362 105.16 116.628 105.16C116.67 105.16 116.712 105.16 116.796 105.146V105.986C116.558 106.042 116.32 106.07 116.096 106.07C115.41 106.07 115.046 105.804 114.962 104.992H114.934C114.472 105.734 113.66 106.196 112.498 106.196ZM111.588 104.054C111.588 104.726 111.952 105.09 112.806 105.09C114.038 105.09 114.948 104.46 114.948 103.214V102.192C114.724 102.402 114.108 102.556 113.38 102.71C112.12 102.962 111.588 103.312 111.588 104.054ZM118.036 97.992C118.036 96.34 118.722 95.892 119.884 95.892C120.15 95.892 120.36 95.92 120.752 95.976V97.082C120.472 97.054 120.36 97.04 120.164 97.04C119.59 97.04 119.422 97.208 119.422 97.964V98.86H120.752V99.994H119.422V106H118.036V99.994H117.056V98.86H118.036V97.992ZM123.691 106.084C122.515 106.084 121.801 105.636 121.801 103.984V99.994H120.765V98.86H121.801V96.564H123.173V98.86H124.545V99.994H123.173V104.026C123.173 104.782 123.383 104.95 123.971 104.95C124.209 104.95 124.321 104.936 124.559 104.894V106C124.209 106.07 123.985 106.084 123.691 106.084Z" fill="#2767E3"/>
<rect x="69" y="128" width="62" height="23" rx="4" fill="#E8F8E8"/>
<rect x="72" y="131.5" width="16" height="16" rx="2" fill="#37B034"/>
<mask id="mask2_2496_17776" style="mask-type:alpha" maskUnits="userSpaceOnUse" x="73" y="132" width="14" height="15">
<rect x="73" y="132.5" width="14" height="14" fill="#D9D9D9"/>
</mask>
<g mask="url(#mask2_2496_17776)">
<path d="M78.5728 142.797L75.4609 139.685L76.0847 139.061L78.5728 141.55L83.9193 136.203L84.543 136.827L78.5728 142.797Z" fill="white"/>
</g>
<path d="M92.994 145V134.99H100.078V136.32H94.534V139.162H99.392V140.492H94.534V143.67H100.218V145H92.994ZM103.863 145.196C101.693 145.196 100.615 144.076 100.573 142.62H101.959C102.015 143.446 102.519 144.09 103.849 144.09C105.053 144.09 105.375 143.558 105.375 143.04C105.375 142.144 104.423 142.046 103.499 141.85C102.253 141.556 100.825 141.192 100.825 139.708C100.825 138.476 101.819 137.65 103.541 137.65C105.501 137.65 106.439 138.7 106.537 139.932H105.151C105.053 139.386 104.759 138.756 103.569 138.756C102.645 138.756 102.253 139.12 102.253 139.652C102.253 140.394 103.051 140.464 104.059 140.688C105.375 140.996 106.803 141.374 106.803 142.97C106.803 144.356 105.739 145.196 103.863 145.196ZM110.419 145.196C108.249 145.196 107.171 144.076 107.129 142.62H108.515C108.571 143.446 109.075 144.09 110.405 144.09C111.609 144.09 111.931 143.558 111.931 143.04C111.931 142.144 110.979 142.046 110.055 141.85C108.809 141.556 107.381 141.192 107.381 139.708C107.381 138.476 108.375 137.65 110.097 137.65C112.057 137.65 112.995 138.7 113.093 139.932H111.707C111.609 139.386 111.315 138.756 110.125 138.756C109.201 138.756 108.809 139.12 108.809 139.652C108.809 140.394 109.607 140.464 110.615 140.688C111.931 140.996 113.359 141.374 113.359 142.97C113.359 144.356 112.295 145.196 110.419 145.196ZM116.134 145.196C114.706 145.196 113.796 144.37 113.796 143.152C113.796 141.556 115 141.08 116.778 140.744C117.898 140.534 118.584 140.394 118.584 139.694C118.584 139.176 118.276 138.742 117.226 138.742C115.98 138.742 115.602 139.134 115.532 140.086H114.132C114.202 138.714 115.098 137.636 117.282 137.636C118.752 137.636 119.928 138.252 119.928 140.1V143.376C119.928 143.894 119.998 144.16 120.264 144.16C120.306 144.16 120.348 144.16 120.432 144.146V144.986C120.194 145.042 119.956 145.07 119.732 145.07C119.046 145.07 118.682 144.804 118.598 143.992H118.57C118.108 144.734 117.296 145.196 116.134 145.196ZM115.224 143.054C115.224 143.726 115.588 144.09 116.442 144.09C117.674 144.09 118.584 143.46 118.584 142.214V141.192C118.36 141.402 117.744 141.556 117.016 141.71C115.756 141.962 115.224 142.312 115.224 143.054ZM122.023 147.506C121.715 147.506 121.505 147.478 121.141 147.408V146.288C121.379 146.316 121.505 146.33 121.729 146.33C122.275 146.33 122.919 146.05 123.199 144.93L120.315 137.86H121.813L123.899 143.32H123.927L125.887 137.86H127.329L124.501 145.168C123.815 146.932 123.129 147.506 122.023 147.506Z" fill="#37B034"/>
</svg>
