<svg width="225" height="225" viewBox="0 0 225 225" fill="current" xmlns="http://www.w3.org/2000/svg">
<path fill-rule="evenodd" clip-rule="evenodd" d="M150.245 69.5933C147.487 70.9892 147.926 75.2823 150.904 76.0294C152.215 76.3585 154.515 75.5868 155.017 74.649C156.784 71.3458 153.552 67.9204 150.245 69.5933ZM52.537 81.2435C51.2318 81.5711 49.0415 82.4559 47.6695 83.2101L45.1751 84.5809L44.8451 83.2997C44.4762 81.8684 40.6897 81.0934 39.9287 82.2935C39.4344 83.0728 39.5001 109.97 39.9984 110.901C40.4804 111.802 44.2537 112.019 45.0792 111.193C45.4286 110.844 45.5568 107.644 45.5568 99.2816V87.8471L47.7547 86.8075C50.4286 85.5426 54.5191 85.0601 56.3039 85.7997C58.6972 86.7908 58.8504 87.5804 59.0805 100.128L59.2887 111.472L61.4105 111.593C64.8097 111.788 64.662 112.345 64.662 99.3377V87.8981L67.0931 86.8071C69.9744 85.5139 73.6478 85.0701 75.4134 85.8013C77.8163 86.7963 77.968 87.58 78.1917 100.128L78.3939 111.472L80.6188 111.589C83.9698 111.766 83.8388 112.326 83.694 98.4632L83.5682 86.3963L82.4565 84.5049C79.7543 79.9081 71.83 79.5781 65.4704 83.798L63.692 84.9782L62.9326 83.7793C61.3202 81.2323 56.8886 80.1513 52.537 81.2435ZM130.643 81.0222C124.875 82.0348 121.512 86.9396 123.16 91.934C124.199 95.08 125.62 96.1073 132.822 98.9166C137.457 100.725 138.297 101.46 138.297 103.71C138.297 108.275 134.009 109.1 123.247 106.608C121.512 106.206 122.155 110.073 123.968 110.943C132.759 115.16 143.609 111.055 143.609 103.511C143.609 99.0356 141.842 97.2218 134.731 94.3962C129.375 92.268 127.948 91.1531 127.948 89.0977C127.948 86.0369 131.349 84.5439 136.355 85.4072C142.046 86.388 141.815 86.3907 142.08 85.336C142.885 82.1287 136.994 79.9069 130.643 81.0222ZM171.227 81.4337C158.707 84.5702 157.176 106.487 169.155 111.107C174.668 113.233 182.943 111.823 183.201 108.713C183.375 106.617 183.096 106.493 179.756 107.176C170.878 108.993 166.405 104.731 167.081 95.0967C167.633 87.2162 171.492 84.7986 181.283 86.1973L182.676 86.3963V84.4078C182.676 82.4455 182.656 82.4125 181.084 81.8672C179.118 81.185 173.25 80.9271 171.227 81.4337ZM91.3321 93.6603C91.3344 106.868 91.4869 107.941 93.6709 110.126C96.8638 113.318 102.604 113.243 108.631 109.931L111.201 108.518L111.46 109.899C111.746 111.425 112.539 111.822 114.858 111.601L116.206 111.472L116.311 96.6271L116.415 81.7824L113.723 81.9002L111.032 82.018L110.926 93.5898L110.821 105.162L108.538 106.208C105.549 107.579 104.867 107.748 102.297 107.748C97.2893 107.748 96.9219 106.72 96.9108 92.6652L96.902 81.819H94.1158H91.3297L91.3321 93.6603ZM149.225 82.3186C149.119 82.5932 149.08 89.2649 149.138 97.145L149.242 111.472H151.829H154.417L154.521 96.6455L154.625 81.819H152.021C150.299 81.819 149.351 81.9882 149.225 82.3186ZM170.401 123.207C160.778 124.948 154.792 129.621 163.074 128.928C181.493 127.387 182.467 128.776 175.567 146.762C173.228 152.861 178.757 149.07 182.367 142.1C185.741 135.587 187.442 126.015 185.481 124.574C183.608 123.197 174.846 122.403 170.401 123.207ZM38.8397 126.14C36.6944 128.724 57.7005 142.917 71.8475 148.442C104.671 161.259 146.437 157.097 170.935 138.567C176.059 134.69 173.135 132.775 166.266 135.508C155.21 139.907 143.709 142.777 129.142 144.772C103.139 148.334 65.7594 140.749 42.9036 127.272C40.2324 125.697 39.3994 125.465 38.8397 126.14Z"/>
</svg>
