<svg width="32" height="32" viewBox="0 0 32 32" fill="none" xmlns="http://www.w3.org/2000/svg">
<path fill-rule="evenodd" clip-rule="evenodd" d="M23.9828 4.4812C23.8824 4.49877 23.3969 4.59331 22.9039 4.69135C22.4109 4.78938 21.0813 5.05636 19.9493 5.28463C18.8172 5.5129 16.8602 5.90852 15.6003 6.16378C14.3405 6.41904 13.2349 6.64432 13.1435 6.66437C13.0521 6.68445 12.8878 6.75032 12.7783 6.81071C12.6657 6.87292 12.5329 6.98114 12.4723 7.06016C12.4134 7.13694 12.3387 7.27754 12.3063 7.37258C12.2508 7.53525 12.2464 7.94159 12.2307 14.2846L12.2141 21.0238L12.1215 21.2124C12.0706 21.3161 11.9742 21.449 11.9074 21.5077C11.8406 21.5663 11.7247 21.6414 11.6499 21.6745C11.5751 21.7076 11.2457 21.7887 10.9179 21.8548C10.5901 21.9208 10.1202 22.019 9.87368 22.073C9.62718 22.1269 9.28123 22.2155 9.10488 22.2697C8.92853 22.3239 8.68529 22.4128 8.56432 22.467C8.44334 22.5213 8.24402 22.6307 8.12139 22.7102C7.99872 22.7896 7.81016 22.9432 7.70233 23.0513C7.5945 23.1595 7.43472 23.357 7.34731 23.4902C7.25987 23.6233 7.15672 23.8168 7.11808 23.9201C7.07944 24.0234 7.02346 24.2057 6.99372 24.3253C6.95806 24.4687 6.94024 24.6784 6.94147 24.9411C6.94279 25.2377 6.96132 25.4074 7.01397 25.6051C7.05284 25.7512 7.14421 25.9902 7.21698 26.1363C7.28975 26.2823 7.42851 26.4987 7.52535 26.6171C7.62222 26.7355 7.78947 26.9032 7.89704 26.9899C8.0046 27.0766 8.20896 27.208 8.35118 27.282C8.49337 27.356 8.72606 27.4478 8.86821 27.4861C9.0738 27.5415 9.22522 27.5558 9.60809 27.5564C9.95139 27.5569 10.2037 27.5371 10.4878 27.4873C10.7069 27.449 11.0132 27.3806 11.1684 27.3354C11.3236 27.2903 11.5552 27.2065 11.683 27.1494C11.8108 27.0923 11.9751 27.0058 12.0481 26.9573C12.1212 26.9088 12.2755 26.794 12.3912 26.7022C12.5068 26.6103 12.6829 26.4343 12.7825 26.3111C12.8821 26.1878 13.0218 25.9785 13.093 25.846C13.1642 25.7135 13.2515 25.5229 13.2872 25.4225C13.3228 25.3221 13.368 25.1727 13.3876 25.0905C13.4072 25.0084 13.4416 24.8664 13.464 24.7752C13.4951 24.6486 13.5092 23.1592 13.5234 18.5007C13.5403 12.9753 13.5472 12.3811 13.5956 12.2746C13.6251 12.2098 13.6956 12.1178 13.7523 12.0701C13.809 12.0224 13.9268 11.9598 14.0141 11.9311C14.1014 11.9023 14.8077 11.7508 15.5837 11.5944C16.3597 11.438 17.876 11.1328 18.9533 10.9161C20.0306 10.6994 21.4014 10.4237 21.9995 10.3036C22.5977 10.1834 23.1579 10.0851 23.2444 10.0851C23.331 10.0851 23.4531 10.1113 23.5157 10.1432C23.5831 10.1775 23.6577 10.2555 23.6983 10.334C23.7665 10.4658 23.7671 10.4974 23.7767 14.434C23.7835 17.2188 23.7754 18.4654 23.7497 18.6169C23.7295 18.7356 23.6768 18.8948 23.6326 18.9707C23.5883 19.0465 23.4959 19.1523 23.4272 19.2057C23.3585 19.2591 23.2425 19.3261 23.1695 19.3546C23.0964 19.383 22.6931 19.4763 22.2731 19.5619C21.8532 19.6476 21.3079 19.768 21.0614 19.8296C20.8149 19.8912 20.5086 19.9806 20.3808 20.0284C20.253 20.0762 20.0386 20.1743 19.9044 20.2463C19.7702 20.3184 19.5737 20.4454 19.4677 20.5287C19.3617 20.6119 19.2164 20.7499 19.1448 20.8353C19.0731 20.9207 18.9614 21.0681 18.8965 21.1629C18.8316 21.2577 18.7331 21.4444 18.6776 21.5779C18.6221 21.7113 18.5512 21.9468 18.52 22.101C18.4782 22.3077 18.4677 22.478 18.48 22.7484C18.4926 23.0252 18.5186 23.1805 18.5858 23.3808C18.6348 23.5269 18.7375 23.7581 18.8141 23.8945C18.8907 24.0309 19.0641 24.2592 19.1994 24.4018C19.3347 24.5444 19.5439 24.7258 19.6642 24.805C19.7845 24.8841 19.9854 24.9894 20.1108 25.0389C20.2361 25.0884 20.4453 25.1517 20.5755 25.1794C20.756 25.2179 20.9348 25.2256 21.327 25.2116C21.6836 25.1989 21.9683 25.1675 22.2542 25.1094C22.4812 25.0633 22.765 24.9933 22.885 24.9538C23.0049 24.9144 23.2025 24.8334 23.3241 24.7739C23.4457 24.7143 23.6357 24.6041 23.7463 24.529C23.857 24.4538 24.0247 24.3151 24.1192 24.2206C24.2137 24.1262 24.3577 23.9584 24.4393 23.8477C24.5209 23.737 24.6361 23.5493 24.6955 23.4306C24.7549 23.312 24.8344 23.1244 24.8722 23.0138C24.91 22.9033 24.9682 22.6792 25.0014 22.5159C25.0588 22.2333 25.0617 21.8022 25.0617 13.6206V5.02236L24.9721 4.85239C24.9228 4.75891 24.8364 4.64371 24.7802 4.5964C24.7239 4.54906 24.6223 4.49492 24.5544 4.47606C24.4866 4.4572 24.3712 4.44346 24.2982 4.44552C24.2252 4.44761 24.0832 4.46364 23.9828 4.4812Z" fill="url(#paint0_linear_2357_28473)"/>
<defs>
<linearGradient id="paint0_linear_2357_28473" x1="25.0617" y1="4.44531" x2="7.25461" y2="26.4902" gradientUnits="userSpaceOnUse">
<stop stop-color="#FB556D"/>
<stop offset="1" stop-color="#FA263E"/>
</linearGradient>
</defs>
</svg>
