<svg width="225" height="225" viewBox="0 0 225 225" fill="none" xmlns="http://www.w3.org/2000/svg">
<path d="M175.945 52.9634C175.945 64.9553 166.223 74.6767 154.231 74.6767C142.239 74.6767 132.518 64.9553 132.518 52.9634C132.518 40.9714 142.239 31.25 154.231 31.25C166.223 31.25 175.945 40.9714 175.945 52.9634Z" fill="black"/>
<path d="M175.945 171.593C175.945 183.83 166.223 193.75 154.231 193.75C142.239 193.75 132.518 183.83 132.518 171.593C132.518 159.357 142.239 149.437 154.231 149.437C166.223 149.437 175.945 159.357 175.945 171.593Z" fill="black"/>
<path d="M132.518 53.6638H175.945V172.308H132.518V105.688V102.236V102.203V53.6638Z" fill="black"/>
<path d="M86.1222 152.084C77.6426 160.563 63.8945 160.563 55.4149 152.084C46.9353 143.604 46.9353 129.856 55.4149 121.376C63.8945 112.897 77.6426 112.897 86.1222 121.376C94.6018 129.856 94.6018 143.604 86.1222 152.084Z" fill="black"/>
<path fill-rule="evenodd" clip-rule="evenodd" d="M167.843 70.3625L137.136 39.6552L54.9196 121.872L85.6269 152.579L117.567 120.639C119.067 119.138 119.91 117.103 119.91 114.982V102.226V102.213C119.91 102.147 119.911 102.082 119.914 102.016C120.021 98.6287 122.801 95.9156 126.214 95.9156C129.628 95.9156 132.408 98.6287 132.515 102.016C132.517 102.078 132.518 102.14 132.518 102.203L132.518 102.219L132.518 102.236V105.688L167.843 70.3625Z" fill="black"/>
</svg>
