<svg width="225" height="225" viewBox="0 0 225 225" fill="none" xmlns="http://www.w3.org/2000/svg">
<path fill-rule="evenodd" clip-rule="evenodd" d="M154.965 66.7793C153.683 67.2204 153.63 67.3243 152.223 72.1254C149.164 82.5661 138.975 115.442 136.954 121.394C135.483 125.723 135.256 125.854 135.525 122.219C135.711 119.704 136.317 99.6632 136.61 86.3058L136.687 82.7838L135.383 81.6919C134.276 80.7653 133.751 80.6 131.917 80.6C127.703 80.6 128.696 79.2015 115.956 103.076C113.504 107.669 111.199 111.821 110.832 112.303L110.165 113.18L109.232 112.238C107.193 110.181 104.021 102.252 103.182 97.1163C102.254 91.438 98.2212 92.8338 91.2529 101.245C82.7817 111.471 82.201 111.865 81.5543 107.833C80.5765 101.737 77.3061 101.247 72.2326 106.437C68.3739 110.384 66.1472 110.912 61.392 109.009C57.1468 107.309 55.3393 108.412 55.334 112.702L55.3314 115L58.18 116.482C63.3445 119.168 67.4873 118.748 72.4236 115.037C75.685 112.586 75.4341 112.338 76.8545 119.393C78.1015 125.588 78.8458 127.304 80.2834 127.304C82.6409 127.304 86.3704 123.99 92.0454 116.853C94.7086 113.504 95.9866 112.238 96.7067 112.238C96.982 112.238 97.7779 114.573 100.943 124.668C105.473 139.117 104.901 139.211 115.024 122.355C122.577 109.78 122.746 109.535 123.058 110.779C123.233 111.478 123.467 120.908 123.579 131.735L123.782 151.419L124.828 152.864C126.722 155.478 131.152 158.566 133.009 158.566C135.236 158.566 136.305 155.852 146.842 123.448C150.537 112.086 150.909 111.397 150.52 116.647C150.369 118.676 150.246 121.431 150.246 122.769V125.201L152.506 126.779C155.247 128.692 161.402 131.824 162.423 131.824C163.54 131.824 165.367 129.486 167.242 125.657C169.372 121.306 169.032 121.559 174.295 120.415C179.502 119.283 178.996 119.587 179.294 117.417C180.002 112.249 178.935 110.248 175.366 110.047C170.241 109.757 166.595 111.613 164.581 115.537L163.277 118.076L163.261 116.193C163.223 111.923 164.778 90.1163 165.744 81.3778C166.646 73.2185 166.047 68.8953 163.851 67.7157C161.643 66.53 157.087 66.0501 154.965 66.7793ZM46.742 109.267C44.5051 110.568 45.4599 113.546 48.2478 113.964C51.1548 114.4 52.6109 113.076 51.9819 110.57C51.6116 109.094 48.4079 108.298 46.742 109.267Z" fill="black"/>
</svg>
