<svg width="32" height="32" viewBox="0 0 32 32" fill="none" xmlns="http://www.w3.org/2000/svg">
<path fill-rule="evenodd" clip-rule="evenodd" d="M23.3249 8.11421C23.1038 8.19028 23.0945 8.20821 22.852 9.03626C22.3244 10.837 20.5671 16.5072 20.2184 17.5337C19.9648 18.2802 19.9257 18.3028 19.9721 17.676C20.0042 17.2422 20.1086 13.7857 20.1591 11.482L20.1724 10.8745L19.9475 10.6862C19.7567 10.5264 19.6661 10.4979 19.3497 10.4979C18.623 10.4979 18.7942 10.2567 16.5969 14.3743C16.1741 15.1665 15.7764 15.8826 15.7132 15.9658L15.5982 16.117L15.4372 15.9546C15.0856 15.5997 14.5385 14.2322 14.3937 13.3465C14.2338 12.3671 13.5382 12.6079 12.3364 14.0586C10.8753 15.8222 10.7752 15.8902 10.6636 15.1948C10.495 14.1434 9.93093 14.0589 9.05592 14.954C8.3904 15.6348 8.00635 15.7259 7.18622 15.3976C6.45405 15.1045 6.14231 15.2946 6.1414 16.0345L6.14094 16.4309L6.63224 16.6865C7.52298 17.1498 8.23748 17.0773 9.08885 16.4373C9.65135 16.0145 9.60808 15.9718 9.85305 17.1886C10.0681 18.257 10.1965 18.553 10.4444 18.553C10.851 18.553 11.4943 17.9815 12.473 16.7505C12.9324 16.1728 13.1528 15.9546 13.277 15.9546C13.3245 15.9546 13.4617 16.3573 14.0076 18.0983C14.7889 20.5904 14.6903 20.6066 16.4362 17.6995C17.7388 15.5306 17.768 15.4884 17.8218 15.7029C17.852 15.8235 17.8924 17.4498 17.9116 19.3171L17.9466 22.7121L18.1271 22.9613C18.4538 23.4122 19.2178 23.9447 19.5381 23.9447C19.9221 23.9447 20.1065 23.4767 21.9239 17.8878C22.5611 15.9283 22.6253 15.8095 22.5582 16.715C22.5322 17.0649 22.511 17.54 22.511 17.7707V18.1902L22.9008 18.4624C23.3734 18.7924 24.4351 19.3325 24.6112 19.3325C24.8038 19.3325 25.1188 18.9293 25.4422 18.269C25.8096 17.5185 25.751 17.5621 26.6587 17.3648C27.5568 17.1696 27.4695 17.222 27.5208 16.8478C27.6429 15.9564 27.459 15.6113 26.8434 15.5766C25.9595 15.5266 25.3307 15.8467 24.9833 16.5235L24.7585 16.9614L24.7556 16.6366C24.7491 15.9002 25.0173 12.1392 25.1839 10.632C25.3394 9.22478 25.2361 8.47916 24.8574 8.2757C24.4766 8.07121 23.6908 7.98845 23.3249 8.11421ZM4.65952 15.4421C4.27372 15.6665 4.43839 16.18 4.91923 16.2521C5.4206 16.3274 5.67173 16.0991 5.56325 15.6668C5.49939 15.4123 4.94684 15.2749 4.65952 15.4421Z" fill="url(#paint0_linear_2357_28445)"/>
<defs>
<linearGradient id="paint0_linear_2357_28445" x1="4.44531" y1="16.1555" x2="27.5564" y2="16.1555" gradientUnits="userSpaceOnUse">
<stop stop-color="#FFCF00"/>
<stop offset="1" stop-color="#F86500"/>
</linearGradient>
</defs>
</svg>
