<svg width="14" height="15" viewBox="0 0 14 15" fill="none" xmlns="http://www.w3.org/2000/svg">
<mask id="mask0_2488_17606" style="mask-type:alpha" maskUnits="userSpaceOnUse" x="0" y="0" width="14" height="15">
<rect y="0.5" width="14" height="14" fill="#D9D9D9"/>
</mask>
<g mask="url(#mask0_2488_17606)">
<path d="M7 13.3346C6.67917 13.3346 6.40451 13.2204 6.17604 12.9919C5.94757 12.7635 5.83333 12.4888 5.83333 12.168H8.16667C8.16667 12.4888 8.05243 12.7635 7.82396 12.9919C7.59549 13.2204 7.32083 13.3346 7 13.3346ZM4.66667 11.5846V10.418H9.33333V11.5846H4.66667ZM4.8125 9.83464C4.14167 9.43602 3.60938 8.9013 3.21563 8.23047C2.82188 7.55964 2.625 6.83047 2.625 6.04297C2.625 4.82769 3.05035 3.7947 3.90104 2.94401C4.75174 2.09332 5.78472 1.66797 7 1.66797C8.21528 1.66797 9.24826 2.09332 10.099 2.94401C10.9497 3.7947 11.375 4.82769 11.375 6.04297C11.375 6.83047 11.1781 7.55964 10.7844 8.23047C10.3906 8.9013 9.85833 9.43602 9.1875 9.83464H4.8125ZM5.1625 8.66797H8.8375C9.275 8.35686 9.61285 7.97283 9.85104 7.51589C10.0892 7.05894 10.2083 6.56797 10.2083 6.04297C10.2083 5.14852 9.89722 4.39019 9.275 3.76797C8.65278 3.14575 7.89444 2.83464 7 2.83464C6.10556 2.83464 5.34722 3.14575 4.725 3.76797C4.10278 4.39019 3.79167 5.14852 3.79167 6.04297C3.79167 6.56797 3.91076 7.05894 4.14896 7.51589C4.38715 7.97283 4.725 8.35686 5.1625 8.66797Z" fill="white" fill-opacity="0.8"/>
</g>
</svg>
