<svg width="225" height="225" viewBox="0 0 225 225" fill="none" xmlns="http://www.w3.org/2000/svg">
<path fill-rule="evenodd" clip-rule="evenodd" d="M97.3119 46.1301C81.3875 47.541 73.8321 52.2857 77.2736 58.7147C79.9498 63.7165 100.779 66.8608 121.087 65.3295C132.286 64.4848 134.362 63.5679 133.435 59.8775C132.691 56.9137 131.087 56.4962 123.677 57.3372C113.793 58.4584 89.139 57.26 89.139 55.6574C89.139 52.5532 132.737 53.4916 136.973 56.6871C138.399 57.7622 140.93 68.8483 139.968 69.8083C137.478 72.295 96.3141 72.2973 83.9381 69.812C72.7124 67.557 68.8199 69.9791 66.7886 80.4812C65.6822 86.2 66.7195 89.4253 70.5644 92.2264C75.7274 95.9881 111.889 98.6027 130.978 96.5936C139.167 95.7325 139.666 95.9168 139.649 99.8033C139.611 108.773 133.611 164.182 131.893 167.577C128.132 173.317 100.613 174.412 94.8288 169.051C92.114 166.535 91.7789 164.6 88.3916 131.858C86.3046 111.688 84.9702 101.601 84.2391 100.467C81.9529 96.922 76.8597 99.7877 77.5871 104.21C77.8026 105.523 79.319 119.803 80.9558 135.944C85.2153 177.936 85.0303 177.61 105.485 179.116C122.558 180.373 132.016 178.581 136.915 173.159C140.407 169.293 140.832 167.578 142.637 150.061C143.501 141.684 145.11 126.004 146.214 115.217C147.764 100.078 148.474 95.4732 149.328 95.0289C149.937 94.7116 151.751 93.8201 153.359 93.0466C155.26 92.1327 156.805 90.6364 157.773 88.7692C160.499 83.5163 156.228 69.8187 151.865 69.8187C149.36 69.8187 147.878 67.1194 146.768 60.5313C145.768 54.5927 145.364 53.5867 143.157 51.5427C137.836 46.6115 118.131 44.2852 97.3119 46.1301ZM83.3348 77.5992C100.754 80.9322 129.013 80.5934 146.152 76.8458C150.195 75.9617 152.699 83.416 149.135 85.7297C144.318 88.8569 108.22 90.1609 87.8425 87.9438C74.1471 86.4534 73.9977 86.382 74.4621 81.5541C74.9748 76.2172 75.3165 76.0642 83.3348 77.5992ZM122.573 105.088C120.735 105.66 116.221 107.295 112.543 108.721C104.995 111.647 98.6277 112.587 93.3533 111.555L89.7661 110.853L90.206 114.297C90.4482 116.191 91.6295 127.849 92.8309 140.202C95.7264 169.979 94.522 168.264 112.542 168.264C125.275 168.264 127.343 167.759 129.259 164.182C130.35 162.141 135.55 106.273 134.724 105.448C133.509 104.233 126.033 104.012 122.573 105.088Z" fill="black"/>
</svg>
