<svg width="225" height="225" viewBox="0 0 225 225" fill="none" xmlns="http://www.w3.org/2000/svg">
<path fill-rule="evenodd" clip-rule="evenodd" d="M59.5562 52.5307C58.5683 52.8797 54.8902 56.9397 52.8598 59.9226C40.24 78.4623 44.2324 103.905 61.9004 117.535C64.9049 119.853 65.5962 120.155 66.3813 119.494C67.0329 118.946 67.0274 118.612 66.3295 116.436C61.3125 100.79 64.7371 84.5343 75.6614 72.1389C77.5517 69.994 77.4041 70.9224 77.3551 61.4814C77.3104 52.8498 77.32 52.9615 76.5871 52.5837C76.0442 52.3041 60.3366 52.2552 59.5562 52.5307ZM110.389 52.5953C109.53 52.9465 109.583 52.3482 109.501 62.7494C109.413 73.8505 109.379 74.1496 107.807 77.2816C105.369 82.1413 101.339 85.0596 95.6515 86.0837C93.1133 86.5407 92.8302 87.5404 94.1344 91.4416C99.2889 106.86 121.361 106.011 125.465 90.2365L125.823 88.8631L125.902 81.5432C125.946 77.5173 126.034 74.1149 126.097 73.9824C126.329 73.4979 126.741 73.4201 129.366 73.366C133.411 73.2825 133.503 73.1102 132.054 68.3286C130.145 62.0291 125.521 53.6823 123.409 52.7228C122.817 52.4538 111.017 52.3381 110.389 52.5953ZM158.025 53.6767C157.469 54.2322 157.508 54.6786 158.298 56.8633C160.238 62.2243 161.649 68.281 162.295 74.0201C164.243 91.3385 159.576 109.716 149.595 124.026C130.28 151.717 94.2785 163.027 63.1028 151.197C61.4109 150.555 60.7324 150.613 60.2431 151.442C59.7029 152.356 60.5519 153.414 64.267 156.455C97.3322 183.519 145.597 175.804 168.694 139.763C184.95 114.398 182.682 80.7349 163.127 57.1437C159.931 53.2882 159.027 52.6742 158.025 53.6767Z" fill="black"/>
</svg>
