<svg width="32" height="32" viewBox="0 0 32 32" fill="none" xmlns="http://www.w3.org/2000/svg">
<path d="M22.2954 14.2694L22.2542 13.9238C22.1065 12.6873 21.3962 11.597 20.3313 10.8368C19.0275 9.923 17.1942 9.5026 15.2178 9.8018C14.5638 9.90082 13.962 10.0827 13.419 10.3392C11.3889 11.3149 10.1408 13.3521 10.1368 16.0566C10.1368 16.0767 10.1369 16.097 10.137 16.1172L10.137 16.1192C10.1577 19.8013 12.508 22.3168 15.7543 22.1312C17.8333 22.0124 19.2285 20.828 19.7679 18.7243L19.9061 18.1853L19.9104 21.8609H22.6492V15.8069H16.4029V16.96H17.8924C18.7993 16.96 19.3819 16.9779 19.3819 17.0056C19.3819 17.0914 19.1404 17.8159 19.0241 18.0787C18.2863 19.7471 16.618 20.3477 14.9634 19.5406C12.441 18.3102 12.3967 13.6347 14.8952 12.3385C15.7208 11.9103 16.6039 11.851 17.3553 12.0893C17.6021 12.1622 17.8353 12.2663 18.046 12.4015C18.5054 12.6963 18.8658 13.1666 19.0576 13.7138L19.0577 13.7139C19.0603 13.7213 19.0628 13.7287 19.0654 13.7361L19.0659 13.7377C19.0664 13.7391 19.0669 13.7405 19.0673 13.7418L19.0699 13.7495C19.0713 13.7538 19.0728 13.7581 19.0742 13.7624C19.085 13.7952 19.0953 13.8285 19.105 13.8621C19.1078 13.8718 19.1105 13.8815 19.1132 13.8913L19.1143 13.8955C19.1181 13.909 19.1217 13.9226 19.1252 13.9362L19.211 14.2694H22.2954Z" fill="black"/>
<path fill-rule="evenodd" clip-rule="evenodd" d="M16.5512 27.5802C22.6413 27.5802 27.5783 22.6433 27.5783 16.5532C27.5783 13.6915 26.4882 11.0844 24.7006 9.12456C24.3457 8.73544 23.9633 8.37184 23.5565 8.03682C21.6517 6.46818 19.2115 5.52618 16.5512 5.52618C10.4612 5.52618 5.52422 10.4631 5.52422 16.5532C5.52422 19.2134 6.46623 21.6536 8.03486 23.5584C8.36988 23.9653 8.73349 24.3477 9.12261 24.7026C11.0825 26.4901 13.6896 27.5802 16.5512 27.5802ZM22.2954 14.2694L22.2542 13.9238C22.1065 12.6873 21.3962 11.597 20.3313 10.8368C19.0275 9.923 17.1942 9.5026 15.2178 9.8018C14.5638 9.90082 13.962 10.0827 13.419 10.3392C11.3889 11.3149 10.1408 13.3521 10.1368 16.0566C10.1368 16.0767 10.1369 16.097 10.137 16.1172L10.137 16.1192C10.1577 19.8013 12.508 22.3168 15.7543 22.1312C17.8333 22.0124 19.2285 20.828 19.7679 18.7243L19.9061 18.1853L19.9104 21.8609H22.6492V15.8069H16.4029V16.96H17.8924C18.7993 16.96 19.3819 16.9779 19.3819 17.0056C19.3819 17.0914 19.1404 17.8159 19.0241 18.0787C18.2863 19.7471 16.618 20.3477 14.9634 19.5406C12.441 18.3102 12.3967 13.6347 14.8952 12.3385C15.7208 11.9103 16.6039 11.851 17.3553 12.0893C17.6021 12.1622 17.8353 12.2663 18.046 12.4015C18.5054 12.6963 18.8658 13.1666 19.0576 13.7138L19.0577 13.7139C19.0603 13.7213 19.0628 13.7287 19.0654 13.7361L19.0659 13.7377L19.0673 13.7418L19.0699 13.7495C19.0713 13.7538 19.0728 13.7581 19.0742 13.7624C19.085 13.7952 19.0953 13.8285 19.105 13.8621C19.1078 13.8718 19.1105 13.8815 19.1132 13.8913L19.1143 13.8955C19.1181 13.909 19.1217 13.9226 19.1252 13.9362L19.211 14.2694H22.2954Z" fill="#FE90E7"/>
<path fill-rule="evenodd" clip-rule="evenodd" d="M17.272 28.4451C23.4416 28.4451 28.4431 23.4436 28.4431 17.2739C28.4431 14.1968 27.199 11.4102 25.1863 9.38982C23.1283 6.91187 20.0241 5.33398 16.5512 5.33398C10.355 5.33398 5.33203 10.357 5.33203 16.5532C5.33203 20.026 6.90991 23.1303 9.38787 25.1882C11.4083 27.2009 14.1948 28.4451 17.272 28.4451ZM16.5512 27.5802C22.6413 27.5802 27.5783 22.6433 27.5783 16.5532C27.5783 13.6915 26.4882 11.0844 24.7006 9.12456C24.3457 8.73544 23.9633 8.37184 23.5565 8.03682C21.6517 6.46818 19.2115 5.52618 16.5512 5.52618C10.4612 5.52618 5.52422 10.4631 5.52422 16.5532C5.52422 19.2134 6.46623 21.6536 8.03486 23.5584C8.36988 23.9653 8.73349 24.3477 9.12261 24.7026C11.0825 26.4901 13.6896 27.5802 16.5512 27.5802Z" fill="black"/>
</svg>
