<svg width="14" height="14" viewBox="0 0 14 14" fill="inherit" xmlns="http://www.w3.org/2000/svg">
<g mask="url(#mask0_2522_18063)">
<path d="M7.06447 6.43767L7.59844 6.97165L10.8808 3.68926L10.3469 3.15529L7.06447 6.43767ZM2.95311 11.083H3.48708L6.96914 7.60095L6.43516 7.06698L2.95311 10.549V11.083ZM7.90581 7.90832L6.1334 6.13031L8.74832 3.51538L8.43198 3.19904C8.40207 3.16913 8.35719 3.15417 8.29736 3.15417C8.23752 3.15417 8.19264 3.16913 8.16273 3.19904L5.14287 6.2189L4.52814 5.6154L7.55024 2.58432C7.76115 2.37342 8.01056 2.26797 8.29848 2.26797C8.58641 2.26797 8.83582 2.37342 9.04671 2.58432L9.36305 2.90065L9.96882 2.29489C10.0743 2.18944 10.1988 2.13672 10.3424 2.13672C10.486 2.13672 10.6105 2.18944 10.7159 2.29489L11.7637 3.34263C11.8691 3.44808 11.92 3.56886 11.9162 3.70497C11.9125 3.84108 11.8579 3.96186 11.7524 4.0673L7.90581 7.90832ZM3.85053 11.958H2.07812V10.1856L6.1278 6.13031L7.90581 7.90832L3.85053 11.958Z" fill="white"/>
</g>
</svg>
