<svg width="14" height="14" viewBox="0 0 14 14" fill="inherit" xmlns="http://www.w3.org/2000/svg">
<g mask="url(#mask0_2522_18256)">
<path d="M9.90475 10.4995H12.6531V11.3745H9.02976L9.90475 10.4995ZM2.71405 11.3745L1.68201 10.3425C1.4771 10.1376 1.37222 9.88854 1.36736 9.59537C1.3625 9.30221 1.46252 9.04831 1.66742 8.83369L7.83728 2.43049C8.0422 2.21586 8.28974 2.10948 8.57991 2.11135C8.87008 2.11322 9.11762 2.21661 9.32252 2.42153L11.9666 5.06557C12.1715 5.27049 12.2749 5.52046 12.2768 5.81549C12.2786 6.11052 12.1771 6.36049 11.9722 6.56539L7.27973 11.3745H2.71405ZM6.9073 10.4995L11.3575 5.93273C11.3874 5.90281 11.4023 5.8598 11.4023 5.80371C11.4023 5.74761 11.3874 5.7046 11.3575 5.67469L8.72239 3.03961C8.69246 3.0097 8.65039 2.99474 8.59617 2.99474C8.54195 2.99474 8.49988 3.01157 8.46996 3.04523L2.28215 9.43719C2.25224 9.47085 2.23728 9.51479 2.23728 9.56901C2.23728 9.62324 2.25224 9.66531 2.28215 9.69523L3.08647 10.4995H6.9073Z" fill="white"/>
</g>
</svg>
