<svg width="225" height="225" viewBox="0 0 225 225" fill="none" xmlns="http://www.w3.org/2000/svg">
<path fill-rule="evenodd" clip-rule="evenodd" d="M88.0921 27.0962C87.0559 27.849 86.7293 28.8057 87.0485 30.1547C87.3037 31.2337 87.7566 32.8927 88.0552 33.8396C88.4646 35.1389 88.193 35.6674 86.9525 35.9904C85.6857 36.3199 85.3788 36.9544 85.6176 38.7536C85.7874 40.0374 86.1657 43.4744 86.4561 46.3902C86.909 50.9249 86.7613 51.9273 85.4322 53.3228C84.5772 54.22 80.0179 59.4913 75.3001 65.0366C70.5824 70.5819 66.2503 75.761 65.6735 76.5448C64.8358 77.6826 64.794 81.3316 65.4676 94.6007C65.9312 103.748 66.8837 127.013 67.5852 146.302C68.2859 165.591 69.1171 181.584 69.4321 181.842C69.7472 182.1 81.4217 186.066 95.3755 190.656L120.747 199L129.015 193.944C133.563 191.163 140.976 186.679 145.488 183.979C150.001 181.279 155.112 178.184 156.846 177.101L160 175.132L159.721 121.291C159.568 91.6792 159.198 67.0576 158.9 66.5764C158.6 66.096 155.318 62.6395 151.603 58.8967L144.851 52.0904L145.369 48.2212C145.653 46.0925 146.114 42.8521 146.392 41.021C146.877 37.8345 146.779 37.6403 144.142 36.5352C141.94 35.6119 136.914 35.4284 119.127 35.6242L96.8679 35.8688L96.3083 32.9008C95.9998 31.268 95.3426 29.0479 94.8463 27.9664C94.2243 26.6084 93.2726 26 91.7728 26C90.5773 26 88.9208 26.4934 88.0921 27.0962ZM94.1973 33.1847C94.1915 34.3918 93.9634 36.2049 93.6919 37.2146C93.4195 38.2243 92.8878 39.0497 92.5096 39.0497C92.1313 39.0497 91.5865 37.8035 91.2994 36.2807C91.004 34.7164 91.1845 32.7557 91.7137 31.772C92.2289 30.8153 93.001 30.2477 93.4293 30.5111C93.8584 30.7746 94.2038 31.9776 94.1973 33.1847ZM137.976 43.2737C138.264 45.661 138.504 48.6298 138.507 49.8728L138.514 52.1312L120.703 51.9118L102.893 51.6916L101.077 46.798C100.078 44.1065 99.2317 41.459 99.1964 40.9158C99.1513 40.2226 101.406 39.8563 106.721 39.6924C110.896 39.5627 119.517 39.3401 125.881 39.1957L137.452 38.9339L137.976 43.2737ZM141.927 40.0692C142.096 40.6304 142.042 43.1074 141.808 45.5746L141.384 50.0604L140.77 46.0721C140.432 43.8789 140.155 41.4019 140.155 40.5667C140.155 39.7324 140.485 39.0497 140.888 39.0497C141.291 39.0497 141.758 39.5089 141.927 40.0692ZM92.2109 45.7785C92.9904 48.1339 93.7977 50.5196 94.0061 51.0799C94.2334 51.6916 93.6935 52.0994 92.6556 52.0994C91.5168 52.0994 90.9269 51.5815 90.9269 50.5824C90.9269 49.7472 90.6922 47.3616 90.405 45.2809C90.1179 43.1995 90.0883 41.4965 90.3394 41.4965C90.5896 41.4965 91.4323 43.423 92.2109 45.7785ZM99.1316 46.8322C99.1316 47.3526 98.7263 48.9332 98.2315 50.3459C97.736 51.7577 96.9975 52.7087 96.5906 52.4583C96.1828 52.2079 95.8546 50.832 95.8612 49.4006C95.8669 47.9692 96.109 45.9179 96.3986 44.8422C96.8974 42.9883 96.9819 42.9646 98.0281 44.3862C98.6352 45.2116 99.1316 46.3119 99.1316 46.8322ZM95.4468 55.3953C95.8251 57.1081 95.556 58.5582 94.5763 60.085C93.7961 61.3003 90.3484 66.0928 86.9147 70.7344L80.6709 79.1751L75.8146 78.6849C73.1439 78.4158 70.7859 78.0243 70.5758 77.8155C70.3658 77.6067 72.9109 74.2121 76.2305 70.2728C79.551 66.3334 82.6466 62.7056 83.1102 62.2105C83.5738 61.7154 85.4297 59.4366 87.2347 57.1456C89.692 54.0267 91.0672 52.9721 92.7081 52.9477C94.4926 52.9207 95.0005 53.375 95.4468 55.3953ZM119.78 54.2428L122.79 54.7379L119.467 60.147C117.639 63.1223 113.734 69.4107 110.788 74.1208C107.843 78.8309 105.33 82.8144 105.206 82.9726C105.081 83.1316 100.064 82.4555 94.0553 81.4702C88.0478 80.4858 83.079 79.6221 83.0142 79.5511C82.9486 79.4802 86.0664 75.217 89.9423 70.0778L96.9893 60.7334L98.0748 63.553C98.6721 65.1035 99.4688 66.9231 99.8454 67.5959C100.222 68.2688 101.304 68.9344 102.25 69.0746C103.196 69.2149 104.727 68.9262 105.653 68.4344C106.579 67.9418 107.336 66.826 107.336 65.9549C107.336 65.0839 106.43 61.9764 105.322 59.0508L103.308 53.7306L110.04 53.7396C113.743 53.7445 118.126 53.9712 119.78 54.2428ZM137.694 55.0348C137.694 55.3031 136.347 57.9644 134.701 60.9479C133.055 63.9314 129.873 69.6635 127.629 73.6861C125.386 77.7087 122.967 81.9294 122.255 83.0656C121.543 84.2017 120.879 85.2547 120.779 85.4055C120.679 85.5556 117.797 85.2302 114.377 84.6821C110.955 84.1332 108.157 83.4929 108.157 83.2597C108.157 83.0256 110.425 79.1311 113.198 74.6036C115.969 70.0762 119.885 63.7112 121.897 60.4594L125.557 54.5462H131.626C134.963 54.5462 137.694 54.7665 137.694 55.0348ZM146.964 62.3777C149.971 65.5635 152.192 68.4075 151.9 68.6986C151.607 68.989 150.249 69.2272 148.879 69.2272C147.37 69.2272 146.698 69.5167 147.17 69.9637C147.599 70.369 148.653 70.8274 149.512 70.9832C150.465 71.1561 146.028 73.7399 138.122 77.6157C130.999 81.1073 125.043 83.8379 124.887 83.683C124.731 83.5288 125.167 82.6023 125.855 81.6252C126.544 80.6489 131.335 77.7739 136.502 75.2374C141.671 72.7016 145.899 70.3413 145.899 69.9922C145.899 69.6439 144.012 67.3072 141.707 64.7992C137.563 60.2922 137.531 60.2163 138.888 58.1586C139.642 57.0135 140.538 56.1905 140.877 56.3308C141.217 56.4711 143.956 59.1919 146.964 62.3777ZM103.234 60.6445C103.234 62.1518 103.01 63.9649 102.736 64.6744C102.462 65.384 101.954 65.9647 101.608 65.9647C101.262 65.9647 100.756 64.8637 100.485 63.5179C100.215 62.1713 100.352 60.1307 100.791 58.9823C101.23 57.8348 101.96 57.1219 102.412 57.4C102.864 57.6774 103.234 59.1381 103.234 60.6445ZM140.532 65.7608C142.105 67.4434 143.403 69.091 143.415 69.4229C143.427 69.7549 140.127 71.6789 136.081 73.6991C130.538 76.4665 128.854 77.0211 129.249 75.9502C129.537 75.168 131.259 71.8673 133.073 68.6155C134.888 65.3636 136.665 62.7023 137.022 62.7023C137.38 62.7023 138.959 64.0791 140.532 65.7608ZM155.662 122.622L155.872 172.756L153.142 174.407L150.411 176.059L150.189 158.735C149.987 142.929 150.094 141.324 151.42 140.418C152.219 139.872 153.302 139.06 153.828 138.615C154.505 138.04 154.744 132.986 154.648 121.255C154.563 110.743 154.214 104.758 153.693 104.85C153.242 104.929 152.227 105.243 151.437 105.549C150.099 106.066 150.001 105.016 150.001 90.2372C150.001 74.5881 150.026 74.3581 151.847 73.4846C152.863 72.9985 154.089 72.5752 154.573 72.5451C155.188 72.5059 155.516 87.5783 155.662 122.622ZM148.357 91.9084L148.354 107.153L140.152 110.96L131.951 114.768V98.881V82.9938L139.54 79.4761C143.714 77.5415 147.407 76.1166 147.745 76.3107C148.083 76.5048 148.358 83.5239 148.357 91.9084ZM102.413 85.1087C110.311 86.2456 117.634 87.3728 118.688 87.6142L120.604 88.0522L120.385 112.284C120.264 125.611 120.022 137.088 119.849 137.789C119.579 138.873 115.985 138.235 95.6372 133.486C82.494 130.419 71.5514 127.722 71.32 127.491C71.0886 127.261 70.6308 120.756 70.3035 113.035C69.9761 105.314 69.6824 94.7459 69.6512 89.5505L69.5946 80.1049L78.8249 81.5738C83.902 82.3813 94.5164 83.9725 102.413 85.1087ZM72.056 94.8641C72.056 104.238 72.1782 105.043 73.6731 105.514C75.2821 106.022 75.2821 106.039 73.6731 109.023C72.7837 110.673 72.0584 112.945 72.0609 114.073C72.0634 115.201 72.4301 117.43 72.8756 119.026C73.322 120.621 74.8013 122.988 76.1633 124.285C77.9978 126.033 79.8587 126.821 83.3473 127.329C85.9367 127.706 89.4402 128.222 91.132 128.476C93.3957 128.815 94.2161 128.646 94.2358 127.833C94.2539 127.12 94.7732 127.334 95.6996 128.435C96.6751 129.595 99.9463 130.855 105.91 132.368C110.736 133.592 115.523 134.476 116.548 134.331C118.168 134.102 118.413 133.592 118.413 130.437C118.413 126.809 118.409 126.805 114.721 125.914L111.028 125.024L110.786 119.049L110.543 113.073L113.085 113.444C114.964 113.719 115.838 113.427 116.431 112.325C116.873 111.504 117.13 106.531 117.003 101.274L116.772 91.7143L114.019 90.9313C112.142 90.3971 110.807 90.4329 109.824 91.043C108.735 91.7183 108.103 91.6621 107.244 90.813C106.618 90.1932 103.035 89.0733 99.2809 88.323C94.1792 87.3035 91.9705 87.1795 90.5297 87.832C89.0578 88.4983 88.5056 88.451 88.1889 87.6313C87.9617 87.0416 86.5464 86.3777 85.0432 86.1567C83.541 85.9357 81.8311 85.9365 81.2436 86.1583C80.5183 86.4324 80.3485 87.341 80.7128 88.9901C81.0073 90.3261 81.9804 93.0625 82.8747 95.0713C83.769 97.0809 84.377 98.8451 84.2269 98.9927C84.0759 99.1404 82.9379 99.067 81.6965 98.8296C79.4845 98.4071 79.4402 98.2832 79.4402 92.5397C79.4402 89.0709 79.039 86.2823 78.4557 85.7024C77.9142 85.1641 76.2527 84.7237 74.7635 84.7237H72.056V94.8641ZM129.302 100.359L129.079 115.993L126.662 117.324L124.245 118.655L124.05 135.945C123.902 149.04 124.096 153.235 124.848 153.235C125.395 153.235 126.663 152.663 127.665 151.965L129.489 150.696V169.8V188.904L126.297 191.005C124.541 192.16 122.879 192.881 122.604 192.608C122.33 192.336 122.106 168.592 122.109 139.845L122.113 87.5783L125.186 86.2293C126.876 85.4871 128.543 84.8452 128.892 84.802C129.24 84.7588 129.424 91.7591 129.302 100.359ZM76.5653 87.6909C77.4317 88.553 77.8625 90.2193 77.778 92.3806C77.7058 94.2255 77.6811 96.7392 77.723 97.9675C77.7903 99.9242 78.2054 100.266 81.0812 100.723C84.0464 101.194 84.3631 101.475 84.3631 103.642C84.3631 105.624 84.094 105.955 82.8075 105.549C81.9517 105.279 79.6445 104.786 77.6795 104.453L74.1072 103.848L73.8742 95.1015C73.7355 89.8816 73.9595 86.3549 74.4312 86.3549C74.8653 86.3549 75.8252 86.956 76.5653 87.6909ZM87.5875 91.0446C88.2332 92.5021 89.0242 93.6954 89.345 93.6954C89.6658 93.6954 90.1605 92.7778 90.4436 91.6564C90.8268 90.1361 91.5004 89.6173 93.0896 89.6173C94.8774 89.6173 95.1523 89.9126 94.7987 91.4524C94.5673 92.4614 93.6008 95.3886 92.6523 97.9569C91.703 100.525 90.9269 103.553 90.9269 104.686C90.9269 106.168 90.4879 106.745 89.363 106.745C88.0979 106.745 87.686 105.925 87.2085 102.463C86.8836 100.108 85.7415 96.2091 84.6699 93.7981C83.5984 91.3872 82.7221 89.0676 82.7221 88.6435C82.7221 88.2194 83.5533 87.9902 84.5682 88.1329C85.7283 88.2969 86.8507 89.3792 87.5875 91.0446ZM104.415 91.2298C105.576 91.6686 107.148 93.3267 107.91 94.9155C109.078 97.3509 109.138 98.2367 108.291 100.565C107.451 102.875 107.509 103.879 108.645 106.701C109.392 108.557 109.849 110.229 109.66 110.417C109.47 110.605 108.527 110.553 107.562 110.303C106.502 110.027 105.302 108.589 104.528 106.664C103.824 104.915 102.915 103.483 102.508 103.483C102.101 103.483 101.545 104.063 101.271 104.773C100.997 105.483 100.773 106.733 100.773 107.551C100.773 108.601 100.322 108.922 99.2465 108.642C97.992 108.316 97.6268 107.148 97.1953 102.071C96.9065 98.6746 96.6702 94.6668 96.6702 93.1644C96.6702 90.5961 96.8384 90.4329 99.4885 90.4329C101.038 90.4329 103.256 90.7918 104.415 91.2298ZM115.043 94.1701C115.317 94.8796 115.541 99.1257 115.541 103.606C115.541 111.587 115.503 111.747 113.695 111.492C111.922 111.242 111.84 110.87 111.617 102.055C111.399 93.4613 111.485 92.8798 112.965 92.8798C113.834 92.8798 114.769 93.4605 115.043 94.1701ZM101.083 95.6993C100.815 96.3918 100.82 97.5352 101.093 98.2416C101.365 98.9479 102.231 99.4022 103.017 99.2513C103.803 99.1012 104.565 98.3647 104.71 97.6152C104.855 96.8656 104.208 95.8445 103.271 95.3462C101.913 94.6235 101.471 94.6953 101.083 95.6993ZM95.0292 103.075C95.0292 106.066 94.6715 108.376 94.2088 108.376C93.7575 108.376 93.3883 106.571 93.3883 104.365C93.3883 102.159 93.6123 99.7733 93.8863 99.0637C94.1603 98.3541 94.5296 97.7734 94.7068 97.7734C94.884 97.7734 95.0292 100.159 95.0292 103.075ZM84.2474 108.421C86.8803 110.017 86.9402 110.159 85.5979 111.635C84.4435 112.903 83.9143 113.006 82.6343 112.21C81.4676 111.486 80.7153 111.475 79.6429 112.165C78.7231 112.756 78.2538 114.005 78.3326 115.647C78.4007 117.056 78.925 118.77 79.4985 119.456C80.081 120.154 81.5177 120.602 82.759 120.473C83.9799 120.345 85.588 120.744 86.3322 121.358C87.59 122.396 87.5884 122.583 86.3076 123.989C85.5495 124.823 84.0915 125.504 83.0684 125.504C82.0444 125.504 80.0572 124.542 78.6526 123.367C77.2479 122.193 75.5307 119.898 74.8374 118.27C74.1187 116.581 73.7593 114.154 74.0013 112.622C74.2352 111.144 75.2772 109.229 76.3175 108.367C77.3579 107.504 78.948 106.788 79.8505 106.775C80.753 106.762 82.7312 107.503 84.2474 108.421ZM152.62 110.429C152.829 112.211 152.63 113.183 152.094 112.994C151.62 112.828 151.329 111.628 151.448 110.33C151.657 108.046 151.623 108.022 150.383 109.6C149.679 110.497 148.379 111.116 147.495 110.975C146.603 110.833 145.666 111.29 145.391 112.005C145.118 112.712 145.29 113.764 145.772 114.342C146.255 114.921 146.453 116.293 146.212 117.39L145.774 119.387L147.407 117.547C148.523 116.291 149.161 116.032 149.418 116.731C149.72 117.551 150.013 117.552 150.883 116.736C151.481 116.176 152.183 115.717 152.442 115.717C152.701 115.717 152.836 118.378 152.742 121.63C152.649 124.883 152.547 129.752 152.517 132.451L152.462 137.358L139.335 143.986L126.207 150.616V136.789C126.207 127.778 126.493 123.136 127.028 123.465C127.479 123.742 127.848 124.865 127.848 125.96C127.848 127.055 128.217 127.951 128.669 127.951C129.12 127.951 129.489 125.932 129.489 123.465C129.489 120.998 129.138 118.979 128.71 118.979C128.281 118.979 127.554 119.621 127.093 120.406C126.44 121.521 126.256 121.565 126.253 120.61C126.25 119.833 130.803 117.237 138.74 113.491C145.611 110.248 151.468 107.587 151.758 107.578C152.046 107.568 152.434 108.852 152.62 110.429ZM89.9415 109.074C90.8038 109.617 90.7398 110.702 89.6043 114.761C88.6435 118.197 87.919 119.544 87.3045 119.037C86.8114 118.63 85.1171 118.175 83.5393 118.027C81.2961 117.814 80.6143 117.358 80.41 115.93C80.1803 114.324 80.4281 114.16 82.4645 114.564C84.2474 114.919 85.2287 114.551 86.7269 112.966C87.8558 111.771 88.4679 110.375 88.1848 109.641C87.9165 108.946 87.9617 108.382 88.2858 108.389C88.6107 108.396 89.3557 108.703 89.9415 109.074ZM96.502 111.029C96.9705 111.591 98.4924 115.859 99.884 120.515C101.275 125.17 102.413 129.139 102.413 129.335C102.413 129.532 101.582 129.431 100.567 129.112C99.5525 128.793 98.2389 127.851 97.649 127.019C97.0599 126.185 95.6749 125.504 94.5722 125.504C93.4695 125.504 92.5678 125.896 92.5678 126.374C92.5678 126.901 91.8376 127.022 90.7217 126.681C89.7068 126.371 88.7296 125.987 88.5508 125.828C88.3719 125.668 89.0685 122.87 90.0974 119.608C91.1262 116.346 92.279 112.852 92.6581 111.843C93.0371 110.834 93.8658 110.008 94.4984 110.008C95.131 110.008 96.0327 110.468 96.502 111.029ZM101.7 114.697C101.472 117.494 101.219 118.118 100.79 116.94C100.463 116.043 99.9496 114.3 99.6485 113.066C99.2062 111.257 99.3818 110.823 100.558 110.823C101.794 110.823 101.967 111.412 101.7 114.697ZM108.157 119.355V126.257L111.644 127.144C113.562 127.632 115.593 128.185 116.156 128.373C116.721 128.562 117.182 129.439 117.182 130.324C117.182 131.208 116.905 132.088 116.567 132.278C116.229 132.467 113.367 132.026 110.208 131.296L104.465 129.969L104.232 121.212L103.999 112.454H106.078C108.139 112.454 108.157 112.513 108.157 119.355ZM138.505 115.921C137.611 117.378 136.878 118.113 136.877 117.552C136.875 116.992 136.205 116.532 135.389 116.532C134.573 116.532 133.272 116.992 132.499 117.554C131.726 118.117 130.869 119.946 130.596 121.618C130.198 124.059 130.386 124.768 131.547 125.211C132.343 125.515 133.59 125.394 134.318 124.942C135.047 124.49 136.062 123.299 136.575 122.293C137.147 121.172 137.72 120.809 138.059 121.354C138.363 121.842 139.307 122.242 140.157 122.242C141.008 122.242 142.278 121.426 142.98 120.429C143.682 119.432 144.258 117.413 144.258 115.943C144.258 113.631 143.979 113.27 142.194 113.27C140.747 113.27 139.646 114.061 138.505 115.921ZM142.617 116.841C142.617 117.458 142.096 118.394 141.459 118.919C140.752 119.503 140.113 119.57 139.816 119.093C139.548 118.663 139.555 117.727 139.83 117.014C140.105 116.301 140.845 115.717 141.474 115.717C142.102 115.717 142.617 116.222 142.617 116.841ZM94.2088 119.795C94.2088 120.692 94.578 121.426 95.0292 121.426C95.4805 121.426 95.8497 120.692 95.8497 119.795C95.8497 118.898 95.4805 118.164 95.0292 118.164C94.578 118.164 94.2088 118.898 94.2088 119.795ZM135.085 120.751C134.94 121.725 134.361 122.673 133.797 122.857C133.216 123.047 132.771 122.516 132.771 121.63C132.771 120.77 133.017 119.822 133.318 119.523C133.619 119.224 134.199 118.979 134.606 118.979C135.013 118.979 135.228 119.776 135.085 120.751ZM147.266 120.339C146.965 120.637 146.719 122.26 146.719 123.942C146.719 125.625 146.935 127.56 147.198 128.243C147.584 129.243 148.063 129.31 149.66 128.587C150.75 128.093 151.642 127.197 151.642 126.596C151.642 125.996 151.088 125.504 150.411 125.504C149.551 125.504 149.18 124.643 149.18 122.649C149.18 121.079 148.873 119.795 148.497 119.795C148.12 119.795 147.567 120.039 147.266 120.339ZM141.778 124.329C141.339 125.476 140.739 127.953 140.446 129.834C139.922 133.19 139.942 133.226 141.534 131.825C142.426 131.04 143.774 130.398 144.528 130.398C145.314 130.398 145.899 129.755 145.899 128.888C145.899 128.058 145.493 126.223 144.998 124.81C144.502 123.397 143.755 122.242 143.336 122.242C142.919 122.242 142.217 123.18 141.778 124.329ZM135.438 126.057C133.951 127.085 133.591 128.109 133.591 131.313C133.591 133.501 133.943 135.291 134.373 135.291C134.803 135.291 136.096 134.866 137.245 134.344C138.394 133.824 139.335 132.882 139.335 132.251C139.335 131.456 138.768 131.257 137.489 131.605C135.895 132.038 135.84 131.984 137.078 131.212C137.869 130.719 138.514 129.796 138.514 129.16C138.514 128.446 137.964 128.158 137.078 128.409C136.288 128.634 136.484 128.378 137.512 127.842C138.54 127.305 139.255 126.49 139.102 126.032C138.947 125.573 138.476 125.104 138.053 124.989C137.63 124.874 136.453 125.354 135.438 126.057ZM128.053 129.292C127.412 129.558 127.028 131.373 127.028 134.136C127.028 137.519 127.316 138.554 128.258 138.554C128.935 138.554 129.489 138.037 129.489 137.407C129.489 136.687 130.062 136.409 131.027 136.66C132.385 137.012 132.554 136.595 132.462 133.117C132.375 129.81 132.093 129.149 130.718 129.019C129.816 128.934 128.618 129.057 128.053 129.292ZM148.36 131.213C147.457 132.11 146.719 133.773 146.719 134.909C146.719 136.045 147.278 137.187 147.96 137.447C148.643 137.708 149.751 137.467 150.422 136.914C151.093 136.361 151.642 135.56 151.642 135.136C151.642 134.712 150.903 134.599 150.001 134.884C149.098 135.168 148.36 135.066 148.36 134.657C148.36 134.248 149.098 133.248 150.001 132.437C150.903 131.625 151.642 130.651 151.642 130.271C151.642 129.892 151.273 129.582 150.821 129.582C150.37 129.582 149.262 130.316 148.36 131.213ZM88.0552 134.067C94.3728 135.551 104.065 137.787 109.593 139.035L119.643 141.304V152.528V163.753L117.387 163.035C116.147 162.64 105.716 159.862 94.2088 156.862C82.7016 153.862 72.9019 151.103 72.4318 150.731C71.9477 150.347 71.4808 145.765 71.3553 140.15L71.1338 130.246L73.8512 130.806C75.3461 131.115 81.7376 132.582 88.0552 134.067ZM130.036 132.573C129.735 132.871 129.489 132.627 129.489 132.029C129.489 131.431 129.735 131.186 130.036 131.485C130.337 131.784 130.337 132.274 130.036 132.573ZM144.805 132.573C144.504 132.871 144.258 134.502 144.258 136.195C144.258 137.888 144.627 139.5 145.078 139.777C145.583 140.088 145.899 138.698 145.899 136.155C145.899 133.886 145.775 132.029 145.625 132.029C145.474 132.029 145.105 132.274 144.805 132.573ZM140.319 134.639C139.778 135.177 139.335 136.077 139.335 136.637C139.335 137.198 139.98 138.031 140.771 138.488C142.121 139.27 142.117 139.321 140.702 139.345C139.871 139.358 139.35 139.825 139.54 140.389C139.727 140.95 140.483 141.524 141.219 141.666C142.095 141.835 142.749 141.17 143.109 139.744C143.46 138.353 143.289 137.335 142.635 136.934C141.823 136.435 141.831 136.232 142.669 135.954C143.253 135.76 143.456 135.167 143.124 134.631C142.791 134.097 142.247 133.66 141.912 133.66C141.577 133.66 140.861 134.101 140.319 134.639ZM73.0422 141.117L73.2867 146.127L77.385 147.159C79.6388 147.726 81.7622 148.019 82.1027 147.81C82.4432 147.6 82.7221 147.759 82.7221 148.162C82.7221 148.565 83.8298 148.829 85.1835 148.749C86.5373 148.669 87.645 148.911 87.645 149.288C87.645 149.664 88.0142 149.972 88.4654 149.972C88.9167 149.972 89.2859 149.34 89.2859 148.567C89.2859 147.413 89.5132 147.485 90.5634 148.975C91.2657 149.972 92.352 150.788 92.978 150.788C93.6041 150.788 94.6904 149.972 95.3927 148.975L96.6702 147.162V149.383C96.6702 150.604 97.0394 151.603 97.4906 151.603C97.9419 151.603 98.3349 150.962 98.3628 150.176C98.403 149.082 98.5884 149.178 99.157 150.584C99.5656 151.594 100.558 152.474 101.362 152.54C102.166 152.606 103.378 152.715 104.054 152.781C104.731 152.847 106.328 153.415 107.602 154.042C109.438 154.946 110.248 154.978 111.499 154.202C112.777 153.408 113.08 153.439 113.08 154.364C113.08 154.992 113.664 155.73 114.378 156.002C115.091 156.274 116.199 156.497 116.839 156.497C117.479 156.497 118.002 155.965 118.002 155.314C118.002 154.664 117.357 153.757 116.567 153.3C115.199 152.508 115.199 152.467 116.567 152.444C117.357 152.43 118.002 151.895 118.002 151.255C118.002 150.616 117.357 149.924 116.567 149.719C115.199 149.364 115.199 149.341 116.567 149.251C117.357 149.199 118.002 148.613 118.002 147.949C118.002 147.285 117.062 146.506 115.913 146.22C114.764 145.933 113.608 145.913 113.344 146.176C113.08 146.437 112.092 146.114 111.148 145.458C110.205 144.8 109.145 144.263 108.794 144.263C108.444 144.263 108.127 145.822 108.091 147.729L108.025 151.196L107.066 147.586C106.537 145.601 105.665 143.834 105.127 143.659C104.551 143.473 103.922 144.54 103.598 146.259C103.295 147.862 102.757 149.353 102.402 149.572C102.047 149.79 101.811 148.443 101.879 146.579C101.956 144.499 101.607 143.054 100.978 142.842C100.363 142.634 99.9192 143.259 99.87 144.399C99.7888 146.287 99.7839 146.287 99.2186 144.267C98.906 143.148 98.0198 142.112 97.2494 141.965C96.4798 141.817 95.8497 142.16 95.8497 142.728C95.8497 143.327 95.3878 143.132 94.747 142.261C93.9897 141.231 92.9764 140.889 91.5061 141.168C90.1548 141.425 89.2112 141.169 88.9421 140.472C88.7083 139.865 88.1758 139.369 87.7598 139.369C87.343 139.369 86.7285 140.379 86.3929 141.612L85.7841 143.855L85.0498 141.204C84.6461 139.747 83.9807 138.554 83.5713 138.554C83.1611 138.554 82.7106 139.597 82.5687 140.872C82.3119 143.188 82.3111 143.189 80.6709 141.562C79.2729 140.176 79.2425 140.01 80.4658 140.442C81.5201 140.815 81.9017 140.523 81.9017 139.344C81.9017 138.282 81.3462 137.738 80.2607 137.738C79.3582 137.738 78.3654 137.738 78.0545 137.738C77.7435 137.738 77.4867 139.219 77.4834 141.029C77.4793 143.564 77.1848 144.265 76.2027 144.081C75.3075 143.912 74.853 142.687 74.6774 139.974C74.5404 137.847 74.0612 136.107 73.6124 136.107C73.1357 136.107 72.8994 138.182 73.0422 141.117ZM136.873 138.962C136.873 140.532 136.481 141.816 136.001 141.816C135.522 141.816 135.245 141.138 135.386 140.31C135.527 139.482 135.273 138.736 134.822 138.653C134.371 138.571 133.906 139.34 133.789 140.364C133.672 141.387 133.939 142.775 134.381 143.447C134.999 144.387 135.52 144.464 136.626 143.778C137.418 143.287 138.285 142.002 138.551 140.923C138.818 139.844 138.875 138.32 138.679 137.534C138.483 136.749 137.997 136.107 137.598 136.107C137.2 136.107 136.873 137.392 136.873 138.962ZM131.28 139.546C130.746 140.077 130.298 141.08 130.285 141.775C130.264 142.806 130.104 142.774 129.414 141.595C128.948 140.801 128.221 140.364 127.798 140.624C127.374 140.884 127.028 142.726 127.028 144.719C127.028 146.711 127.397 148.341 127.848 148.341C128.299 148.341 128.669 147.974 128.669 147.525C128.669 147.077 128.946 146.75 129.284 146.798C129.622 146.847 130.728 146.621 131.74 146.296C133.379 145.771 133.523 145.337 133.061 142.334C132.776 140.479 132.477 138.876 132.397 138.772C132.317 138.666 131.814 139.015 131.28 139.546ZM148.326 159.699L148.41 176.767L145.718 178.74C144.238 179.827 140.763 182.056 137.997 183.694C135.23 185.334 132.738 186.675 132.458 186.675C132.179 186.675 131.951 178.421 131.951 168.332V149.99L139.13 146.352C143.079 144.351 146.744 142.695 147.276 142.673C147.987 142.642 148.265 147.161 148.326 159.699ZM93.8248 145.161C94.1259 146.103 94.0241 147.22 93.5991 147.642C93.1159 148.122 92.4365 147.943 91.7851 147.162C91.2124 146.477 90.9572 145.36 91.2198 144.681C91.4815 144.003 92.0517 143.447 92.4866 143.447C92.9214 143.447 93.5237 144.218 93.8248 145.161ZM81.6793 144.756C81.4069 145.026 80.6988 145.056 80.1073 144.82C79.4525 144.56 79.647 144.367 80.6028 144.327C81.4676 144.292 81.9517 144.485 81.6793 144.756ZM111.439 149.972C111.439 150.869 111.148 151.603 110.794 151.603C110.439 151.603 110.15 150.869 110.15 149.972C110.15 149.075 110.439 148.341 110.794 148.341C111.148 148.341 111.439 149.075 111.439 149.972ZM104.666 162.022L119.636 165.877L119.639 179.946C119.642 188.339 119.328 194.015 118.86 194.015C118.429 194.015 117.861 192.639 117.596 190.956C117.332 189.275 116.726 186.43 116.249 184.636C115.772 182.841 114.602 180.089 113.647 178.518C112.692 176.948 110.05 173.684 107.778 171.265C105.501 168.843 101.801 166.006 99.5418 164.952C96.7128 163.632 93.9503 163.036 90.6405 163.03C87.8878 163.025 84.6396 163.589 83.0224 164.351C81.4725 165.083 79.1457 166.957 77.8534 168.517C76.5604 170.075 75.045 172.975 74.4862 174.958C73.9275 176.942 73.3039 178.4 73.1013 178.198C72.8978 177.996 72.5368 172.336 72.2997 165.62L71.8681 153.41L80.7817 155.789C85.6849 157.097 96.4322 159.902 104.666 162.022ZM99.1414 167.105C100.82 167.956 103.347 169.617 104.756 170.796C106.164 171.974 108.131 174.102 109.127 175.524C110.233 177.107 109.362 176.485 106.88 173.921C104.649 171.617 101.309 168.976 99.4573 168.053C97.6063 167.129 94.2088 166.2 91.9073 165.987C88.6845 165.69 86.9197 166.008 84.2326 167.37C81.8697 168.568 80.1746 170.225 78.9832 172.503C78.0159 174.353 76.9985 176.723 76.7237 177.769C76.4488 178.815 76.0254 179.474 75.7834 179.233C75.5405 178.992 75.9106 177.138 76.6039 175.114C77.298 173.09 79.0858 170.259 80.5758 168.823C82.0666 167.386 84.359 165.875 85.6709 165.463C86.982 165.051 89.8627 164.904 92.0714 165.135C94.2801 165.367 97.4619 166.253 99.1414 167.105ZM92.1092 168.654C92.3619 169.06 92.8057 172.568 93.0954 176.449L93.6221 183.507L89.4393 181.055C87.1387 179.707 84.3163 177.992 83.1685 177.244C82.0206 176.496 81.0812 176.159 81.0812 176.495C81.0812 176.83 82.0961 178.001 83.3375 179.097C84.5789 180.193 86.4364 181.661 87.4653 182.361C88.495 183.061 89.2047 183.764 89.0439 183.925C88.8822 184.085 86.4709 183.451 83.6854 182.516C80.899 181.581 78.6198 180.46 78.6198 180.024C78.6198 179.589 79.2187 177.412 79.9514 175.186C80.6841 172.96 82.2102 170.414 83.3441 169.527C84.5764 168.563 86.6596 167.916 88.5278 167.916C90.245 167.916 91.8573 168.248 92.1092 168.654ZM100.759 170.452C102.453 171.399 104.718 173.631 105.793 175.412C106.867 177.193 108.567 179.671 109.57 180.918C110.572 182.165 111.772 184.178 112.236 185.391C112.7 186.604 113.08 188.654 113.08 189.948V192.298L110.003 191.239C108.311 190.657 106.923 189.667 106.919 189.039C106.914 188.271 105.932 187.898 103.912 187.898C102.262 187.898 100.66 187.648 100.352 187.343C100.043 187.037 101.689 185.432 104.008 183.774C106.329 182.118 108.048 180.586 107.831 180.37C107.614 180.154 105.66 180.627 103.489 181.421C101.318 182.216 99.1915 183.172 98.7624 183.547C98.3333 183.921 97.736 184.228 97.434 184.228C97.1321 184.228 96.6579 183.034 96.3805 181.577C96.104 180.12 95.3623 176.633 94.7347 173.829L93.5918 168.731H95.6347C96.758 168.731 99.0635 169.506 100.759 170.452ZM88.4408 176.842C88.911 177.714 89.6617 178.653 90.1105 178.929C90.5593 179.204 90.9269 178.931 90.9269 178.322C90.9269 177.713 90.4838 176.773 89.9423 176.235C89.4008 175.696 88.6492 175.256 88.2726 175.256C87.8952 175.256 87.9715 175.97 88.4408 176.842ZM98.074 178.518C97.8377 179.414 97.9608 180.342 98.3472 180.58C98.7328 180.817 99.4368 180.291 99.911 179.411C100.384 178.531 100.773 177.603 100.773 177.349C100.773 177.095 100.261 176.887 99.6378 176.887C99.0134 176.887 98.3095 177.621 98.074 178.518ZM113.078 181.778C113.999 183.571 114.93 186.783 115.147 188.915L115.544 192.792L114.473 188.306C113.884 185.839 112.766 182.627 111.989 181.169C111.212 179.712 110.763 178.518 110.991 178.518C111.219 178.518 112.158 179.986 113.078 181.778Z" fill="black"/>
</svg>
