<svg width="42" height="42" viewBox="0 0 42 42" fill="none" xmlns="http://www.w3.org/2000/svg">
<rect width="42" height="42" rx="6" fill="#EB5354"/>
<path fill-rule="evenodd" clip-rule="evenodd" d="M11 20.9999V30.6384H12.8072H14.6145V20.9999V11.3613H12.8072H11V20.9999ZM22.0588 11.5482C21.6804 11.64 20.9898 11.907 20.5241 12.1414C20.0324 12.389 19.3359 12.8908 18.8629 13.3383C18.4148 13.7622 17.8682 14.4078 17.6481 14.7731C17.4281 15.1384 17.1071 15.8349 16.9349 16.321C16.6743 17.0569 16.6204 17.4264 16.6122 18.53C16.6045 19.5845 16.657 20.0277 16.8696 20.6987C17.0166 21.1625 17.3419 21.8872 17.5925 22.309C17.8431 22.7308 18.3172 23.3494 18.6459 23.6835C18.9747 24.0177 19.559 24.4948 19.9443 24.744C20.3298 24.993 20.9825 25.3158 21.3948 25.4612C21.9206 25.6466 22.5411 25.7437 23.4722 25.7865C24.4719 25.8323 24.9904 25.7986 25.5719 25.6495C25.9966 25.5407 26.7004 25.278 27.1359 25.0657C27.6882 24.7964 28.2196 24.3872 28.8925 23.7133C29.581 23.0237 29.9699 22.5135 30.2499 21.9323C30.4657 21.4843 30.7228 20.8088 30.8212 20.4311C30.9195 20.0534 31 19.2351 31 18.6124C31 17.9708 30.9172 17.1598 30.809 16.7401C30.704 16.333 30.4202 15.6204 30.1783 15.1565C29.9 14.6224 29.4243 13.9972 28.8813 13.4518C28.222 12.7895 27.79 12.4788 27.0119 12.1072C26.4554 11.8414 25.7127 11.5649 25.3616 11.4927C25.0104 11.4205 24.2784 11.3658 23.7351 11.3713C23.1916 11.3769 22.4373 11.4565 22.0588 11.5482Z" fill="white"/>
</svg>
