<svg width="14" height="15" viewBox="0 0 14 15" fill="none" xmlns="http://www.w3.org/2000/svg">
<mask id="mask0_2488_17372" style="mask-type:alpha" maskUnits="userSpaceOnUse" x="0" y="0" width="14" height="15">
<rect y="0.5" width="14" height="14" fill="#D9D9D9"/>
</mask>
<g mask="url(#mask0_2488_17372)">
<path d="M7.14583 6.81458L7.68542 7.35417L10.85 4.18958L10.3104 3.65L7.14583 6.81458ZM2.91667 11.5833H3.45625L6.85417 8.18542L6.31458 7.64583L2.91667 11.0437V11.5833ZM8.09375 8.59375L5.90625 6.40625L8.34167 3.97083L7.91875 3.54792L4.725 6.74167L3.90833 5.925L7.0875 2.73125C7.32083 2.49792 7.59549 2.38125 7.91146 2.38125C8.22743 2.38125 8.50208 2.49792 8.73542 2.73125L9.15833 3.15417L9.8875 2.425C10.0042 2.30833 10.1427 2.25 10.3031 2.25C10.4635 2.25 10.6021 2.30833 10.7187 2.425L12.075 3.78125C12.1917 3.89792 12.25 4.03646 12.25 4.19687C12.25 4.35729 12.1917 4.49583 12.075 4.6125L8.09375 8.59375ZM3.9375 12.75H1.75V10.5625L5.90625 6.40625L8.09375 8.59375L3.9375 12.75Z" fill="#D4E1F9"/>
</g>
</svg>
