<svg width="32" height="32" viewBox="0 0 32 32" fill="none" xmlns="http://www.w3.org/2000/svg">
<path d="M7.31036 16.0099L7.55206 18.7186L7.31036 21.5649C7.29786 21.6691 7.21868 21.7483 7.127 21.7483C7.03532 21.7483 6.95197 21.6691 6.95197 21.5649L6.7186 18.7186L6.95197 16.0099C6.95197 15.9182 7.03115 15.8349 7.127 15.8349C7.21868 15.8349 7.29786 15.9182 7.31036 16.0099ZM8.20217 14.1096C8.08548 14.1096 8.0063 14.2013 7.9938 14.318L7.78543 18.7186L7.9938 21.5649C8.0063 21.6816 8.08548 21.7733 8.20217 21.7733C8.30635 21.7733 8.39803 21.6816 8.39803 21.5649L8.63973 18.7186L8.39803 14.318C8.39803 14.2013 8.30635 14.1096 8.20217 14.1096ZM9.26483 13.1053C9.13564 13.1053 9.04396 13.1969 9.03146 13.3261L8.8481 18.7436L9.03146 21.5691C9.04396 21.6983 9.13564 21.79 9.26483 21.79C9.38152 21.79 9.4857 21.6983 9.4857 21.5691L9.70657 18.7436L9.4857 13.3261C9.4857 13.1969 9.38152 13.1053 9.26483 13.1053ZM2.96802 17.1309C2.90967 17.1309 2.87633 17.1767 2.86383 17.2351L2.66797 18.7186L2.86383 20.1772C2.87633 20.2355 2.90967 20.2814 2.96802 20.2814C3.02636 20.2814 3.0597 20.2355 3.0722 20.1772L3.30557 18.7186L3.0722 17.2351C3.0597 17.1767 3.02636 17.1309 2.96802 17.1309V17.1309ZM3.9515 16.2183C3.89316 16.2183 3.84732 16.2641 3.84732 16.3224L3.58061 18.7186L3.84732 21.0565C3.84732 21.1274 3.89316 21.1732 3.9515 21.1732C4.00984 21.1732 4.05569 21.1274 4.06819 21.069L4.36823 18.7186L4.06819 16.3224C4.05569 16.2641 4.00984 16.2183 3.9515 16.2183V16.2183ZM5.00583 15.7432C4.93499 15.7432 4.87665 15.8015 4.86831 15.8807L4.62661 18.7186L4.86831 21.4607C4.88081 21.5316 4.93916 21.5899 5.00583 21.5899C5.07668 21.5899 5.13502 21.5316 5.13502 21.4607L5.42256 18.7186L5.13502 15.8807C5.13502 15.8015 5.07668 15.7432 5.00583 15.7432V15.7432ZM6.06016 15.6515C5.98099 15.6515 5.91014 15.7098 5.91014 15.8015L5.66844 18.7186L5.91014 21.5441C5.91014 21.6358 5.98099 21.6941 6.06016 21.6941C6.13934 21.6941 6.21019 21.6358 6.22269 21.5441L6.4894 18.7186L6.22269 15.8015C6.21019 15.7098 6.13934 15.6515 6.06016 15.6515ZM16.1201 11.0299C16.0742 10.9966 16.0034 10.9716 15.945 10.9716C15.8534 10.9716 15.77 11.0049 15.7117 11.0508C15.6325 11.1216 15.5825 11.2258 15.5741 11.33V11.3633L15.4366 18.727L15.5075 20.0814L15.5783 21.4024C15.5908 21.5983 15.7533 21.7608 15.9492 21.7608C16.1451 21.7608 16.3076 21.5983 16.3076 21.4024L16.4701 18.727L16.3076 11.33C16.2909 11.205 16.2242 11.0883 16.1201 11.0299V11.0299ZM15.0074 11.6675C14.9491 11.6342 14.8907 11.6092 14.824 11.6092C14.7574 11.6092 14.6948 11.6342 14.6407 11.6675C14.549 11.7259 14.4906 11.8301 14.4906 11.9468L14.4781 12.0176L14.3615 18.7186C14.3615 18.7186 14.3615 18.7311 14.4906 21.4524V21.4649C14.4906 21.5357 14.5156 21.6024 14.5615 21.6608C14.6323 21.7399 14.724 21.79 14.8282 21.79C14.9199 21.79 15.0032 21.7441 15.0616 21.6858C15.1324 21.6274 15.1658 21.5483 15.1658 21.4524L15.1783 21.1732L15.3074 18.7311L15.1699 11.9468C15.1574 11.8301 15.0991 11.7259 15.0074 11.6675V11.6675ZM10.365 12.6052C10.2358 12.6052 10.1233 12.7219 10.1233 12.8594L9.93994 18.7186L10.1233 21.5191C10.1358 21.6566 10.24 21.7608 10.365 21.7608C10.5025 21.7608 10.6067 21.6566 10.6192 21.5191L10.8276 18.7186L10.6192 12.8594C10.6109 12.7219 10.5067 12.6052 10.365 12.6052ZM26.0633 15.2223C25.6132 15.2223 25.184 15.3139 24.7881 15.4765C24.5214 12.526 22.046 10.209 19.0247 10.209C18.2829 10.209 17.5661 10.3465 16.9285 10.6007C16.6743 10.6924 16.6035 10.7841 16.6035 10.9841V21.3899C16.6035 21.5983 16.766 21.7483 16.9619 21.7733H26.0591C27.8636 21.7733 29.3346 20.3147 29.3346 18.5103C29.3388 16.6933 27.8677 15.2223 26.0633 15.2223V15.2223ZM13.6989 12.7094C13.5238 12.7094 13.3863 12.8469 13.3738 13.0344L13.2363 18.7311L13.3738 21.4649C13.3863 21.6399 13.5238 21.7775 13.6989 21.7775C13.8739 21.7775 14.0114 21.6399 14.0114 21.4649L14.1739 18.7311L14.0114 13.0344C13.9989 12.8469 13.8739 12.7094 13.6989 12.7094ZM11.4652 12.3843C11.3277 12.3843 11.1985 12.5135 11.1985 12.6635L11.0359 18.7186L11.1985 21.5066C11.211 21.6566 11.3277 21.7733 11.4652 21.7733C11.6152 21.7733 11.7319 21.6566 11.7444 21.5066L11.9277 18.7186L11.7444 12.6635C11.7319 12.5135 11.6152 12.3843 11.4652 12.3843V12.3843ZM12.5778 12.526C12.4153 12.526 12.2903 12.6552 12.2903 12.8136L12.1278 18.7186L12.2903 21.4857C12.3028 21.6483 12.4195 21.7733 12.5778 21.7733C12.7362 21.7733 12.8654 21.6441 12.8654 21.4857L13.0404 18.7186L12.8654 12.8136C12.8654 12.651 12.7404 12.526 12.5778 12.526V12.526Z" fill="#FF5510"/>
</svg>
