<svg width="32" height="32" viewBox="0 0 32 32" fill="none" xmlns="http://www.w3.org/2000/svg">
<path fill-rule="evenodd" clip-rule="evenodd" d="M15.2151 4.44824C15.1678 4.45124 15.013 4.4669 14.8711 4.48302C14.7292 4.49916 14.5228 4.5253 14.4124 4.54113C14.3021 4.55698 14.0795 4.59245 13.9179 4.61996C13.7563 4.64748 13.508 4.69897 13.3661 4.73438C13.2242 4.7698 12.9907 4.83093 12.8471 4.87024C12.7036 4.90954 12.4551 4.98627 12.2949 5.04075C12.1347 5.09524 11.8974 5.18269 11.7675 5.2351C11.6376 5.2875 11.4314 5.37313 11.3092 5.42537C11.187 5.47762 10.9645 5.58243 10.8147 5.6583C10.6649 5.73416 10.4488 5.84987 10.3345 5.91544C10.2202 5.98102 10.0493 6.08307 9.95468 6.14224C9.86007 6.2014 9.69256 6.31097 9.58243 6.38572C9.47229 6.46047 9.30781 6.57682 9.21692 6.64425C9.12602 6.71169 8.95813 6.84163 8.84382 6.933C8.72951 7.02437 8.55213 7.17242 8.44964 7.262C8.34715 7.35158 8.1542 7.52907 8.02083 7.65639C7.88747 7.78372 7.68401 7.98868 7.56868 8.11185C7.45334 8.23502 7.28464 8.42227 7.1938 8.52794C7.10295 8.63363 6.9546 8.81367 6.86414 8.92805C6.77366 9.04243 6.65233 9.20055 6.59449 9.27943C6.53665 9.35831 6.41036 9.54225 6.31382 9.68817C6.21729 9.8341 6.09968 10.018 6.05249 10.0969C6.00529 10.1758 5.92122 10.3215 5.86568 10.4208C5.81014 10.5201 5.72146 10.6876 5.66864 10.7931C5.6158 10.8985 5.54671 11.0432 5.51511 11.1146C5.48349 11.1859 5.39653 11.3927 5.32185 11.5741C5.24717 11.7556 5.14762 12.0169 5.10062 12.155C5.05362 12.293 4.97331 12.5512 4.92215 12.7287C4.871 12.9062 4.79741 13.1804 4.75862 13.3382C4.71983 13.496 4.66264 13.7638 4.63154 13.9334C4.60043 14.103 4.56457 14.3256 4.55186 14.4282C4.53916 14.5307 4.51591 14.7373 4.50021 14.8871C4.48453 15.037 4.46413 15.3606 4.45492 15.6063C4.44216 15.9459 4.44212 16.1504 4.45475 16.4596C4.46388 16.6833 4.48781 17.0115 4.50792 17.189C4.52805 17.3665 4.55746 17.6021 4.57331 17.7125C4.58917 17.8229 4.62755 18.0406 4.65863 18.1961C4.6897 18.3517 4.74803 18.6184 4.78822 18.7889C4.82842 18.9594 4.90254 19.229 4.95294 19.3881C5.00334 19.5472 5.0861 19.7935 5.13684 19.9355C5.1876 20.0775 5.24608 20.2356 5.26679 20.2869C5.28749 20.3382 5.3247 20.4285 5.34948 20.4877C5.37425 20.5468 5.44864 20.7146 5.51482 20.8606C5.58099 21.0065 5.67758 21.2066 5.72948 21.3052C5.78138 21.4038 5.87543 21.5748 5.93845 21.6852C6.00149 21.7957 6.10778 21.9731 6.17466 22.0796C6.24154 22.1861 6.36092 22.3668 6.43996 22.4812C6.519 22.5956 6.66098 22.7911 6.7555 22.9157C6.85 23.0403 6.9983 23.2274 7.08503 23.3316C7.17178 23.4358 7.31757 23.6047 7.40902 23.707C7.50046 23.8092 7.70429 24.0225 7.86196 24.1808C8.01963 24.3391 8.23571 24.546 8.34214 24.6406C8.44857 24.7352 8.61304 24.877 8.70765 24.9558C8.80225 25.0346 8.9635 25.1638 9.06599 25.243C9.16847 25.3222 9.32973 25.4421 9.42433 25.5095C9.51893 25.5769 9.67374 25.6836 9.76834 25.7467C9.86294 25.8098 10.0489 25.9272 10.1816 26.0076C10.3144 26.088 10.5377 26.2152 10.678 26.2902C10.8182 26.3653 11.0427 26.4775 11.1769 26.5397C11.311 26.6018 11.5327 26.6974 11.6696 26.7521C11.8064 26.8068 12.0377 26.8908 12.1836 26.9388C12.3294 26.9867 12.6584 27.0808 12.9146 27.1479C13.1708 27.2149 13.4869 27.2923 13.6169 27.3199C13.747 27.3475 13.9534 27.3864 14.0756 27.4064C14.1978 27.4264 14.4042 27.4557 14.5343 27.4716C14.6644 27.4874 14.8869 27.5106 15.0288 27.5232C15.1797 27.5366 15.523 27.5494 15.8557 27.5541C16.2177 27.5592 16.5331 27.5559 16.7229 27.5451C16.887 27.5358 17.1463 27.5155 17.2993 27.4999C17.4522 27.4844 17.6877 27.4552 17.8225 27.4352C17.9572 27.4151 18.191 27.3731 18.342 27.3419C18.4929 27.3107 18.7961 27.2368 19.0156 27.1776C19.2352 27.1185 19.5591 27.0217 19.7354 26.9626C19.9116 26.9034 20.1728 26.8073 20.3159 26.749C20.4589 26.6907 20.6501 26.6095 20.7408 26.5684C20.8314 26.5274 21.0249 26.4336 21.1708 26.3599C21.3166 26.2862 21.5424 26.1652 21.6725 26.091C21.8025 26.0168 22.0179 25.8871 22.151 25.8027C22.2842 25.7183 22.4906 25.5808 22.6097 25.4972C22.7288 25.4135 22.9069 25.2835 23.0055 25.2081C23.104 25.1327 23.2363 25.029 23.2993 24.9777C23.3624 24.9263 23.5075 24.804 23.6218 24.7058C23.7361 24.6076 24.0105 24.346 24.2315 24.1245C24.4641 23.8915 24.7221 23.616 24.844 23.4708C24.9598 23.3328 25.1098 23.1488 25.1772 23.062C25.2446 22.9753 25.3699 22.8043 25.4556 22.682C25.5414 22.5597 25.6564 22.3887 25.7112 22.3019C25.7661 22.2152 25.8787 22.028 25.9615 21.886C26.0443 21.744 26.1687 21.5246 26.2378 21.3984C26.307 21.2722 26.4175 21.0601 26.4834 20.9272C26.5494 20.7943 26.6139 20.6491 26.6268 20.6045C26.6397 20.56 26.6586 20.5106 26.6687 20.4948C26.6789 20.4791 26.7142 20.3984 26.7472 20.3156C26.7802 20.2327 26.8539 20.0327 26.911 19.871C26.9681 19.7093 27.0445 19.4801 27.0807 19.3618C27.1169 19.2435 27.1764 19.0346 27.2129 18.8976C27.2493 18.7607 27.2979 18.5654 27.3208 18.4638C27.3437 18.3622 27.3819 18.1677 27.4056 18.0316C27.4293 17.8956 27.4646 17.6487 27.4839 17.483C27.5033 17.3174 27.5275 17.0818 27.5378 16.9595C27.5497 16.8174 27.5564 16.4917 27.5564 16.056C27.5564 15.6255 27.5496 15.2903 27.5378 15.1453C27.5276 15.0191 27.5064 14.7996 27.4907 14.6577C27.475 14.5157 27.4491 14.3124 27.4331 14.2059C27.4172 14.0994 27.3815 13.8961 27.3538 13.7541C27.3262 13.6121 27.2649 13.3411 27.2177 13.1518C27.1705 12.9624 27.1094 12.7269 27.082 12.6283C27.0546 12.5297 27.0025 12.3586 26.9661 12.2482C26.9298 12.1378 26.863 11.9506 26.8177 11.8323C26.7724 11.714 26.7018 11.5397 26.6607 11.4451C26.6196 11.3504 26.5226 11.1439 26.4451 10.9861C26.3676 10.8284 26.2499 10.6025 26.1836 10.4842C26.1173 10.3658 26.0158 10.1916 25.958 10.0969C25.9003 10.0023 25.783 9.81958 25.6973 9.69096C25.6116 9.56234 25.4987 9.39776 25.4464 9.32524C25.3941 9.25271 25.2953 9.11916 25.2269 9.02844C25.1586 8.93773 25.0421 8.78929 24.9681 8.69858C24.8941 8.60787 24.7601 8.44975 24.6703 8.3472C24.5805 8.24466 24.4127 8.06122 24.2974 7.93958C24.182 7.81793 23.9909 7.62802 23.8727 7.51758C23.7544 7.40712 23.5706 7.24194 23.4642 7.15049C23.3577 7.05906 23.1868 6.91894 23.0843 6.83913C22.9818 6.75932 22.8045 6.62818 22.6901 6.54769C22.5758 6.46722 22.3694 6.3296 22.2315 6.24189C22.0935 6.15417 21.8806 6.02537 21.7585 5.95564C21.6363 5.88592 21.3847 5.75246 21.1994 5.65906C21.0142 5.56567 20.6884 5.41499 20.4756 5.32422C20.256 5.2306 19.929 5.10576 19.7198 5.03567C19.517 4.96772 19.2049 4.87357 19.0262 4.82644C18.8475 4.7793 18.5821 4.71447 18.4363 4.68236C18.2906 4.65025 18.0803 4.60863 17.9689 4.58985C17.8576 4.57109 17.6601 4.54254 17.53 4.52641C17.3999 4.51028 17.1871 4.48648 17.057 4.47351C16.8773 4.4556 16.6382 4.44907 16.0608 4.44636C15.643 4.44441 15.2624 4.44526 15.2151 4.44824ZM15.2366 10.5771C15.5717 10.5842 15.9651 10.6001 16.111 10.6126C16.2568 10.625 16.5374 10.6516 16.7345 10.6716C16.9316 10.6915 17.2251 10.7238 17.3867 10.7434C17.5483 10.7629 17.8902 10.8115 18.1464 10.8513C18.4026 10.8912 18.7412 10.9495 18.8989 10.9809C19.0566 11.0124 19.2984 11.064 19.4364 11.0956C19.5744 11.1272 19.7872 11.179 19.9094 11.2107C20.0316 11.2423 20.2755 11.3098 20.4515 11.3606C20.6274 11.4114 20.9249 11.504 21.1126 11.5664C21.3003 11.6288 21.5947 11.7327 21.7669 11.7973C21.9391 11.8619 22.2 11.965 22.3467 12.0265C22.4934 12.088 22.742 12.1974 22.8991 12.2695C23.0561 12.3417 23.2965 12.4587 23.4332 12.5295C23.5699 12.6004 23.7395 12.6941 23.8101 12.7378C23.8808 12.7815 23.985 12.8544 24.0418 12.8998C24.0986 12.9452 24.1743 13.014 24.2101 13.0527C24.2459 13.0914 24.2961 13.1536 24.3216 13.1908C24.3472 13.2281 24.3871 13.2988 24.4103 13.348C24.4335 13.3971 24.4632 13.4855 24.4763 13.5443C24.4939 13.6234 24.4979 13.687 24.4916 13.7887C24.4869 13.8644 24.4726 13.9649 24.4597 14.0123C24.4469 14.0596 24.4122 14.15 24.3826 14.2131C24.353 14.2762 24.2984 14.3649 24.2612 14.4102C24.2241 14.4556 24.1537 14.5253 24.1048 14.5651C24.056 14.605 23.958 14.6664 23.887 14.7016C23.8161 14.7367 23.7064 14.7789 23.6433 14.7953C23.5651 14.8156 23.4809 14.8254 23.3782 14.8261C23.276 14.8269 23.2 14.8193 23.1417 14.8026C23.0944 14.7891 22.7299 14.615 22.3318 14.4158C21.8889 14.1941 21.5078 14.0136 21.3499 13.9508C21.208 13.8943 20.9855 13.8102 20.8554 13.7638C20.7254 13.7174 20.4835 13.6368 20.3179 13.5846C20.1524 13.5324 19.9245 13.4635 19.8116 13.4313C19.6986 13.3991 19.4374 13.3314 19.231 13.2807C19.0247 13.23 18.7043 13.1596 18.519 13.1242C18.3338 13.0889 18.0113 13.0308 17.8024 12.9951C17.5934 12.9594 17.3032 12.9141 17.1573 12.8945C17.0115 12.875 16.7696 12.846 16.6198 12.8303C16.47 12.8145 16.2153 12.7918 16.0537 12.7797C15.892 12.7676 15.6276 12.7515 15.466 12.7438C15.3044 12.7362 14.9786 12.7258 14.7421 12.7207C14.5024 12.7155 14.0901 12.7185 13.8104 12.7274C13.5345 12.7363 13.2023 12.7501 13.0722 12.7581C12.9422 12.7662 12.7196 12.7825 12.5777 12.7943C12.4358 12.8061 12.2004 12.8288 12.0546 12.8446C11.9087 12.8604 11.6733 12.8895 11.5314 12.9093C11.3895 12.929 11.1591 12.9643 11.0194 12.9877C10.8797 13.011 10.6378 13.0562 10.4819 13.0881C10.3259 13.1199 9.99517 13.1978 9.74684 13.2613L9.29533 13.3766L9.08032 13.3702C8.89846 13.3647 8.84764 13.358 8.75065 13.3262C8.68758 13.3056 8.5941 13.2644 8.54291 13.2346C8.49172 13.2048 8.40142 13.1319 8.34224 13.0725C8.28305 13.0131 8.21299 12.9278 8.18655 12.8829C8.1601 12.838 8.12259 12.7619 8.1032 12.7138C8.08379 12.6658 8.05878 12.5833 8.04761 12.5305C8.03643 12.4778 8.02718 12.3786 8.02704 12.3101C8.02691 12.2416 8.03659 12.1383 8.04857 12.0806C8.06054 12.0229 8.09586 11.9222 8.12703 11.8568C8.15822 11.7914 8.21365 11.6989 8.25023 11.6514C8.28681 11.6038 8.35954 11.5293 8.41186 11.4859C8.46418 11.4424 8.55211 11.3839 8.60727 11.3558C8.66244 11.3278 8.79382 11.2765 8.89924 11.2418C9.00467 11.2071 9.21755 11.1471 9.3723 11.1085C9.52706 11.0699 9.78267 11.0124 9.94034 10.9808C10.098 10.9491 10.3399 10.9036 10.4779 10.8796C10.6158 10.8556 10.8351 10.82 10.9652 10.8005C11.0953 10.781 11.3243 10.7488 11.474 10.7291C11.6238 10.7094 11.8657 10.6802 12.0116 10.6644C12.1574 10.6486 12.3993 10.6251 12.5491 10.6122C12.6989 10.5993 13.0762 10.5841 13.3876 10.5784C13.699 10.5726 14.1053 10.5671 14.2906 10.5661C14.4759 10.5651 14.9016 10.57 15.2366 10.5771ZM15.1076 14.564C15.2456 14.5724 15.5056 14.5923 15.6855 14.6082C15.8654 14.6242 16.1395 14.6533 16.2947 14.673C16.4499 14.6927 16.6833 14.7253 16.8133 14.7454C16.9434 14.7655 17.1853 14.8074 17.3508 14.8383C17.5164 14.8693 17.7454 14.9145 17.8597 14.9388C17.974 14.9631 18.2079 15.018 18.3794 15.061C18.5509 15.1039 18.7928 15.1684 18.9169 15.2042C19.041 15.2401 19.2232 15.2954 19.3217 15.3272C19.4203 15.3589 19.6138 15.4236 19.7517 15.471C19.8897 15.5183 20.138 15.6107 20.3036 15.6763C20.4691 15.7418 20.7304 15.8515 20.8841 15.92C21.0378 15.9885 21.3037 16.1148 21.475 16.2007C21.6463 16.2866 21.8973 16.4187 22.0329 16.4942C22.1684 16.5697 22.3372 16.6711 22.408 16.7196C22.4787 16.7681 22.5772 16.8478 22.6269 16.8967C22.6792 16.9484 22.7355 17.0221 22.7608 17.0723C22.7849 17.12 22.8183 17.2093 22.8352 17.2708C22.8566 17.3489 22.8655 17.4215 22.8648 17.5117C22.8642 17.5827 22.8535 17.6789 22.841 17.7255C22.8285 17.7721 22.7944 17.856 22.7652 17.912C22.7315 17.9765 22.675 18.0509 22.6107 18.1156C22.5343 18.1924 22.4795 18.2322 22.3883 18.2768C22.3218 18.3094 22.2289 18.3458 22.1819 18.3577C22.1348 18.3697 22.0351 18.3793 21.9597 18.3792C21.8845 18.3791 21.7834 18.3696 21.735 18.3582C21.6867 18.3468 21.6125 18.3221 21.5702 18.3034C21.5279 18.2846 21.4094 18.2187 21.3069 18.1568C21.2045 18.095 20.9239 17.946 20.6834 17.8258C20.443 17.7056 20.1559 17.569 20.0456 17.5221C19.9352 17.4753 19.7643 17.4063 19.6657 17.3687C19.5672 17.3311 19.4082 17.2727 19.3124 17.2388C19.2166 17.205 19.0134 17.1381 18.8609 17.0903C18.7083 17.0425 18.4707 16.9712 18.3327 16.932C18.1947 16.8927 17.9529 16.8287 17.7952 16.7896C17.6375 16.7506 17.3956 16.6955 17.2577 16.6672C17.1197 16.6389 16.8359 16.5901 16.627 16.5587C16.4181 16.5273 16.1182 16.4854 15.9605 16.4656C15.8028 16.4458 15.5674 16.4198 15.4373 16.4079C15.3072 16.3959 15.0815 16.3796 14.9356 16.3717C14.7898 16.3637 14.4092 16.3572 14.0899 16.3573C13.7707 16.3573 13.3869 16.3638 13.2371 16.3718C13.0873 16.3797 12.8523 16.3959 12.7149 16.4077C12.5776 16.4195 12.3808 16.439 12.2778 16.4511C12.1747 16.4631 11.9807 16.4892 11.8467 16.5092C11.7127 16.5291 11.4837 16.5678 11.3379 16.5952C11.192 16.6227 10.9695 16.6679 10.8434 16.6958C10.7172 16.7236 10.4392 16.7907 10.2256 16.8447C10.0119 16.8988 9.79222 16.9475 9.73736 16.9529C9.67589 16.9589 9.60498 16.9561 9.55247 16.9454C9.50565 16.9359 9.41425 16.9034 9.34938 16.8732C9.28452 16.843 9.19192 16.7879 9.14363 16.7507C9.09534 16.7135 9.02656 16.6436 8.99077 16.5954C8.95497 16.5472 8.90813 16.4691 8.88666 16.4217C8.8652 16.3744 8.83919 16.3002 8.82884 16.2568C8.8185 16.2134 8.81053 16.1166 8.81115 16.0417C8.81195 15.9438 8.82116 15.8771 8.84377 15.805C8.8611 15.7498 8.89559 15.6659 8.9204 15.6186C8.94587 15.57 9.00931 15.4888 9.06613 15.4321C9.12147 15.3769 9.20779 15.3079 9.25793 15.2788C9.30807 15.2497 9.42778 15.2002 9.52396 15.1687C9.62014 15.1373 9.84348 15.0752 10.0203 15.0309C10.197 14.9866 10.4804 14.9221 10.6499 14.8876C10.8194 14.8531 11.1128 14.7989 11.302 14.7671C11.4912 14.7354 11.7364 14.6964 11.8467 14.6805C11.9571 14.6646 12.1667 14.6388 12.3126 14.6231C12.4584 14.6074 12.668 14.5874 12.7784 14.5786C12.8888 14.5698 13.1049 14.5571 13.2586 14.5503C13.4123 14.5436 13.8348 14.5405 14.1974 14.5434C14.5601 14.5464 14.9697 14.5556 15.1076 14.564ZM15.6138 18.3717C15.8173 18.3917 16.0689 18.4178 16.1728 18.4298C16.2768 18.4418 16.4618 18.4678 16.584 18.4874C16.7062 18.5071 16.9061 18.543 17.0283 18.5671C17.1505 18.5913 17.3795 18.6423 17.5372 18.6804C17.6949 18.7185 17.9077 18.7732 18.0102 18.802C18.1127 18.8307 18.2997 18.8869 18.4259 18.9268C18.552 18.9666 18.7713 19.0412 18.9132 19.0924C19.0551 19.1436 19.2551 19.2196 19.3576 19.2614C19.46 19.3031 19.6149 19.3683 19.7016 19.4062C19.7883 19.4441 19.9915 19.5413 20.1531 19.6221C20.3147 19.7029 20.5437 19.823 20.6619 19.889C20.7802 19.9551 20.9438 20.0507 21.0255 20.1014C21.1281 20.1651 21.1939 20.2178 21.2381 20.2716C21.2732 20.3145 21.3177 20.3806 21.3368 20.4184C21.356 20.4562 21.3812 20.5276 21.3928 20.577C21.4045 20.6265 21.414 20.6992 21.414 20.7387C21.414 20.7781 21.4045 20.8508 21.3929 20.9001C21.3812 20.9495 21.3525 21.028 21.329 21.0745C21.3056 21.1211 21.2509 21.1974 21.2077 21.2442C21.1636 21.2917 21.0924 21.3486 21.046 21.3733C21.0003 21.3975 20.9249 21.4283 20.8783 21.4418C20.8172 21.4594 20.7589 21.4646 20.6679 21.4602C20.548 21.4545 20.5336 21.45 20.3584 21.3643C20.2573 21.3149 20.1262 21.2466 20.0671 21.2126C20.008 21.1786 19.8403 21.0891 19.6944 21.0136C19.5486 20.9382 19.3196 20.8272 19.1856 20.7669C19.0515 20.7067 18.8226 20.6102 18.6767 20.5526C18.5309 20.4949 18.3051 20.4121 18.175 20.3686C18.045 20.3251 17.8482 20.2635 17.7379 20.2317C17.6275 20.1999 17.4501 20.1514 17.3437 20.124C17.2373 20.0965 17.0433 20.0511 16.9127 20.0231C16.7821 19.995 16.5693 19.9561 16.4397 19.9366C16.3102 19.9171 16.0881 19.8882 15.9462 19.8722C15.8042 19.8563 15.5624 19.8334 15.4086 19.8213C15.2549 19.8092 15.0066 19.793 14.8568 19.7851C14.707 19.7773 14.4232 19.7667 14.2261 19.7617C14.0198 19.7564 13.6944 19.7597 13.4593 19.7694C13.2346 19.7786 12.952 19.7956 12.8313 19.8072C12.7107 19.8187 12.3849 19.8607 12.1075 19.9005C11.83 19.9403 11.4493 19.9986 11.2613 20.0301C11.0734 20.0617 10.7638 20.1197 10.5733 20.1592C10.3829 20.1987 10.1693 20.2363 10.0988 20.2429C10.0273 20.2495 9.92572 20.2492 9.86946 20.2421C9.8129 20.235 9.73471 20.2129 9.69187 20.1919C9.64976 20.1713 9.57384 20.1157 9.52318 20.0682C9.45377 20.0033 9.41695 19.9533 9.37389 19.8655C9.33546 19.7872 9.31127 19.7131 9.30009 19.6393C9.2877 19.5576 9.28754 19.5049 9.29944 19.4331C9.30823 19.38 9.33813 19.2887 9.36589 19.2302C9.39679 19.1651 9.44708 19.0917 9.49561 19.0408C9.5392 18.995 9.60564 18.9409 9.64325 18.9204C9.68086 18.8999 9.76954 18.8663 9.84032 18.8458C9.9111 18.8253 10.0384 18.7925 10.1231 18.773C10.2079 18.7535 10.3779 18.7182 10.501 18.6946C10.624 18.671 10.8578 18.6295 11.0205 18.6022C11.1833 18.575 11.4744 18.5302 11.6675 18.5028C11.8607 18.4753 12.1316 18.4398 12.2696 18.4238C12.4075 18.4079 12.6365 18.3841 12.7784 18.3711C12.9203 18.3581 13.2331 18.3423 13.4736 18.336C13.714 18.3298 14.2107 18.3271 14.5773 18.33C15.1571 18.3346 15.2919 18.3401 15.6138 18.3717Z" fill="#1ED760"/>
</svg>
