<svg width="225" height="225" viewBox="0 0 225 225" xmlns="http://www.w3.org/2000/svg">
<path fill-rule="evenodd" clip-rule="evenodd" d="M56.6981 90.011L45.5 101.283L56.4659 112.255L67.4328 123.227L78.6299 111.989L89.8279 100.75L78.863 89.745L67.8971 78.739L56.6981 90.011ZM101.79 89.755L90.8581 100.762L102.05 111.994L113.241 123.227L124.207 112.256L135.173 101.284L146.139 112.256L157.105 123.227L168.302 111.989L179.5 100.75L168.28 89.5L157.06 78.25L145.939 89.556L134.817 100.861L123.77 89.805L112.722 78.749L101.79 89.755ZM101.881 135.234C96.08 141 91.3334 146.055 91.3334 146.467C91.3334 147.625 111.588 167.75 112.754 167.75C113.321 167.75 118.598 162.905 124.479 156.983L135.174 146.217L124.446 135.483C118.546 129.58 113.429 124.75 113.074 124.75C112.719 124.75 107.683 129.468 101.881 135.234Z" fill="black"/>
</svg>
