<svg width="32" height="32" viewBox="0 0 32 32" fill="none" xmlns="http://www.w3.org/2000/svg">
<path fill-rule="evenodd" clip-rule="evenodd" d="M6.37665 11.8038L4.44531 13.7479L6.33661 15.6403L8.22808 17.5326L10.1593 15.5944L12.0906 13.656L10.1995 11.7579L8.30816 9.85973L6.37665 11.8038ZM14.1537 11.7597L12.2683 13.6581L14.1986 15.5953L16.1287 17.5326L18.02 15.6404L19.9113 13.7481L21.8026 15.6404L23.6939 17.5326L25.6251 15.5944L27.5564 13.656L25.6213 11.7157L23.6862 9.77539L21.7681 11.7253L19.85 13.6751L17.9446 11.7683L16.0392 9.86145L14.1537 11.7597ZM14.1694 19.6035C13.1689 20.5979 12.3502 21.4698 12.3502 21.5408C12.3502 21.7406 15.8436 25.2115 16.0447 25.2115C16.1425 25.2115 17.0525 24.3759 18.0669 23.3545L19.9115 21.4977L18.0613 19.6464C17.0436 18.6283 16.161 17.7953 16.0999 17.7953C16.0387 17.7953 15.17 18.609 14.1694 19.6035Z" fill="white"/>
</svg>
