<svg width="14" height="15" viewBox="0 0 14 15" fill="none" xmlns="http://www.w3.org/2000/svg">
<mask id="mask0_2488_17534" style="mask-type:alpha" maskUnits="userSpaceOnUse" x="0" y="0" width="14" height="15">
<rect y="0.5" width="14" height="14" fill="#D9D9D9"/>
</mask>
<g mask="url(#mask0_2488_17534)">
<path d="M5.01146 13.625L3.90313 11.7583L1.80313 11.2917L2.00729 9.13333L0.578125 7.5L2.00729 5.86667L1.80313 3.70833L3.90313 3.24167L5.01146 1.375L6.99479 2.22083L8.97813 1.375L10.0865 3.24167L12.1865 3.70833L11.9823 5.86667L13.4115 7.5L11.9823 9.13333L12.1865 11.2917L10.0865 11.7583L8.97813 13.625L6.99479 12.7792L5.01146 13.625ZM5.50729 12.1375L6.99479 11.4958L8.51146 12.1375L9.32813 10.7375L10.9323 10.3583L10.7865 8.725L11.8656 7.5L10.7865 6.24583L10.9323 4.6125L9.32813 4.2625L8.48229 2.8625L6.99479 3.50417L5.47813 2.8625L4.66146 4.2625L3.05729 4.6125L3.20313 6.24583L2.12396 7.5L3.20313 8.725L3.05729 10.3875L4.66146 10.7375L5.50729 12.1375ZM6.38229 9.57083L9.67813 6.275L8.86146 5.42917L6.38229 7.90833L5.12813 6.68333L4.31146 7.5L6.38229 9.57083Z" fill="white" fill-opacity="0.8"/>
</g>
</svg>
