<svg width="32" height="32" viewBox="0 0 32 32" fill="none" xmlns="http://www.w3.org/2000/svg">
<path d="M26.9787 10.3657C26.6898 9.3546 25.9676 8.63238 24.9564 8.34349C23.2231 7.91016 15.8564 7.91016 15.8564 7.91016C15.8564 7.91016 8.63421 7.91016 6.75643 8.34349C5.74532 8.63238 5.02309 9.3546 4.7342 10.3657C4.44531 12.2435 4.44531 15.999 4.44531 15.999C4.44531 15.999 4.44532 19.7546 4.87865 21.6324C5.16754 22.6435 5.88975 23.3657 6.90086 23.6546C8.6342 24.0879 16.0009 24.0879 16.0009 24.0879C16.0009 24.0879 23.2231 24.0879 25.1009 23.6546C26.112 23.3657 26.8342 22.6435 27.1231 21.6324C27.5564 19.7546 27.5564 15.999 27.5564 15.999C27.5564 15.999 27.5564 12.2435 26.9787 10.3657ZM13.6897 19.4657V12.5324L19.7564 15.999L13.6897 19.4657Z" fill="#FF0000"/>
</svg>
