<?xml version="1.0" encoding="UTF-8"?><svg id="Layer_2" xmlns="http://www.w3.org/2000/svg" viewBox="0 0 530.92 209.05"><g id="Layer_1-2"><path d="m17.26,104.73c-.16-23.78,28.63-43.28,48.12-53.54,3.07-1.62,1.98.27-.95,5.09-5.57,9.17-10.15,18.98-12.99,29.38-3.59.38-5.35.57-8.78.97,2.95-9.92,5.57-16.74,2.7-15.64-11.27,4.35-20.28,21.18-20.19,33.75.09,12.56,9.33,29.22,20.45,33.6,2.95,1.17.21-5.78-2.92-16.53,3.44.38,5.2.57,8.8.93,3.18,9.68,6.55,19.06,11.78,27.78,4.15,6.92,5.88,9.31,2.14,7.35-19.43-10.22-48-29.53-48.16-53.15Z" style="fill:#14090c;"/><path d="m77.77,46.75c5.97-2.32,9.11-3.43,15.65-5.56,7.91,2.5-4.03,28.65-5.47,33.68-3.08,10.78-4.73,24.03-11.34,33.62,0,.23.01.35.03.58,3.76,4.1,5.75,12.01,10.27,25.38,4.17,12.32,9.62,25.23,18.05,35.41.41.63.61.94,1.03,1.56-3.5-.99-5.21-1.49-8.57-2.53-7.53-8.41-13.2-18.74-17.68-29.03-5.19-11.9-7.85-18.8-12.03-19.1-2.35-.17-3.52-.25-5.82-.42,3.33,17.06,12.94,31.25,23.53,44.6-3.25-1.14-4.84-1.73-7.94-2.92-33.47-38.4-33.34-76.94.29-115.26Zm-9.84,49.88c3.9-.13,6.2-6.5,8.85-16.44,2.56-9.57,3.93-15.79.35-15.14-2.89.52-4.31.79-7.1,1.33-4.46,9.97-8.48,19.45-9.41,30.5,2.88-.1,4.34-.15,7.31-.25Z" style="fill:#14090c;"/><path d="m108.47,36.66c9.64-2.71,19.47-5.05,29.28-7.03-4.4,9.28-8.13,19.42-10.75,29.35-9.06,1.01-13.47,1.55-22.01,2.72-3.42,9.95-4.67,15.07-6.1,25.47,7.64-.4,11.57-.58,19.6-.94-1.19,9.74-1.41,20.15-.61,29.93-8.07-.22-12.02-.34-19.69-.59.76,10.14,3.07,21.02,6.41,30.62,8.7,1.15,13.2,1.68,22.44,2.68,3.07,10.35,6.26,20.43,10.87,30.23-9.94-1.98-19.9-4.33-29.67-7.06-26.81-45.43-26.69-90.06.23-135.38Z" style="fill:#14090c;"/><path d="m153.58,26.63c4.31-.75,6.49-1.1,10.92-1.78-11.21,55.32-2.75,108.4,15.83,161.14-4.68-.58-7-.9-11.57-1.56-3.75-9.13-7.1-18.59-9.91-28.06-6.6-.58-9.84-.89-16.22-1.56,1.69,10.9,2.93,16.19,6.14,26.37-4.17-.76-6.23-1.15-10.28-1.97-16.57-52.8-7.32-102.96,15.1-152.58Zm-1.8,101.09c-2.48-13.16-3.92-26.5-4.23-39.89-.22-8.42.88-22.6.88-22.6-.05,0-.08,0-.13,0,0,0-3.32,14.3-4.76,22.71-2.21,12.98-3.29,26.15-3.13,39.31,4.5.19,6.78.29,11.38.46Z" style="fill:#14090c;"/><path d="m181.02,55.25c-5.76.35-8.6.54-14.22.95,2.14-11.14,4.61-21.83,7.59-32.78,12.71-1.72,25.47-3.05,38.26-4.02-1.69,11.49-3.12,22.9-4.32,34.46-6.04.24-9.03.38-14.94.69-4.66,45-2.96,89,5.38,133.47-4.61-.44-6.89-.68-11.4-1.19-9.83-43.81-11.86-87.02-6.34-131.58Z" style="fill:#14090c;"/><path d="m215.37,19.21c12.31-.88,24.64-1.43,36.98-1.67-.43,11.42-.79,22.84-1.1,34.27-10.96.12-16.38.23-27.05.55-.72,10.34-1.21,20.73-1.47,31.09,9.47-.11,14.27-.15,23.96-.2-.1,11.6-.13,23.19-.08,34.79-9.73-.03-14.55-.06-24.06-.13.21,12.46.73,24.91,1.54,37.35,10.87.31,16.39.42,27.57.53.27,11.76.62,23.51,1.08,35.27-12.49-.23-24.98-.78-37.45-1.67-7.84-56.89-7.82-113.3.07-170.19Z" style="fill:#14090c;"/><path d="m262.3,17.41c5.04-.03,7.59-.02,12.61.03,2.34,24.09,4.59,48.18,6.59,72.29,1.16,14.81,1.9,29.67,2.41,44.52.06,0,.09,0,.15,0,1.07-14.24,2.03-28.49,2.9-42.75,1.39-24.59,2.31-49.13,2.5-73.76,4.53.14,6.78.23,11.26.44,3.83,24.25,6.92,48.49,9.16,72.94,1.22,14.23,1.86,28.53,2.12,42.81.06,0,.09,0,.15,0,1.42-14.81,2.46-29.65,3.15-44.5,1-23.51,1.24-46.95-.39-70.44,4.76.32,7.13.5,11.81.89,4.69,57.38-1.24,113.58-12.96,169.8-4.64.3-6.99.43-11.7.66.95-27.5.08-54.96-1.5-82.41-.71-11.09-1.47-22.18-2.33-33.26-.06,0-.09,0-.15,0-.25,11.1-.74,22.19-1.45,33.27-2.08,27.73-4.96,55.34-8.38,82.94-4.82.14-7.25.19-12.13.25-3.58-57.99-9.47-115.79-13.82-173.72Z" style="fill:#14090c;"/><path d="m338.71,21.01c3.61.37,5.4.57,8.96.98,6.81,56.81-1.5,111.7-17.12,166.4-3.67.33-5.51.48-9.23.76,14.35-55.38,22.53-110.91,17.4-168.15Z" style="fill:#14090c;"/><path d="m368.04,104.88c.01-10.7-6.25-81.98,8.98-81.37,4.28.17,11.07,6.44,16.98,14.8,8.61,12.19,14.94,26.91,17.38,41.78-4.54-.26-6.85-.39-11.51-.63-1.52-9.47-7.75-24.8-13.34-25.25-7.08-.57-5.87,42.22-5.87,50.65,0,9.62-1.75,50.13,5.83,50.38,6.14.2,12.57-18.09,13.82-26.57,4.66-.23,6.97-.35,11.51-.6-3.1,13.89-7.25,26.66-14.93,38.77-7.14,11.26-14.58,18.45-19.81,18.68-15.32.68-9.05-70.12-9.04-80.65Z" style="fill:#14090c;"/><path d="m408.66,32.51c3.96.93,5.91,1.41,9.73,2.41,27.82,43.2,38.98,88.25,13.44,135.2-3.71,1.1-5.6,1.63-9.46,2.66,4.88-8.9,6.84-13.57,9.67-23.23-5.72.88-8.64,1.3-14.61,2.1-3.61,8.72-8.04,17.43-12.91,25.51-3.94.88-5.94,1.3-10,2.12,24.37-47.45,34.14-95.89,14.13-146.78Zm27.79,92.47c.86-11.84-.03-23.79-2.48-35.41-1.62-7.59-5.68-20.5-5.68-20.5-.05,0-.07,0-.12-.01,0,0,2.04,12.75,2.16,20.35.2,12.18-1.26,24.36-4.17,36.19,4.18-.24,6.24-.37,10.29-.62Z" style="fill:#14090c;"/><path d="m432.83,38.96c6.77,2.04,10.02,3.11,16.24,5.35,14.21,7.24,26.99,20.9,33.52,35.27,3.98,8.76,5.35,20.53-1.19,28.49-.01.21-.02.31-.03.52,3.02,3.55,4.76,10.79.1,21.34-4.69,10.62-11.53,19.65-19.38,28.85-.52.51-.78.77-1.32,1.28-2.91,1.19-4.41,1.77-7.47,2.92,6.5-8.14,12.77-16.26,17.03-25.82,4.8-10.76,3.78-17.02-.33-16.72-2.31.17-3.49.25-5.85.42-3.12,17.39-12.24,32.18-22.48,46.2-3.36,1.1-5.08,1.64-8.59,2.69,28.47-43.79,28.34-87.11-.24-130.79Zm39.84,57.92c3.79.13,5.42-5.6,2.44-14.71-2.88-8.78-8.17-15.09-11.64-15.76-2.8-.54-4.22-.81-7.1-1.33,4.56,11.03,7.1,19.77,8.99,31.55,2.97.1,4.43.15,7.31.25Z" style="fill:#14090c;"/><path d="m462.32,49.47c9.03,3.81,13.19,5.83,20.63,10.05,10.22,6.48,14.49,9.94,20.9,17.17-5.8-1.69-8.89-2.5-15.42-4.08,5.1,7.32,6.96,11.12,9.09,18.89,5.92.54,8.76.81,14.14,1.38,2.49,7.47,2.75,11.48,1.15,19.04-5.42.36-8.28.54-14.24.88-1.63,9.39-3.62,13.98-9.55,22.76,6.66-1.56,9.82-2.37,15.72-4.03-6.43,7.44-10.76,11-21.23,17.65-7.53,4.25-11.73,6.28-20.88,10.11,35.08-36.4,34.93-73.51-.3-109.82Z" style="fill:#14090c;"/><path d="m265.46,7c142.74,0,258.46,43.66,258.46,97.52s-115.72,97.52-258.46,97.52S7,158.38,7,104.52,122.72,7,265.46,7m0-7c-69.86,0-135.64,10.3-185.23,29.01C28.49,48.54,0,75.35,0,104.52s28.49,55.99,80.23,75.51c49.59,18.71,115.37,29.01,185.23,29.01s135.64-10.3,185.23-29.01c51.74-19.52,80.23-46.34,80.23-75.51s-28.49-55.99-80.23-75.51C401.1,10.3,335.32,0,265.46,0h0Z" style="fill:#14090c;"/></g></svg>