<svg width="264" height="199" viewBox="0 0 264 199" fill="none" xmlns="http://www.w3.org/2000/svg">
<rect width="264" height="199" fill="white"/>
<rect x="4" y="4" width="256" height="137" fill="white"/>
<path d="M72.8438 75.5566C73.8984 75.5566 74.5664 74.9004 74.5898 73.834H75.8203C75.8203 75.5449 74.6309 76.6758 72.8496 76.6758C70.834 76.6758 69.6562 75.3457 69.6562 73.0547V71.4902C69.6562 69.1992 70.834 67.8691 72.8496 67.8691C74.6777 67.8691 75.7969 68.9766 75.8203 70.834H74.5898C74.5547 69.7266 73.8516 68.9883 72.8379 68.9883C71.5723 68.9883 70.9102 69.8496 70.9102 71.4902V73.0547C70.9102 74.6953 71.5723 75.5566 72.8438 75.5566ZM80.3027 73.2012H78.5742V76.5H77.3613V68.0449H80.2676C81.9961 68.0449 83.0625 69.0293 83.0625 70.6289C83.0625 71.7305 82.459 72.6445 81.5098 72.9727L83.2207 76.5H81.8496L80.3027 73.2012ZM78.5742 69.082V72.2168H80.0977C81.2051 72.2168 81.832 71.6484 81.832 70.6523C81.832 69.6562 81.2109 69.082 80.1387 69.082H78.5742ZM90.1641 75.416V76.5H85.0781V68.0449H90.1641V69.1289H86.3027V71.6895H89.9473V72.709H86.3027V75.416H90.1641ZM96.9609 76.5L96.2871 74.168H93.4746L92.7949 76.5H91.5645L94.2305 68.0449H95.5898L98.2559 76.5H96.9609ZM94.8633 69.3984L93.7617 73.1777H96L94.9043 69.3984H94.8633ZM102.938 76.5H101.719V69.1289H99.2051V68.0449H105.451V69.1289H102.938V76.5ZM112.418 75.416V76.5H107.332V68.0449H112.418V69.1289H108.557V71.6895H112.201V72.709H108.557V75.416H112.418ZM114.322 68.0449H116.795C119.18 68.0449 120.398 69.4629 120.398 72.2461C120.398 75.0703 119.191 76.5 116.795 76.5H114.322V68.0449ZM115.547 69.1289V75.416H116.66C118.359 75.416 119.15 74.4199 119.15 72.2578C119.15 70.1367 118.348 69.1289 116.66 69.1289H115.547ZM132.035 71.3262H131.965L130.822 76.5H129.703L128.291 68.0449H129.428L129.885 71.3027L130.342 74.7773H130.418L131.479 69.9785H132.521L133.582 74.7773H133.658L134.115 71.3027L134.572 68.0449H135.709L134.297 76.5H133.178L132.035 71.3262ZM141.75 76.5H137.086V75.4395H138.809V69.1055H137.086V68.0449H141.75V69.1055H140.027V75.4395H141.75V76.5ZM147.445 76.5H146.227V69.1289H143.713V68.0449H149.959V69.1289H147.445V76.5ZM157.125 76.5H155.918V72.7324H152.59V76.5H151.383V68.0449H152.59V71.6484H155.918V68.0449H157.125V76.5ZM169.277 75.5566C170.332 75.5566 171 74.9004 171.023 73.834H172.254C172.254 75.5449 171.064 76.6758 169.283 76.6758C167.268 76.6758 166.09 75.3457 166.09 73.0547V71.4902C166.09 69.1992 167.268 67.8691 169.283 67.8691C171.111 67.8691 172.23 68.9766 172.254 70.834H171.023C170.988 69.7266 170.285 68.9883 169.271 68.9883C168.006 68.9883 167.344 69.8496 167.344 71.4902V73.0547C167.344 74.6953 168.006 75.5566 169.277 75.5566ZM178.559 76.5L177.885 74.168H175.072L174.393 76.5H173.162L175.828 68.0449H177.188L179.854 76.5H178.559ZM176.461 69.3984L175.359 73.1777H177.598L176.502 69.3984H176.461ZM184.154 73.2012H182.426V76.5H181.213V68.0449H184.119C185.848 68.0449 186.914 69.0293 186.914 70.6289C186.914 71.7305 186.311 72.6445 185.361 72.9727L187.072 76.5H185.701L184.154 73.2012ZM182.426 69.082V72.2168H183.949C185.057 72.2168 185.684 71.6484 185.684 70.6523C185.684 69.6562 185.062 69.082 183.99 69.082H182.426ZM194.016 75.416V76.5H188.93V68.0449H194.016V69.1289H190.154V71.6895H193.799V72.709H190.154V75.416H194.016Z" fill="black"/>
<rect x="4" y="4" width="256" height="137" stroke="black"/>
<rect x="4" y="141" width="256" height="27" fill="white"/>
<path d="M13.8711 150L13.668 149.26H12.7734L12.5684 150H12.0957L12.9648 147.182H13.5078L14.377 150H13.8711ZM13.2129 147.676L12.8789 148.885H13.5645L13.2324 147.676H13.2129ZM14.8008 147.182H15.7949C16.3691 147.182 16.7383 147.549 16.7383 148.121C16.7383 148.689 16.3613 149.057 15.7754 149.057H15.2734V150H14.8008V147.182ZM15.2734 147.576V148.662H15.6777C16.0586 148.662 16.2598 148.477 16.2598 148.119C16.2598 147.762 16.0586 147.576 15.6777 147.576H15.2734ZM17.2734 147.182H18.2676C18.8418 147.182 19.2109 147.549 19.2109 148.121C19.2109 148.689 18.834 149.057 18.248 149.057H17.7461V150H17.2734V147.182ZM17.7461 147.576V148.662H18.1504C18.5312 148.662 18.7324 148.477 18.7324 148.119C18.7324 147.762 18.5312 147.576 18.1504 147.576H17.7461ZM20.6953 148.928H20.1973V150H19.7266V147.182H20.7188C21.3125 147.182 21.6777 147.516 21.6777 148.059C21.6777 148.426 21.4785 148.73 21.166 148.844L21.7344 150H21.2031L20.6953 148.928ZM20.1973 147.574V148.557H20.6543C20.998 148.557 21.1973 148.375 21.1973 148.064C21.1973 147.754 21.002 147.574 20.6641 147.574H20.1973ZM24.1914 148.811C24.1914 149.594 23.7891 150.057 23.127 150.057C22.4648 150.057 22.0625 149.594 22.0625 148.811V148.371C22.0625 147.588 22.4648 147.125 23.127 147.125C23.7891 147.125 24.1914 147.588 24.1914 148.371V148.811ZM23.127 149.635C23.502 149.635 23.7129 149.35 23.7129 148.807V148.375C23.7129 147.832 23.502 147.547 23.127 147.547C22.752 147.547 22.541 147.832 22.541 148.375V148.807C22.541 149.35 22.752 149.635 23.127 149.635ZM24.4551 150L25.3125 148.582L24.459 147.182H24.9824L25.6035 148.242H25.625L26.252 147.182H26.7441L25.8672 148.59L26.7363 150H26.2266L25.5918 148.965H25.5703L24.9316 150H24.4551ZM28.8867 150H27.2578V149.594H27.8359V147.588H27.2578V147.182H28.8867V147.588H28.3086V149.594H28.8867V150ZM29.9082 149.008V150H29.5039V147.182H30.0059L30.5312 148.852H30.5605L31.082 147.182H31.5859V150H31.1816V149.008L31.2324 147.875H31.1973L30.7129 149.338H30.377L29.8926 147.875H29.8574L29.9082 149.008ZM33.6523 150L33.4492 149.26H32.5547L32.3496 150H31.877L32.7461 147.182H33.2891L34.1582 150H33.6523ZM32.9941 147.676L32.6602 148.885H33.3457L33.0137 147.676H32.9941ZM35.7266 150H35.2539V147.594H34.4297V147.182H36.5508V147.594H35.7266V150ZM38.8711 149.588V150H37.1387V147.182H38.8711V147.594H37.6113V148.379H38.7988V148.764H37.6113V149.588H38.8711ZM43.1445 150H42.6719V147.594H41.8477V147.182H43.9688V147.594H43.1445V150ZM46.1953 150H44.5664V149.594H45.1445V147.588H44.5664V147.182H46.1953V147.588H45.6172V149.594H46.1953V150ZM47.2168 149.008V150H46.8125V147.182H47.3145L47.8398 148.852H47.8691L48.3906 147.182H48.8945V150H48.4902V149.008L48.541 147.875H48.5059L48.0215 149.338H47.6855L47.2012 147.875H47.166L47.2168 149.008ZM51.2344 149.588V150H49.502V147.182H51.2344V147.594H49.9746V148.379H51.1621V148.764H49.9746V149.588H51.2344ZM54.2539 149.227H54.7051C54.7324 149.498 54.9512 149.658 55.2949 149.658C55.627 149.658 55.8398 149.492 55.8398 149.232C55.8398 149.02 55.6992 148.898 55.3516 148.816L55.0801 148.752C54.5645 148.629 54.3184 148.369 54.3184 147.955C54.3184 147.449 54.6973 147.125 55.2891 147.125C55.8555 147.125 56.2402 147.445 56.2578 147.934H55.8086C55.7832 147.676 55.5898 147.523 55.293 147.523C54.9805 147.523 54.791 147.67 54.791 147.914C54.791 148.131 54.9277 148.254 55.2578 148.33L55.5293 148.395C56.0742 148.521 56.3086 148.764 56.3086 149.191C56.3086 149.727 55.918 150.057 55.2871 150.057C54.6699 150.057 54.2773 149.742 54.2539 149.227ZM56.8359 147.182H57.8301C58.4043 147.182 58.7734 147.549 58.7734 148.121C58.7734 148.689 58.3965 149.057 57.8105 149.057H57.3086V150H56.8359V147.182ZM57.3086 147.576V148.662H57.7129C58.0938 148.662 58.2949 148.477 58.2949 148.119C58.2949 147.762 58.0938 147.576 57.7129 147.576H57.3086ZM61.125 149.588V150H59.3926V147.182H61.125V147.594H59.8652V148.379H61.0527V148.764H59.8652V149.588H61.125ZM62.1348 150H61.7207V147.182H62.1504L63.2129 149.189H63.2441V147.182H63.6582V150H63.2305L62.166 147.984H62.1348V150ZM65.3984 150H64.9258V147.594H64.1016V147.182H66.2227V147.594H65.3984V150ZM69.4707 149.008V150H69.0664V147.182H69.5684L70.0938 148.852H70.123L70.6445 147.182H71.1484V150H70.7441V149.008L70.7949 147.875H70.7598L70.2754 149.338H69.9395L69.4551 147.875H69.4199L69.4707 149.008ZM73.2148 150L73.0117 149.26H72.1172L71.9121 150H71.4395L72.3086 147.182H72.8516L73.7207 150H73.2148ZM72.5566 147.676L72.2227 148.885H72.9082L72.5762 147.676H72.5566ZM74.6211 150H74.1699V147.182H74.6211V148.514H74.6504L75.6973 147.182H76.2109L75.2109 148.426L76.2891 150H75.7285L74.8887 148.77L74.6211 149.1V150ZM78.3398 150H76.7109V149.594H77.2891V147.588H76.7109V147.182H78.3398V147.588H77.7617V149.594H78.3398V150ZM79.4434 150H79.0293V147.182H79.459L80.5215 149.189H80.5527V147.182H80.9668V150H80.5391L79.4746 147.984H79.4434V150ZM83.0508 149.102V148.895H82.4766V148.529H83.5293V149.119C83.5293 149.684 83.123 150.057 82.5215 150.057C81.8398 150.057 81.4434 149.619 81.4434 148.863V148.318C81.4434 147.562 81.8398 147.125 82.5215 147.125C83.1309 147.125 83.5137 147.492 83.5273 148.092H83.0508C83.0352 147.766 82.8203 147.551 82.5117 147.551C82.123 147.551 81.9219 147.812 81.9219 148.318V148.863C81.9219 149.369 82.125 149.631 82.5176 149.631C82.8477 149.631 83.0508 149.432 83.0508 149.102Z" fill="black"/>
<path d="M16.4805 159.168C16.4805 160.293 15.6445 161.117 14.5 161.117C13.3398 161.117 12.5156 160.305 12.5156 159.152C12.5156 158.484 12.7422 157.875 13.2891 157.09C13.3789 156.953 14.457 155.457 14.5312 155.363H15.457L13.957 157.41C13.7852 157.652 13.7852 157.66 13.75 157.73L13.8125 157.754C13.9922 157.535 14.3828 157.375 14.7383 157.375C15.7422 157.375 16.4805 158.137 16.4805 159.168ZM14.4961 160.414C15.1719 160.414 15.6836 159.895 15.6836 159.207C15.6836 158.516 15.1719 157.996 14.4961 157.996C13.8203 157.996 13.3086 158.516 13.3086 159.207C13.3086 159.895 13.8203 160.414 14.4961 160.414ZM19.4219 161.125C18.1602 161.125 17.457 160.074 17.457 158.184C17.457 156.289 18.1602 155.238 19.4219 155.238C20.6836 155.238 21.3867 156.289 21.3867 158.184C21.3867 160.074 20.6836 161.125 19.4219 161.125ZM18.2578 158.184C18.2578 158.355 18.2617 158.516 18.2734 158.668L20.4531 156.949C20.2773 156.281 19.9297 155.934 19.4219 155.934C18.6602 155.934 18.2578 156.711 18.2578 158.184ZM19.4219 160.434C20.1797 160.434 20.582 159.652 20.582 158.184C20.582 158.008 20.5781 157.848 20.5664 157.691L18.3906 159.422C18.5664 160.086 18.9141 160.434 19.4219 160.434ZM24.3672 161.125C23.1055 161.125 22.4023 160.074 22.4023 158.184C22.4023 156.289 23.1055 155.238 24.3672 155.238C25.6289 155.238 26.332 156.289 26.332 158.184C26.332 160.074 25.6289 161.125 24.3672 161.125ZM23.2031 158.184C23.2031 158.355 23.207 158.516 23.2188 158.668L25.3984 156.949C25.2227 156.281 24.875 155.934 24.3672 155.934C23.6055 155.934 23.2031 156.711 23.2031 158.184ZM24.3672 160.434C25.125 160.434 25.5273 159.652 25.5273 158.184C25.5273 158.008 25.5234 157.848 25.5117 157.691L23.3359 159.422C23.5117 160.086 23.8594 160.434 24.3672 160.434ZM36.168 161H35.3633V158.488H33.1445V161H32.3398V155.363H33.1445V157.766H35.3633V155.363H36.168V161ZM39.3516 158.801H38.1992V161H37.3906V155.363H39.3281C40.4805 155.363 41.1914 156.02 41.1914 157.086C41.1914 157.82 40.7891 158.43 40.1562 158.648L41.2969 161H40.3828L39.3516 158.801ZM38.1992 156.055V158.145H39.2148C39.9531 158.145 40.3711 157.766 40.3711 157.102C40.3711 156.438 39.957 156.055 39.2422 156.055H38.1992ZM42.1641 159.477H42.9492C43.0117 160.062 43.4766 160.41 44.1953 160.41C44.9062 160.41 45.3633 160.047 45.3633 159.48C45.3633 159.023 45.0625 158.754 44.332 158.574L43.8164 158.453C42.7773 158.195 42.2969 157.688 42.2969 156.867C42.2969 155.883 43.0391 155.246 44.1875 155.246C45.2852 155.246 46.0352 155.875 46.0781 156.828H45.2969C45.2344 156.277 44.8242 155.953 44.1953 155.953C43.5195 155.953 43.1133 156.273 43.1133 156.809C43.1133 157.27 43.4062 157.535 44.1055 157.703L44.6211 157.832C45.7148 158.094 46.1797 158.574 46.1797 159.426C46.1797 160.465 45.4102 161.117 44.1875 161.117C42.9883 161.117 42.2188 160.492 42.1641 159.477Z" fill="black"/>
<rect x="4" y="141" width="256" height="27" stroke="black"/>
<rect x="4" y="168" width="204" height="27" fill="white"/>
<path d="M13.2598 176.506L13.9043 174.182H14.377L13.5078 177H12.9648L12.0957 174.182H12.5996L13.2402 176.506H13.2598ZM16.6172 176.588V177H14.8848V174.182H16.6172V174.594H15.3574V175.379H16.5449V175.764H15.3574V176.588H16.6172ZM18.2227 175.928H17.7246V177H17.2539V174.182H18.2461C18.8398 174.182 19.2051 174.516 19.2051 175.059C19.2051 175.426 19.0059 175.73 18.6934 175.844L19.2617 177H18.7305L18.2227 175.928ZM17.7246 174.574V175.557H18.1816C18.5254 175.557 18.7246 175.375 18.7246 175.064C18.7246 174.754 18.5293 174.574 18.1914 174.574H17.7246ZM21.4688 177H19.8398V176.594H20.418V174.588H19.8398V174.182H21.4688V174.588H20.8906V176.594H21.4688V177ZM22.8145 177H22.3418V174.182H24.0742V174.594H22.8145V175.441H23.9629V175.836H22.8145V177ZM26.4141 177H24.7852V176.594H25.3633V174.588H24.7852V174.182H26.4141V174.588H25.8359V176.594H26.4141V177ZM28.1348 176.631C28.4609 176.631 28.6641 176.42 28.6699 176.076H29.1484C29.1484 176.676 28.752 177.057 28.1367 177.057C27.4531 177.057 27.0527 176.617 27.0527 175.863V175.318C27.0527 174.564 27.4531 174.125 28.1367 174.125C28.7637 174.125 29.1406 174.502 29.1484 175.141H28.6699C28.6621 174.785 28.4453 174.551 28.1289 174.551C27.7441 174.551 27.541 174.814 27.541 175.318V175.863C27.541 176.367 27.7441 176.631 28.1348 176.631ZM31.1797 177L30.9766 176.26H30.082L29.877 177H29.4043L30.2734 174.182H30.8164L31.6855 177H31.1797ZM30.5215 174.676L30.1875 175.885H30.873L30.541 174.676H30.5215ZM33.2539 177H32.7812V174.594H31.957V174.182H34.0781V174.594H33.2539V177ZM36.3047 177H34.6758V176.594H35.2539V174.588H34.6758V174.182H36.3047V174.588H35.7266V176.594H36.3047V177ZM39.0273 175.811C39.0273 176.594 38.625 177.057 37.9629 177.057C37.3008 177.057 36.8984 176.594 36.8984 175.811V175.371C36.8984 174.588 37.3008 174.125 37.9629 174.125C38.625 174.125 39.0273 174.588 39.0273 175.371V175.811ZM37.9629 176.635C38.3379 176.635 38.5488 176.35 38.5488 175.807V175.375C38.5488 174.832 38.3379 174.547 37.9629 174.547C37.5879 174.547 37.377 174.832 37.377 175.375V175.807C37.377 176.35 37.5879 176.635 37.9629 176.635ZM39.8809 177H39.4668V174.182H39.8965L40.959 176.189H40.9902V174.182H41.4043V177H40.9766L39.9121 174.984H39.8809V177ZM45.6172 177H45.1445V174.594H44.3203V174.182H46.4414V174.594H45.6172V177ZM48.0898 177H47.6172V175.908L46.6992 174.182H47.2148L47.8379 175.42H47.8691L48.4922 174.182H49.0078L48.0898 175.908V177ZM49.418 174.182H50.4121C50.9863 174.182 51.3555 174.549 51.3555 175.121C51.3555 175.689 50.9785 176.057 50.3926 176.057H49.8906V177H49.418V174.182ZM49.8906 174.576V175.662H50.2949C50.6758 175.662 50.877 175.477 50.877 175.119C50.877 174.762 50.6758 174.576 50.2949 174.576H49.8906ZM53.707 176.588V177H51.9746V174.182H53.707V174.594H52.4473V175.379H53.6348V175.764H52.4473V176.588H53.707Z" fill="black"/>
<path d="M14.5977 187.371C15.3008 187.371 15.7461 186.934 15.7617 186.223H16.582C16.582 187.363 15.7891 188.117 14.6016 188.117C13.2578 188.117 12.4727 187.23 12.4727 185.703V184.66C12.4727 183.133 13.2578 182.246 14.6016 182.246C15.8203 182.246 16.5664 182.984 16.582 184.223H15.7617C15.7383 183.484 15.2695 182.992 14.5938 182.992C13.75 182.992 13.3086 183.566 13.3086 184.66V185.703C13.3086 186.797 13.75 187.371 14.5977 187.371ZM21.1992 187.277V188H17.8086V182.363H21.1992V183.086H18.625V184.793H21.0547V185.473H18.625V187.277H21.1992ZM24.5156 185.801H23.3633V188H22.5547V182.363H24.4922C25.6445 182.363 26.3555 183.02 26.3555 184.086C26.3555 184.82 25.9531 185.43 25.3203 185.648L26.4609 188H25.5469L24.5156 185.801ZM23.3633 183.055V185.145H24.3789C25.1172 185.145 25.5352 184.766 25.5352 184.102C25.5352 183.438 25.1211 183.055 24.4062 183.055H23.3633ZM29.7148 188H28.9023V183.086H27.2266V182.363H31.3906V183.086H29.7148V188ZM35.8086 188H32.6992V187.293H33.8477V183.07H32.6992V182.363H35.8086V183.07H34.6602V187.293H35.8086V188ZM38.4883 188H37.6719V182.363H41.0703V183.086H38.4883V184.906H40.8438V185.605H38.4883V188ZM45.6992 188H42.5898V187.293H43.7383V183.07H42.5898V182.363H45.6992V183.07H44.5508V187.293H45.6992V188ZM49.2148 187.371C49.918 187.371 50.3633 186.934 50.3789 186.223H51.1992C51.1992 187.363 50.4062 188.117 49.2188 188.117C47.875 188.117 47.0898 187.23 47.0898 185.703V184.66C47.0898 183.133 47.875 182.246 49.2188 182.246C50.4375 182.246 51.1836 182.984 51.1992 184.223H50.3789C50.3555 183.484 49.8867 182.992 49.2109 182.992C48.3672 182.992 47.9258 183.566 47.9258 184.66V185.703C47.9258 186.797 48.3672 187.371 49.2148 187.371ZM55.4023 188L54.9531 186.445H53.0781L52.625 188H51.8047L53.582 182.363H54.4883L56.2656 188H55.4023ZM54.0039 183.266L53.2695 185.785H54.7617L54.0312 183.266H54.0039ZM59.3867 188H58.5742V183.086H56.8984V182.363H61.0625V183.086H59.3867V188ZM65.707 187.277V188H62.3164V182.363H65.707V183.086H63.1328V184.793H65.5625V185.473H63.1328V187.277H65.707ZM75.9102 185.629C75.9102 187.191 75.1172 188.117 73.8164 188.117C72.5156 188.117 71.7227 187.191 71.7227 185.629V184.734C71.7227 183.172 72.5156 182.246 73.8164 182.246C75.1172 182.246 75.9102 183.172 75.9102 184.734V185.629ZM73.8164 187.375C74.6211 187.375 75.0898 186.758 75.0898 185.625V184.738C75.0898 183.605 74.6211 182.988 73.8164 182.988C73.0117 182.988 72.543 183.605 72.543 184.738V185.625C72.543 186.758 73.0117 187.375 73.8164 187.375ZM78.0508 188H77.2344V182.363H80.6328V183.086H78.0508V184.906H80.4062V185.605H78.0508V188ZM90.0195 188L89.5703 186.445H87.6953L87.2422 188H86.4219L88.1992 182.363H89.1055L90.8828 188H90.0195ZM88.6211 183.266L87.8867 185.785H89.3789L88.6484 183.266H88.6211ZM93.5977 187.371C94.3633 187.371 94.8047 186.863 94.8047 185.984V182.363H95.6172V186.035C95.6172 187.34 94.8633 188.117 93.5977 188.117C92.332 188.117 91.5781 187.34 91.5781 186.035V182.363H92.3906V185.984C92.3906 186.863 92.832 187.371 93.5977 187.371ZM98.9492 188H98.1367V183.086H96.4609V182.363H100.625V183.086H98.9492V188ZM105.402 188H104.598V185.488H102.379V188H101.574V182.363H102.379V184.766H104.598V182.363H105.402V188ZM110.215 187.277V188H106.824V182.363H110.215V183.086H107.641V184.793H110.07V185.473H107.641V187.277H110.215ZM112.195 188H111.473V182.363H112.23L114.504 186.578H114.562V182.363H115.285V188H114.535L112.254 183.773H112.195V188ZM118.73 188H117.918V183.086H116.242V182.363H120.406V183.086H118.73V188ZM124.824 188H121.715V187.293H122.863V183.07H121.715V182.363H124.824V183.07H123.676V187.293H124.824V188ZM128.34 187.371C129.043 187.371 129.488 186.934 129.504 186.223H130.324C130.324 187.363 129.531 188.117 128.344 188.117C127 188.117 126.215 187.23 126.215 185.703V184.66C126.215 183.133 127 182.246 128.344 182.246C129.562 182.246 130.309 182.984 130.324 184.223H129.504C129.48 183.484 129.012 182.992 128.336 182.992C127.492 182.992 127.051 183.566 127.051 184.66V185.703C127.051 186.797 127.492 187.371 128.34 187.371ZM134.715 188H131.605V187.293H132.754V183.07H131.605V182.363H134.715V183.07H133.566V187.293H134.715V188ZM138.512 188H137.699V183.086H136.023V182.363H140.188V183.086H138.512V188ZM143.457 188H142.645V185.738L140.785 182.363H141.684L143.023 184.895H143.078L144.418 182.363H145.316L143.457 185.738V188Z" fill="black"/>
<rect x="4" y="168" width="204" height="27" stroke="black"/>
<path d="M217.25 175.303H217.223L216.879 177H216.457L216 174.182H216.434L216.57 175.219L216.703 176.357H216.73L217.045 174.826H217.428L217.742 176.357H217.77L217.902 175.219L218.039 174.182H218.473L218.016 177H217.594L217.25 175.303ZM220.688 177H220.223V175.771H219.195V177H218.73V174.182H219.195V175.359H220.223V174.182H220.688V177ZM223.09 176.588V177H221.357V174.182H223.09V174.594H221.83V175.379H223.018V175.764H221.83V176.588H223.09ZM224.1 177H223.686V174.182H224.115L225.178 176.189H225.209V174.182H225.623V177H225.195L224.131 174.984H224.1V177Z" fill="black"/>
<path d="M216.609 183.98C216.609 182.965 217.367 182.246 218.441 182.246C219.516 182.246 220.246 182.895 220.246 183.844C220.246 184.438 219.965 184.922 219.047 185.883L217.789 187.223V187.289H220.336V188H216.648V187.441L218.535 185.402C219.266 184.609 219.445 184.312 219.445 183.887C219.445 183.309 219.039 182.934 218.418 182.934C217.793 182.934 217.379 183.352 217.379 183.98V184.004H216.609V183.98ZM223.422 188.125C222.16 188.125 221.457 187.074 221.457 185.184C221.457 183.289 222.16 182.238 223.422 182.238C224.684 182.238 225.387 183.289 225.387 185.184C225.387 187.074 224.684 188.125 223.422 188.125ZM222.258 185.184C222.258 185.355 222.262 185.516 222.273 185.668L224.453 183.949C224.277 183.281 223.93 182.934 223.422 182.934C222.66 182.934 222.258 183.711 222.258 185.184ZM223.422 187.434C224.18 187.434 224.582 186.652 224.582 185.184C224.582 185.008 224.578 184.848 224.566 184.691L222.391 186.422C222.566 187.086 222.914 187.434 223.422 187.434ZM226.5 183.98C226.5 182.965 227.258 182.246 228.332 182.246C229.406 182.246 230.137 182.895 230.137 183.844C230.137 184.438 229.855 184.922 228.938 185.883L227.68 187.223V187.289H230.227V188H226.539V187.441L228.426 185.402C229.156 184.609 229.336 184.312 229.336 183.887C229.336 183.309 228.93 182.934 228.309 182.934C227.684 182.934 227.27 183.352 227.27 183.98V184.004H226.5V183.98ZM232.621 185.426V184.777H233.25C233.859 184.777 234.281 184.391 234.281 183.836C234.281 183.285 233.875 182.93 233.262 182.93C232.648 182.93 232.246 183.285 232.195 183.863H231.438C231.496 182.863 232.203 182.246 233.289 182.246C234.34 182.246 235.074 182.852 235.074 183.719C235.074 184.391 234.711 184.879 234.102 185.02V185.082C234.855 185.18 235.305 185.699 235.305 186.461C235.305 187.434 234.48 188.117 233.316 188.117C232.168 188.117 231.379 187.465 231.328 186.469H232.09C232.145 187.043 232.617 187.41 233.293 187.41C234.027 187.41 234.488 187.031 234.488 186.43C234.488 185.816 234.016 185.426 233.273 185.426H232.621Z" fill="black"/>
<rect x="208" y="168" width="52" height="27" stroke="black"/>
</svg>
