<svg width="872" height="106" viewBox="0 0 872 106" fill="none" xmlns="http://www.w3.org/2000/svg">
<path d="M49.32 6.18199V72.764C49.32 77.2393 49.046 81.0753 48.498 84.272C47.95 87.4687 46.991 90.1173 45.621 92.218C44.251 94.2273 42.3787 95.7343 40.004 96.739C37.6293 97.6523 34.6153 98.109 30.962 98.109C26.1213 98.109 22.4223 97.1957 19.865 95.369C17.399 93.451 15.618 91.1677 14.522 88.519C13.426 85.8703 12.7867 83.0847 12.604 80.162C12.4213 77.2393 12.2843 74.7277 12.193 72.627H2.877C2.877 76.9197 3.24233 81.0753 3.973 85.094C4.70367 89.1127 6.07367 92.6747 8.083 95.78C10.0923 98.794 12.878 101.26 16.44 103.178C20.002 105.005 24.5687 105.918 30.14 105.918C35.4373 105.918 39.867 105.324 43.429 104.137C47.0823 102.95 50.005 101.169 52.197 98.794C54.4803 96.4193 56.1243 93.4053 57.129 89.752C58.1337 86.0987 58.636 81.7603 58.636 76.737V6.18199H49.32ZM85.351 65.64L104.942 15.498L123.848 65.64H85.351ZM100.147 6.18199L60.828 104H70.692L82.474 73.586H126.999L138.918 104H148.919L110.559 6.18199H100.147ZM222.472 35.774H231.788C231.149 30.6593 229.596 26.1383 227.13 22.211C224.755 18.2837 221.741 14.9957 218.088 12.347C214.526 9.60699 210.507 7.55199 206.032 6.18199C201.648 4.81199 197.127 4.127 192.469 4.127C184.797 4.127 178.038 5.54266 172.193 8.374C166.439 11.114 161.644 14.8587 157.808 19.608C153.972 24.266 151.095 29.6547 149.177 35.774C147.259 41.8933 146.3 48.3323 146.3 55.091C146.3 61.8497 147.259 68.2887 149.177 74.408C151.095 80.5273 153.972 85.916 157.808 90.574C161.644 95.232 166.439 98.9767 172.193 101.808C178.038 104.548 184.797 105.918 192.469 105.918C198.223 105.918 203.429 105.005 208.087 103.178C212.836 101.351 216.946 98.7483 220.417 95.369C223.888 91.9897 226.719 87.8797 228.911 83.039C231.103 78.1983 232.519 72.764 233.158 66.736H223.842C223.385 71.12 222.335 75.23 220.691 79.066C219.047 82.8107 216.901 86.0987 214.252 88.93C211.603 91.7613 208.452 93.999 204.799 95.643C201.146 97.287 197.036 98.109 192.469 98.109C185.984 98.109 180.413 96.876 175.755 94.41C171.097 91.944 167.261 88.7017 164.247 84.683C161.324 80.573 159.132 75.9607 157.671 70.846C156.301 65.64 155.616 60.3883 155.616 55.091C155.616 49.7023 156.301 44.4507 157.671 39.336C159.132 34.2213 161.324 29.6547 164.247 25.636C167.261 21.526 171.097 18.238 175.755 15.772C180.413 13.306 185.984 12.073 192.469 12.073C196.031 12.073 199.41 12.621 202.607 13.717C205.895 14.7217 208.863 16.2287 211.512 18.238C214.252 20.2473 216.535 22.759 218.362 25.773C220.28 28.6957 221.65 32.0293 222.472 35.774ZM244.68 55.091C244.68 49.7023 245.365 44.4507 246.735 39.336C248.196 34.2213 250.388 29.6547 253.311 25.636C256.325 21.526 260.161 18.238 264.819 15.772C269.477 13.306 275.048 12.073 281.533 12.073C288.018 12.073 293.543 13.306 298.11 15.772C302.768 18.238 306.558 21.526 309.481 25.636C312.495 29.6547 314.687 34.2213 316.057 39.336C317.518 44.4507 318.249 49.7023 318.249 55.091C318.249 60.3883 317.518 65.64 316.057 70.846C314.687 75.9607 312.495 80.573 309.481 84.683C306.558 88.7017 302.768 91.944 298.11 94.41C293.543 96.876 288.018 98.109 281.533 98.109C275.048 98.109 269.477 96.876 264.819 94.41C260.161 91.944 256.325 88.7017 253.311 84.683C250.388 80.573 248.196 75.9607 246.735 70.846C245.365 65.64 244.68 60.3883 244.68 55.091ZM235.364 55.091C235.364 61.8497 236.323 68.2887 238.241 74.408C240.159 80.5273 243.036 85.916 246.872 90.574C250.708 95.232 255.503 98.9767 261.257 101.808C267.102 104.548 273.861 105.918 281.533 105.918C289.205 105.918 295.918 104.548 301.672 101.808C307.426 98.9767 312.221 95.232 316.057 90.574C319.893 85.916 322.77 80.5273 324.688 74.408C326.606 68.2887 327.565 61.8497 327.565 55.091C327.565 48.3323 326.606 41.8933 324.688 35.774C322.77 29.6547 319.893 24.266 316.057 19.608C312.221 14.8587 307.426 11.114 301.672 8.374C295.918 5.54266 289.205 4.127 281.533 4.127C273.861 4.127 267.102 5.54266 261.257 8.374C255.503 11.114 250.708 14.8587 246.872 19.608C243.036 24.266 240.159 29.6547 238.241 35.774C236.323 41.8933 235.364 48.3323 235.364 55.091ZM344.582 49.063V14.128H376.64C391.344 14.128 398.697 20.2473 398.697 32.486C398.697 34.7693 398.24 36.9157 397.327 38.925C396.413 40.9343 395.043 42.7153 393.217 44.268C391.39 45.7293 389.107 46.9167 386.367 47.83C383.627 48.652 380.384 49.063 376.64 49.063H344.582ZM335.266 6.18199V104H376.64C381.937 104 386.458 103.543 390.203 102.63C394.039 101.625 397.235 100.392 399.793 98.931C402.441 97.3783 404.542 95.5973 406.095 93.588C407.647 91.5787 408.835 89.5693 409.657 87.56C410.479 85.4593 411.027 83.45 411.301 81.532C411.575 79.5227 411.712 77.7417 411.712 76.189C411.712 69.7957 409.839 64.4527 406.095 60.16C402.35 55.776 397.327 53.173 391.025 52.351V52.077C393.582 51.529 395.865 50.57 397.875 49.2C399.975 47.83 401.756 46.186 403.218 44.268C404.77 42.2587 405.958 40.0667 406.78 37.692C407.602 35.226 408.013 32.7143 408.013 30.157C408.013 25.5903 407.145 21.8 405.41 18.786C403.674 15.6807 401.345 13.2147 398.423 11.388C395.591 9.46999 392.258 8.14566 388.422 7.41499C384.677 6.59299 380.75 6.18199 376.64 6.18199H335.266ZM344.582 96.054V57.009H376.64C384.951 57.009 391.299 58.6073 395.683 61.804C400.158 64.9093 402.396 69.613 402.396 75.915C402.396 79.8423 401.711 83.1303 400.341 85.779C398.971 88.3363 397.098 90.3913 394.724 91.944C392.349 93.4967 389.609 94.5927 386.504 95.232C383.398 95.78 380.11 96.054 376.64 96.054H344.582ZM435.001 6.18199H423.493V20.704H429.247C429.338 21.8 429.247 23.033 428.973 24.403C428.79 25.6817 428.425 26.9603 427.877 28.239C427.329 29.5177 426.644 30.6593 425.822 31.664C425 32.5773 423.995 33.2167 422.808 33.582V39.473C424.908 38.925 426.689 38.0117 428.151 36.733C429.703 35.4543 430.982 33.993 431.987 32.349C432.991 30.6137 433.722 28.787 434.179 26.869C434.727 24.8597 435.001 22.8503 435.001 20.841V6.18199ZM455.458 71.805H446.142C445.868 77.833 446.644 82.9933 448.471 87.286C450.389 91.5787 453.083 95.095 456.554 97.835C460.024 100.575 464.226 102.63 469.158 104C474.09 105.279 479.433 105.918 485.187 105.918C490.941 105.918 495.873 105.37 499.983 104.274C504.093 103.269 507.518 101.945 510.258 100.301C513.089 98.5657 515.281 96.6477 516.834 94.547C518.478 92.4463 519.711 90.3913 520.533 88.382C521.446 86.2813 521.994 84.3177 522.177 82.491C522.451 80.6643 522.588 79.203 522.588 78.107C522.588 74.0883 521.903 70.6633 520.533 67.832C519.254 65.0007 517.427 62.626 515.053 60.708C512.769 58.6987 510.075 57.0547 506.97 55.776C503.956 54.406 500.713 53.2643 497.243 52.351L473.405 46.46C471.395 46.0033 469.477 45.4097 467.651 44.679C465.915 43.9483 464.363 42.9893 462.993 41.802C461.623 40.6147 460.527 39.199 459.705 37.555C458.974 35.8197 458.609 33.8103 458.609 31.527C458.609 27.8737 459.294 24.814 460.664 22.348C462.034 19.882 463.815 17.9183 466.007 16.457C468.29 14.9043 470.893 13.8083 473.816 13.169C476.83 12.4383 479.935 12.073 483.132 12.073C486.602 12.073 489.89 12.5753 492.996 13.58C496.192 14.4933 498.978 15.909 501.353 17.827C503.819 19.6537 505.782 21.9827 507.244 24.814C508.796 27.554 509.664 30.7963 509.847 34.541H519.163C519.163 29.5177 518.158 25.1337 516.149 21.389C514.231 17.553 511.628 14.3563 508.34 11.799C505.052 9.24166 501.216 7.32366 496.832 6.045C492.448 4.76633 487.835 4.127 482.995 4.127C476.145 4.127 470.528 5.13166 466.144 7.141C461.76 9.05899 458.289 11.4337 455.732 14.265C453.266 17.0963 451.576 20.1103 450.663 23.307C449.749 26.5037 449.293 29.2893 449.293 31.664C449.293 35.5 449.886 38.7423 451.074 41.391C452.352 44.0397 453.996 46.2773 456.006 48.104C458.015 49.9307 460.344 51.392 462.993 52.488C465.733 53.584 468.518 54.4973 471.35 55.228L493.133 60.571C495.416 61.119 497.745 61.8497 500.12 62.763C502.494 63.585 504.641 64.681 506.559 66.051C508.568 67.421 510.166 69.1107 511.354 71.12C512.632 73.1293 513.272 75.504 513.272 78.244C513.272 81.806 512.404 84.8657 510.669 87.423C508.933 89.889 506.741 91.944 504.093 93.588C501.535 95.1407 498.75 96.2823 495.736 97.013C492.722 97.7437 489.936 98.109 487.379 98.109C482.903 98.109 478.702 97.698 474.775 96.876C470.847 95.9627 467.422 94.5013 464.5 92.492C461.668 90.4827 459.431 87.7883 457.787 84.409C456.143 81.0297 455.366 76.8283 455.458 71.805ZM571.113 49.063V14.128H603.171C617.876 14.128 625.228 20.2473 625.228 32.486C625.228 34.7693 624.772 36.9157 623.858 38.925C622.945 40.9343 621.575 42.7153 619.748 44.268C617.922 45.7293 615.638 46.9167 612.898 47.83C610.158 48.652 606.916 49.063 603.171 49.063H571.113ZM561.797 6.18199V104H603.171C608.469 104 612.99 103.543 616.734 102.63C620.57 101.625 623.767 100.392 626.324 98.931C628.973 97.3783 631.074 95.5973 632.626 93.588C634.179 91.5787 635.366 89.5693 636.188 87.56C637.01 85.4593 637.558 83.45 637.832 81.532C638.106 79.5227 638.243 77.7417 638.243 76.189C638.243 69.7957 636.371 64.4527 632.626 60.16C628.882 55.776 623.858 53.173 617.556 52.351V52.077C620.114 51.529 622.397 50.57 624.406 49.2C626.507 47.83 628.288 46.186 629.749 44.268C631.302 42.2587 632.489 40.0667 633.311 37.692C634.133 35.226 634.544 32.7143 634.544 30.157C634.544 25.5903 633.677 21.8 631.941 18.786C630.206 15.6807 627.877 13.2147 624.954 11.388C622.123 9.46999 618.789 8.14566 614.953 7.41499C611.209 6.59299 607.281 6.18199 603.171 6.18199H561.797ZM571.113 96.054V57.009H603.171C611.483 57.009 617.83 58.6073 622.214 61.804C626.69 64.9093 628.927 69.613 628.927 75.915C628.927 79.8423 628.242 83.1303 626.872 85.779C625.502 88.3363 623.63 90.3913 621.255 91.944C618.881 93.4967 616.141 94.5927 613.035 95.232C609.93 95.78 606.642 96.054 603.171 96.054H571.113ZM646.325 6.18199V104H710.441V96.054H655.641V6.18199H646.325ZM712.1 6.18199V68.791C712.1 73.8143 712.785 78.6093 714.155 83.176C715.617 87.6513 717.854 91.5787 720.868 94.958C723.974 98.3373 727.901 101.032 732.65 103.041C737.491 104.959 743.291 105.918 750.049 105.918C756.899 105.918 762.699 104.959 767.448 103.041C772.289 101.032 776.216 98.3373 779.23 94.958C782.336 91.5787 784.573 87.6513 785.943 83.176C787.405 78.6093 788.135 73.8143 788.135 68.791V6.18199H778.819V66.736C778.819 72.3987 778.18 77.2393 776.901 81.258C775.623 85.1853 773.75 88.4277 771.284 90.985C768.818 93.451 765.804 95.2777 762.242 96.465C758.68 97.561 754.616 98.109 750.049 98.109C745.574 98.109 741.555 97.561 737.993 96.465C734.431 95.2777 731.417 93.451 728.951 90.985C726.485 88.4277 724.613 85.1853 723.334 81.258C722.056 77.2393 721.416 72.3987 721.416 66.736V6.18199H712.1ZM799.995 6.18199V104H868.221V96.054H809.311V57.42H863.837V49.474H809.311V14.128H867.536V6.18199H799.995Z" fill="#1A1A1A"/>
</svg>
