<svg width="37" height="37" viewBox="0 0 37 37" fill="none" xmlns="http://www.w3.org/2000/svg">
<path d="M31.486 26.9489C32.404 27.5399 33.6381 27.2787 34.125 26.3015C35.6068 23.327 36.2422 19.9873 35.9402 16.6521C35.5785 12.6579 33.8933 8.89882 31.152 5.97146C28.4106 3.0441 24.7701 1.11611 20.8082 0.493435C16.8463 -0.129241 12.7899 0.589066 9.28267 2.53437C5.77549 4.47968 3.01843 7.54055 1.44899 11.2313C-0.120455 14.922 -0.412367 19.0311 0.619571 22.9067C1.65151 26.7822 3.94818 30.2021 7.14515 32.6236C9.81466 34.6457 12.9842 35.8749 16.2922 36.1927C17.3789 36.2971 18.254 35.3884 18.2386 34.2968V34.2968C18.2233 33.2051 17.3218 32.347 16.2388 32.209C13.8138 31.9002 11.4991 30.9619 9.53231 29.4721C7.03754 27.5824 5.24531 24.9137 4.44003 21.8894C3.63475 18.8651 3.86255 15.6585 5.08727 12.7784C6.31199 9.89833 8.46349 7.50976 11.2003 5.99173C13.9372 4.4737 17.1026 3.91316 20.1943 4.39907C23.2861 4.88498 26.1269 6.3895 28.2662 8.67388C30.4054 10.9583 31.7205 13.8917 32.0027 17.0086C32.2252 19.4659 31.7957 21.9263 30.7738 24.147C30.3174 25.1388 30.5681 26.3579 31.486 26.9489V26.9489Z" fill="url(#paint0_angular_1605_7208)"/>
<defs>
<radialGradient id="paint0_angular_1605_7208" cx="0" cy="0" r="1" gradientUnits="userSpaceOnUse" gradientTransform="translate(17.8623 17.2867) rotate(36.3033) scale(16.2635 27.592)">
<stop stop-color="#D8F5FF"/>
<stop offset="0.270833" stop-color="#56D5FF"/>
<stop offset="0.486246" stop-color="#2FB1F2"/>
<stop offset="0.586433" stop-color="#1EA2ED"/>
<stop offset="0.781786" stop-color="#1BA7EB"/>
<stop offset="1" stop-color="#15AFE8"/>
</radialGradient>
</defs>
</svg>
